G04 MADE WITH FRITZING*
G04 WWW.FRITZING.ORG*
G04 DOUBLE SIDED*
G04 HOLES PLATED*
G04 CONTOUR ON CENTER OF CONTOUR VECTOR*
%ASAXBY*%
%FSLAX23Y23*%
%MOIN*%
%OFA0B0*%
%SFA1.0B1.0*%
%ADD10C,0.135984*%
%ADD11C,0.089370*%
%ADD12C,0.081181*%
%ADD13C,0.088000*%
%ADD14C,0.049370*%
%ADD15R,0.032000X0.060000*%
%ADD16R,0.060000X0.032000*%
%ADD17R,0.069055X0.065118*%
%ADD18R,0.104488X0.112362*%
%ADD19R,0.112362X0.096614*%
%LNMASK1*%
G90*
G70*
G54D10*
X898Y133D03*
X98Y133D03*
X898Y1133D03*
X98Y1133D03*
G54D11*
X798Y479D03*
X798Y379D03*
X798Y279D03*
X798Y479D03*
X798Y379D03*
X798Y279D03*
X898Y279D03*
X898Y379D03*
X898Y479D03*
G54D12*
X885Y733D03*
X98Y733D03*
X885Y733D03*
X98Y733D03*
X885Y733D03*
X98Y733D03*
G54D13*
X252Y123D03*
X352Y123D03*
X452Y123D03*
X552Y123D03*
X252Y123D03*
X352Y123D03*
X452Y123D03*
X552Y123D03*
X552Y223D03*
X452Y223D03*
X352Y223D03*
X252Y223D03*
G54D14*
X409Y543D03*
X293Y662D03*
X480Y573D03*
X181Y287D03*
X148Y676D03*
X435Y655D03*
X804Y651D03*
X141Y537D03*
X748Y139D03*
X167Y753D03*
X622Y527D03*
X794Y581D03*
X72Y579D03*
X798Y726D03*
G54D15*
X277Y750D03*
X309Y750D03*
X340Y750D03*
X372Y750D03*
X403Y750D03*
X435Y750D03*
X466Y750D03*
X498Y750D03*
G54D16*
X557Y808D03*
X557Y840D03*
X557Y871D03*
X557Y903D03*
X557Y934D03*
X557Y966D03*
X557Y997D03*
X557Y1029D03*
G54D15*
X498Y1088D03*
X466Y1088D03*
X435Y1088D03*
X403Y1088D03*
X372Y1088D03*
X340Y1088D03*
X309Y1088D03*
X277Y1088D03*
G54D16*
X219Y1029D03*
X219Y997D03*
X219Y966D03*
X219Y934D03*
X219Y903D03*
X219Y871D03*
X219Y840D03*
X219Y808D03*
G54D17*
X107Y899D03*
X107Y818D03*
G54D18*
X769Y817D03*
X769Y1069D03*
G54D19*
X256Y439D03*
X453Y439D03*
G04 End of Mask1*
M02*