G04 MADE WITH FRITZING*
G04 WWW.FRITZING.ORG*
G04 DOUBLE SIDED*
G04 HOLES PLATED*
G04 CONTOUR ON CENTER OF CONTOUR VECTOR*
%ASAXBY*%
%FSLAX23Y23*%
%MOIN*%
%OFA0B0*%
%SFA1.0B1.0*%
%ADD10C,0.034283X0.0222834*%
%ADD11C,0.010000*%
%ADD12C,0.005000*%
%ADD13R,0.001000X0.001000*%
%LNSILK1*%
G90*
G70*
G54D10*
X280Y811D03*
G54D11*
X748Y529D02*
X748Y229D01*
D02*
X748Y229D02*
X948Y229D01*
D02*
X948Y229D02*
X948Y529D01*
D02*
X948Y529D02*
X748Y529D01*
D02*
X202Y73D02*
X602Y73D01*
D02*
X602Y73D02*
X602Y273D01*
G54D12*
D02*
X237Y73D02*
X202Y108D01*
G54D13*
X0Y1217D02*
X1030Y1217D01*
X0Y1216D02*
X1030Y1216D01*
X0Y1215D02*
X1030Y1215D01*
X0Y1214D02*
X1030Y1214D01*
X0Y1213D02*
X1030Y1213D01*
X0Y1212D02*
X1030Y1212D01*
X0Y1211D02*
X1030Y1211D01*
X0Y1210D02*
X1030Y1210D01*
X0Y1209D02*
X7Y1209D01*
X1023Y1209D02*
X1030Y1209D01*
X0Y1208D02*
X7Y1208D01*
X1023Y1208D02*
X1030Y1208D01*
X0Y1207D02*
X7Y1207D01*
X1023Y1207D02*
X1030Y1207D01*
X0Y1206D02*
X7Y1206D01*
X1023Y1206D02*
X1030Y1206D01*
X0Y1205D02*
X7Y1205D01*
X1023Y1205D02*
X1030Y1205D01*
X0Y1204D02*
X7Y1204D01*
X1023Y1204D02*
X1030Y1204D01*
X0Y1203D02*
X7Y1203D01*
X1023Y1203D02*
X1030Y1203D01*
X0Y1202D02*
X7Y1202D01*
X1023Y1202D02*
X1030Y1202D01*
X0Y1201D02*
X7Y1201D01*
X1023Y1201D02*
X1030Y1201D01*
X0Y1200D02*
X7Y1200D01*
X1023Y1200D02*
X1030Y1200D01*
X0Y1199D02*
X7Y1199D01*
X1023Y1199D02*
X1030Y1199D01*
X0Y1198D02*
X7Y1198D01*
X1023Y1198D02*
X1030Y1198D01*
X0Y1197D02*
X7Y1197D01*
X1023Y1197D02*
X1030Y1197D01*
X0Y1196D02*
X7Y1196D01*
X1023Y1196D02*
X1030Y1196D01*
X0Y1195D02*
X7Y1195D01*
X1023Y1195D02*
X1030Y1195D01*
X0Y1194D02*
X7Y1194D01*
X1023Y1194D02*
X1030Y1194D01*
X0Y1193D02*
X7Y1193D01*
X1023Y1193D02*
X1030Y1193D01*
X0Y1192D02*
X7Y1192D01*
X1023Y1192D02*
X1030Y1192D01*
X0Y1191D02*
X7Y1191D01*
X1023Y1191D02*
X1030Y1191D01*
X0Y1190D02*
X7Y1190D01*
X1023Y1190D02*
X1030Y1190D01*
X0Y1189D02*
X7Y1189D01*
X1023Y1189D02*
X1030Y1189D01*
X0Y1188D02*
X7Y1188D01*
X1023Y1188D02*
X1030Y1188D01*
X0Y1187D02*
X7Y1187D01*
X1023Y1187D02*
X1030Y1187D01*
X0Y1186D02*
X7Y1186D01*
X1023Y1186D02*
X1030Y1186D01*
X0Y1185D02*
X7Y1185D01*
X1023Y1185D02*
X1030Y1185D01*
X0Y1184D02*
X7Y1184D01*
X1023Y1184D02*
X1030Y1184D01*
X0Y1183D02*
X7Y1183D01*
X1023Y1183D02*
X1030Y1183D01*
X0Y1182D02*
X7Y1182D01*
X1023Y1182D02*
X1030Y1182D01*
X0Y1181D02*
X7Y1181D01*
X1023Y1181D02*
X1030Y1181D01*
X0Y1180D02*
X7Y1180D01*
X1023Y1180D02*
X1030Y1180D01*
X0Y1179D02*
X7Y1179D01*
X1023Y1179D02*
X1030Y1179D01*
X0Y1178D02*
X7Y1178D01*
X1023Y1178D02*
X1030Y1178D01*
X0Y1177D02*
X7Y1177D01*
X1023Y1177D02*
X1030Y1177D01*
X0Y1176D02*
X7Y1176D01*
X1023Y1176D02*
X1030Y1176D01*
X0Y1175D02*
X7Y1175D01*
X1023Y1175D02*
X1030Y1175D01*
X0Y1174D02*
X7Y1174D01*
X1023Y1174D02*
X1030Y1174D01*
X0Y1173D02*
X7Y1173D01*
X1023Y1173D02*
X1030Y1173D01*
X0Y1172D02*
X7Y1172D01*
X1023Y1172D02*
X1030Y1172D01*
X0Y1171D02*
X7Y1171D01*
X1023Y1171D02*
X1030Y1171D01*
X0Y1170D02*
X7Y1170D01*
X1023Y1170D02*
X1030Y1170D01*
X0Y1169D02*
X7Y1169D01*
X1023Y1169D02*
X1030Y1169D01*
X0Y1168D02*
X7Y1168D01*
X1023Y1168D02*
X1030Y1168D01*
X0Y1167D02*
X7Y1167D01*
X1023Y1167D02*
X1030Y1167D01*
X0Y1166D02*
X7Y1166D01*
X1023Y1166D02*
X1030Y1166D01*
X0Y1165D02*
X7Y1165D01*
X1023Y1165D02*
X1030Y1165D01*
X0Y1164D02*
X7Y1164D01*
X1023Y1164D02*
X1030Y1164D01*
X0Y1163D02*
X7Y1163D01*
X1023Y1163D02*
X1030Y1163D01*
X0Y1162D02*
X7Y1162D01*
X1023Y1162D02*
X1030Y1162D01*
X0Y1161D02*
X7Y1161D01*
X1023Y1161D02*
X1030Y1161D01*
X0Y1160D02*
X7Y1160D01*
X1023Y1160D02*
X1030Y1160D01*
X0Y1159D02*
X7Y1159D01*
X1023Y1159D02*
X1030Y1159D01*
X0Y1158D02*
X7Y1158D01*
X1023Y1158D02*
X1030Y1158D01*
X0Y1157D02*
X7Y1157D01*
X1023Y1157D02*
X1030Y1157D01*
X0Y1156D02*
X7Y1156D01*
X1023Y1156D02*
X1030Y1156D01*
X0Y1155D02*
X7Y1155D01*
X1023Y1155D02*
X1030Y1155D01*
X0Y1154D02*
X7Y1154D01*
X1023Y1154D02*
X1030Y1154D01*
X0Y1153D02*
X7Y1153D01*
X1023Y1153D02*
X1030Y1153D01*
X0Y1152D02*
X7Y1152D01*
X1023Y1152D02*
X1030Y1152D01*
X0Y1151D02*
X7Y1151D01*
X1023Y1151D02*
X1030Y1151D01*
X0Y1150D02*
X7Y1150D01*
X1023Y1150D02*
X1030Y1150D01*
X0Y1149D02*
X7Y1149D01*
X1023Y1149D02*
X1030Y1149D01*
X0Y1148D02*
X7Y1148D01*
X1023Y1148D02*
X1030Y1148D01*
X0Y1147D02*
X7Y1147D01*
X1023Y1147D02*
X1030Y1147D01*
X0Y1146D02*
X7Y1146D01*
X1023Y1146D02*
X1030Y1146D01*
X0Y1145D02*
X7Y1145D01*
X1023Y1145D02*
X1030Y1145D01*
X0Y1144D02*
X7Y1144D01*
X1023Y1144D02*
X1030Y1144D01*
X0Y1143D02*
X7Y1143D01*
X1023Y1143D02*
X1030Y1143D01*
X0Y1142D02*
X7Y1142D01*
X1023Y1142D02*
X1030Y1142D01*
X0Y1141D02*
X7Y1141D01*
X1023Y1141D02*
X1030Y1141D01*
X0Y1140D02*
X7Y1140D01*
X1023Y1140D02*
X1030Y1140D01*
X0Y1139D02*
X7Y1139D01*
X1023Y1139D02*
X1030Y1139D01*
X0Y1138D02*
X7Y1138D01*
X1023Y1138D02*
X1030Y1138D01*
X0Y1137D02*
X7Y1137D01*
X1023Y1137D02*
X1030Y1137D01*
X0Y1136D02*
X7Y1136D01*
X1023Y1136D02*
X1030Y1136D01*
X0Y1135D02*
X7Y1135D01*
X1023Y1135D02*
X1030Y1135D01*
X0Y1134D02*
X7Y1134D01*
X1023Y1134D02*
X1030Y1134D01*
X0Y1133D02*
X7Y1133D01*
X1023Y1133D02*
X1030Y1133D01*
X0Y1132D02*
X7Y1132D01*
X1023Y1132D02*
X1030Y1132D01*
X0Y1131D02*
X7Y1131D01*
X1023Y1131D02*
X1030Y1131D01*
X0Y1130D02*
X7Y1130D01*
X1023Y1130D02*
X1030Y1130D01*
X0Y1129D02*
X7Y1129D01*
X1023Y1129D02*
X1030Y1129D01*
X0Y1128D02*
X7Y1128D01*
X713Y1128D02*
X823Y1128D01*
X1023Y1128D02*
X1030Y1128D01*
X0Y1127D02*
X7Y1127D01*
X713Y1127D02*
X823Y1127D01*
X1023Y1127D02*
X1030Y1127D01*
X0Y1126D02*
X7Y1126D01*
X713Y1126D02*
X823Y1126D01*
X1023Y1126D02*
X1030Y1126D01*
X0Y1125D02*
X7Y1125D01*
X713Y1125D02*
X715Y1125D01*
X821Y1125D02*
X823Y1125D01*
X1023Y1125D02*
X1030Y1125D01*
X0Y1124D02*
X7Y1124D01*
X713Y1124D02*
X715Y1124D01*
X821Y1124D02*
X823Y1124D01*
X1023Y1124D02*
X1030Y1124D01*
X0Y1123D02*
X7Y1123D01*
X713Y1123D02*
X715Y1123D01*
X821Y1123D02*
X823Y1123D01*
X1023Y1123D02*
X1030Y1123D01*
X0Y1122D02*
X7Y1122D01*
X713Y1122D02*
X715Y1122D01*
X821Y1122D02*
X823Y1122D01*
X1023Y1122D02*
X1030Y1122D01*
X0Y1121D02*
X7Y1121D01*
X713Y1121D02*
X715Y1121D01*
X821Y1121D02*
X823Y1121D01*
X1023Y1121D02*
X1030Y1121D01*
X0Y1120D02*
X7Y1120D01*
X713Y1120D02*
X715Y1120D01*
X821Y1120D02*
X823Y1120D01*
X1023Y1120D02*
X1030Y1120D01*
X0Y1119D02*
X7Y1119D01*
X713Y1119D02*
X715Y1119D01*
X821Y1119D02*
X823Y1119D01*
X1023Y1119D02*
X1030Y1119D01*
X0Y1118D02*
X7Y1118D01*
X713Y1118D02*
X715Y1118D01*
X821Y1118D02*
X823Y1118D01*
X1023Y1118D02*
X1030Y1118D01*
X0Y1117D02*
X7Y1117D01*
X713Y1117D02*
X715Y1117D01*
X821Y1117D02*
X823Y1117D01*
X1023Y1117D02*
X1030Y1117D01*
X0Y1116D02*
X7Y1116D01*
X713Y1116D02*
X715Y1116D01*
X821Y1116D02*
X823Y1116D01*
X1023Y1116D02*
X1030Y1116D01*
X0Y1115D02*
X7Y1115D01*
X713Y1115D02*
X715Y1115D01*
X821Y1115D02*
X823Y1115D01*
X1023Y1115D02*
X1030Y1115D01*
X0Y1114D02*
X7Y1114D01*
X713Y1114D02*
X715Y1114D01*
X821Y1114D02*
X823Y1114D01*
X1023Y1114D02*
X1030Y1114D01*
X0Y1113D02*
X7Y1113D01*
X713Y1113D02*
X715Y1113D01*
X821Y1113D02*
X823Y1113D01*
X1023Y1113D02*
X1030Y1113D01*
X0Y1112D02*
X7Y1112D01*
X713Y1112D02*
X715Y1112D01*
X821Y1112D02*
X823Y1112D01*
X1023Y1112D02*
X1030Y1112D01*
X0Y1111D02*
X7Y1111D01*
X713Y1111D02*
X715Y1111D01*
X821Y1111D02*
X823Y1111D01*
X1023Y1111D02*
X1030Y1111D01*
X0Y1110D02*
X7Y1110D01*
X713Y1110D02*
X715Y1110D01*
X821Y1110D02*
X823Y1110D01*
X1023Y1110D02*
X1030Y1110D01*
X0Y1109D02*
X7Y1109D01*
X713Y1109D02*
X715Y1109D01*
X821Y1109D02*
X823Y1109D01*
X1023Y1109D02*
X1030Y1109D01*
X0Y1108D02*
X7Y1108D01*
X713Y1108D02*
X715Y1108D01*
X821Y1108D02*
X823Y1108D01*
X1023Y1108D02*
X1030Y1108D01*
X0Y1107D02*
X7Y1107D01*
X713Y1107D02*
X715Y1107D01*
X821Y1107D02*
X823Y1107D01*
X1023Y1107D02*
X1030Y1107D01*
X0Y1106D02*
X7Y1106D01*
X713Y1106D02*
X715Y1106D01*
X821Y1106D02*
X823Y1106D01*
X1023Y1106D02*
X1030Y1106D01*
X0Y1105D02*
X7Y1105D01*
X713Y1105D02*
X715Y1105D01*
X821Y1105D02*
X823Y1105D01*
X1023Y1105D02*
X1030Y1105D01*
X0Y1104D02*
X7Y1104D01*
X713Y1104D02*
X715Y1104D01*
X821Y1104D02*
X823Y1104D01*
X1023Y1104D02*
X1030Y1104D01*
X0Y1103D02*
X7Y1103D01*
X713Y1103D02*
X715Y1103D01*
X821Y1103D02*
X823Y1103D01*
X1023Y1103D02*
X1030Y1103D01*
X0Y1102D02*
X7Y1102D01*
X713Y1102D02*
X715Y1102D01*
X821Y1102D02*
X823Y1102D01*
X1023Y1102D02*
X1030Y1102D01*
X0Y1101D02*
X7Y1101D01*
X713Y1101D02*
X715Y1101D01*
X821Y1101D02*
X823Y1101D01*
X1023Y1101D02*
X1030Y1101D01*
X0Y1100D02*
X7Y1100D01*
X713Y1100D02*
X715Y1100D01*
X821Y1100D02*
X823Y1100D01*
X1023Y1100D02*
X1030Y1100D01*
X0Y1099D02*
X7Y1099D01*
X713Y1099D02*
X715Y1099D01*
X821Y1099D02*
X823Y1099D01*
X1023Y1099D02*
X1030Y1099D01*
X0Y1098D02*
X7Y1098D01*
X713Y1098D02*
X715Y1098D01*
X821Y1098D02*
X823Y1098D01*
X1023Y1098D02*
X1030Y1098D01*
X0Y1097D02*
X7Y1097D01*
X713Y1097D02*
X715Y1097D01*
X821Y1097D02*
X823Y1097D01*
X1023Y1097D02*
X1030Y1097D01*
X0Y1096D02*
X7Y1096D01*
X713Y1096D02*
X715Y1096D01*
X821Y1096D02*
X823Y1096D01*
X1023Y1096D02*
X1030Y1096D01*
X0Y1095D02*
X7Y1095D01*
X713Y1095D02*
X715Y1095D01*
X821Y1095D02*
X823Y1095D01*
X1023Y1095D02*
X1030Y1095D01*
X0Y1094D02*
X7Y1094D01*
X713Y1094D02*
X715Y1094D01*
X821Y1094D02*
X823Y1094D01*
X1023Y1094D02*
X1030Y1094D01*
X0Y1093D02*
X7Y1093D01*
X713Y1093D02*
X715Y1093D01*
X821Y1093D02*
X823Y1093D01*
X1023Y1093D02*
X1030Y1093D01*
X0Y1092D02*
X7Y1092D01*
X713Y1092D02*
X715Y1092D01*
X821Y1092D02*
X823Y1092D01*
X1023Y1092D02*
X1030Y1092D01*
X0Y1091D02*
X7Y1091D01*
X713Y1091D02*
X715Y1091D01*
X821Y1091D02*
X823Y1091D01*
X1023Y1091D02*
X1030Y1091D01*
X0Y1090D02*
X7Y1090D01*
X713Y1090D02*
X715Y1090D01*
X821Y1090D02*
X823Y1090D01*
X1023Y1090D02*
X1030Y1090D01*
X0Y1089D02*
X7Y1089D01*
X713Y1089D02*
X715Y1089D01*
X821Y1089D02*
X823Y1089D01*
X1023Y1089D02*
X1030Y1089D01*
X0Y1088D02*
X7Y1088D01*
X713Y1088D02*
X715Y1088D01*
X821Y1088D02*
X823Y1088D01*
X1023Y1088D02*
X1030Y1088D01*
X0Y1087D02*
X7Y1087D01*
X713Y1087D02*
X715Y1087D01*
X821Y1087D02*
X823Y1087D01*
X1023Y1087D02*
X1030Y1087D01*
X0Y1086D02*
X7Y1086D01*
X713Y1086D02*
X715Y1086D01*
X821Y1086D02*
X823Y1086D01*
X1023Y1086D02*
X1030Y1086D01*
X0Y1085D02*
X7Y1085D01*
X713Y1085D02*
X715Y1085D01*
X821Y1085D02*
X823Y1085D01*
X1023Y1085D02*
X1030Y1085D01*
X0Y1084D02*
X7Y1084D01*
X713Y1084D02*
X715Y1084D01*
X821Y1084D02*
X823Y1084D01*
X1023Y1084D02*
X1030Y1084D01*
X0Y1083D02*
X7Y1083D01*
X713Y1083D02*
X715Y1083D01*
X821Y1083D02*
X823Y1083D01*
X1023Y1083D02*
X1030Y1083D01*
X0Y1082D02*
X7Y1082D01*
X713Y1082D02*
X715Y1082D01*
X821Y1082D02*
X823Y1082D01*
X1023Y1082D02*
X1030Y1082D01*
X0Y1081D02*
X7Y1081D01*
X713Y1081D02*
X715Y1081D01*
X821Y1081D02*
X823Y1081D01*
X1023Y1081D02*
X1030Y1081D01*
X0Y1080D02*
X7Y1080D01*
X713Y1080D02*
X715Y1080D01*
X821Y1080D02*
X823Y1080D01*
X1023Y1080D02*
X1030Y1080D01*
X0Y1079D02*
X7Y1079D01*
X713Y1079D02*
X715Y1079D01*
X821Y1079D02*
X823Y1079D01*
X1023Y1079D02*
X1030Y1079D01*
X0Y1078D02*
X7Y1078D01*
X713Y1078D02*
X715Y1078D01*
X821Y1078D02*
X823Y1078D01*
X1023Y1078D02*
X1030Y1078D01*
X0Y1077D02*
X7Y1077D01*
X672Y1077D02*
X715Y1077D01*
X821Y1077D02*
X859Y1077D01*
X1023Y1077D02*
X1030Y1077D01*
X0Y1076D02*
X7Y1076D01*
X672Y1076D02*
X715Y1076D01*
X821Y1076D02*
X861Y1076D01*
X1023Y1076D02*
X1030Y1076D01*
X0Y1075D02*
X7Y1075D01*
X672Y1075D02*
X715Y1075D01*
X821Y1075D02*
X863Y1075D01*
X1023Y1075D02*
X1030Y1075D01*
X0Y1074D02*
X7Y1074D01*
X672Y1074D02*
X715Y1074D01*
X821Y1074D02*
X864Y1074D01*
X1023Y1074D02*
X1030Y1074D01*
X0Y1073D02*
X7Y1073D01*
X672Y1073D02*
X675Y1073D01*
X861Y1073D02*
X864Y1073D01*
X1023Y1073D02*
X1030Y1073D01*
X0Y1072D02*
X7Y1072D01*
X672Y1072D02*
X675Y1072D01*
X861Y1072D02*
X864Y1072D01*
X1023Y1072D02*
X1030Y1072D01*
X0Y1071D02*
X7Y1071D01*
X672Y1071D02*
X675Y1071D01*
X861Y1071D02*
X864Y1071D01*
X1023Y1071D02*
X1030Y1071D01*
X0Y1070D02*
X7Y1070D01*
X672Y1070D02*
X675Y1070D01*
X861Y1070D02*
X864Y1070D01*
X1023Y1070D02*
X1030Y1070D01*
X0Y1069D02*
X7Y1069D01*
X672Y1069D02*
X675Y1069D01*
X861Y1069D02*
X864Y1069D01*
X1023Y1069D02*
X1030Y1069D01*
X0Y1068D02*
X7Y1068D01*
X672Y1068D02*
X675Y1068D01*
X861Y1068D02*
X864Y1068D01*
X1023Y1068D02*
X1030Y1068D01*
X0Y1067D02*
X7Y1067D01*
X672Y1067D02*
X675Y1067D01*
X861Y1067D02*
X864Y1067D01*
X1023Y1067D02*
X1030Y1067D01*
X0Y1066D02*
X7Y1066D01*
X672Y1066D02*
X675Y1066D01*
X861Y1066D02*
X864Y1066D01*
X1023Y1066D02*
X1030Y1066D01*
X0Y1065D02*
X7Y1065D01*
X672Y1065D02*
X675Y1065D01*
X861Y1065D02*
X864Y1065D01*
X1023Y1065D02*
X1030Y1065D01*
X0Y1064D02*
X7Y1064D01*
X672Y1064D02*
X675Y1064D01*
X861Y1064D02*
X864Y1064D01*
X1023Y1064D02*
X1030Y1064D01*
X0Y1063D02*
X7Y1063D01*
X672Y1063D02*
X675Y1063D01*
X861Y1063D02*
X864Y1063D01*
X1023Y1063D02*
X1030Y1063D01*
X0Y1062D02*
X7Y1062D01*
X672Y1062D02*
X675Y1062D01*
X861Y1062D02*
X864Y1062D01*
X1023Y1062D02*
X1030Y1062D01*
X0Y1061D02*
X7Y1061D01*
X672Y1061D02*
X675Y1061D01*
X861Y1061D02*
X864Y1061D01*
X1023Y1061D02*
X1030Y1061D01*
X0Y1060D02*
X7Y1060D01*
X248Y1060D02*
X260Y1060D01*
X514Y1060D02*
X526Y1060D01*
X672Y1060D02*
X675Y1060D01*
X861Y1060D02*
X864Y1060D01*
X1023Y1060D02*
X1030Y1060D01*
X0Y1059D02*
X7Y1059D01*
X247Y1059D02*
X260Y1059D01*
X514Y1059D02*
X527Y1059D01*
X672Y1059D02*
X675Y1059D01*
X861Y1059D02*
X864Y1059D01*
X1023Y1059D02*
X1030Y1059D01*
X0Y1058D02*
X7Y1058D01*
X247Y1058D02*
X527Y1058D01*
X672Y1058D02*
X675Y1058D01*
X861Y1058D02*
X864Y1058D01*
X1023Y1058D02*
X1030Y1058D01*
X0Y1057D02*
X7Y1057D01*
X247Y1057D02*
X527Y1057D01*
X672Y1057D02*
X675Y1057D01*
X861Y1057D02*
X864Y1057D01*
X1023Y1057D02*
X1030Y1057D01*
X0Y1056D02*
X7Y1056D01*
X247Y1056D02*
X527Y1056D01*
X672Y1056D02*
X675Y1056D01*
X861Y1056D02*
X864Y1056D01*
X1023Y1056D02*
X1030Y1056D01*
X0Y1055D02*
X7Y1055D01*
X247Y1055D02*
X527Y1055D01*
X672Y1055D02*
X675Y1055D01*
X861Y1055D02*
X864Y1055D01*
X1023Y1055D02*
X1030Y1055D01*
X0Y1054D02*
X7Y1054D01*
X247Y1054D02*
X252Y1054D01*
X522Y1054D02*
X527Y1054D01*
X672Y1054D02*
X675Y1054D01*
X861Y1054D02*
X864Y1054D01*
X1023Y1054D02*
X1030Y1054D01*
X0Y1053D02*
X7Y1053D01*
X247Y1053D02*
X252Y1053D01*
X522Y1053D02*
X527Y1053D01*
X672Y1053D02*
X675Y1053D01*
X861Y1053D02*
X864Y1053D01*
X1023Y1053D02*
X1030Y1053D01*
X0Y1052D02*
X7Y1052D01*
X247Y1052D02*
X252Y1052D01*
X522Y1052D02*
X527Y1052D01*
X672Y1052D02*
X675Y1052D01*
X861Y1052D02*
X864Y1052D01*
X1023Y1052D02*
X1030Y1052D01*
X0Y1051D02*
X7Y1051D01*
X247Y1051D02*
X252Y1051D01*
X522Y1051D02*
X527Y1051D01*
X672Y1051D02*
X675Y1051D01*
X861Y1051D02*
X864Y1051D01*
X1023Y1051D02*
X1030Y1051D01*
X0Y1050D02*
X7Y1050D01*
X247Y1050D02*
X252Y1050D01*
X522Y1050D02*
X527Y1050D01*
X672Y1050D02*
X675Y1050D01*
X861Y1050D02*
X864Y1050D01*
X1023Y1050D02*
X1030Y1050D01*
X0Y1049D02*
X7Y1049D01*
X247Y1049D02*
X252Y1049D01*
X522Y1049D02*
X527Y1049D01*
X672Y1049D02*
X675Y1049D01*
X861Y1049D02*
X864Y1049D01*
X1023Y1049D02*
X1030Y1049D01*
X0Y1048D02*
X7Y1048D01*
X247Y1048D02*
X252Y1048D01*
X522Y1048D02*
X527Y1048D01*
X672Y1048D02*
X675Y1048D01*
X861Y1048D02*
X864Y1048D01*
X1023Y1048D02*
X1030Y1048D01*
X0Y1047D02*
X7Y1047D01*
X247Y1047D02*
X252Y1047D01*
X522Y1047D02*
X527Y1047D01*
X672Y1047D02*
X675Y1047D01*
X861Y1047D02*
X864Y1047D01*
X1023Y1047D02*
X1030Y1047D01*
X0Y1046D02*
X7Y1046D01*
X247Y1046D02*
X252Y1046D01*
X522Y1046D02*
X527Y1046D01*
X672Y1046D02*
X675Y1046D01*
X861Y1046D02*
X864Y1046D01*
X1023Y1046D02*
X1030Y1046D01*
X0Y1045D02*
X7Y1045D01*
X249Y1045D02*
X252Y1045D01*
X522Y1045D02*
X525Y1045D01*
X672Y1045D02*
X675Y1045D01*
X861Y1045D02*
X864Y1045D01*
X1023Y1045D02*
X1030Y1045D01*
X0Y1044D02*
X7Y1044D01*
X249Y1044D02*
X252Y1044D01*
X522Y1044D02*
X525Y1044D01*
X672Y1044D02*
X675Y1044D01*
X861Y1044D02*
X864Y1044D01*
X1023Y1044D02*
X1030Y1044D01*
X0Y1043D02*
X7Y1043D01*
X249Y1043D02*
X252Y1043D01*
X522Y1043D02*
X525Y1043D01*
X672Y1043D02*
X675Y1043D01*
X861Y1043D02*
X864Y1043D01*
X1023Y1043D02*
X1030Y1043D01*
X0Y1042D02*
X7Y1042D01*
X249Y1042D02*
X252Y1042D01*
X522Y1042D02*
X525Y1042D01*
X672Y1042D02*
X675Y1042D01*
X861Y1042D02*
X864Y1042D01*
X1023Y1042D02*
X1030Y1042D01*
X0Y1041D02*
X7Y1041D01*
X249Y1041D02*
X252Y1041D01*
X522Y1041D02*
X525Y1041D01*
X672Y1041D02*
X675Y1041D01*
X861Y1041D02*
X864Y1041D01*
X1023Y1041D02*
X1030Y1041D01*
X0Y1040D02*
X7Y1040D01*
X249Y1040D02*
X252Y1040D01*
X522Y1040D02*
X525Y1040D01*
X672Y1040D02*
X675Y1040D01*
X861Y1040D02*
X864Y1040D01*
X1023Y1040D02*
X1030Y1040D01*
X0Y1039D02*
X7Y1039D01*
X249Y1039D02*
X252Y1039D01*
X522Y1039D02*
X525Y1039D01*
X672Y1039D02*
X675Y1039D01*
X861Y1039D02*
X864Y1039D01*
X1023Y1039D02*
X1030Y1039D01*
X0Y1038D02*
X7Y1038D01*
X249Y1038D02*
X252Y1038D01*
X522Y1038D02*
X525Y1038D01*
X672Y1038D02*
X675Y1038D01*
X861Y1038D02*
X864Y1038D01*
X1023Y1038D02*
X1030Y1038D01*
X0Y1037D02*
X7Y1037D01*
X249Y1037D02*
X252Y1037D01*
X522Y1037D02*
X525Y1037D01*
X672Y1037D02*
X675Y1037D01*
X861Y1037D02*
X864Y1037D01*
X1023Y1037D02*
X1030Y1037D01*
X0Y1036D02*
X7Y1036D01*
X249Y1036D02*
X252Y1036D01*
X522Y1036D02*
X525Y1036D01*
X672Y1036D02*
X675Y1036D01*
X861Y1036D02*
X864Y1036D01*
X1023Y1036D02*
X1030Y1036D01*
X0Y1035D02*
X7Y1035D01*
X249Y1035D02*
X252Y1035D01*
X522Y1035D02*
X525Y1035D01*
X672Y1035D02*
X675Y1035D01*
X861Y1035D02*
X864Y1035D01*
X1023Y1035D02*
X1030Y1035D01*
X0Y1034D02*
X7Y1034D01*
X249Y1034D02*
X252Y1034D01*
X522Y1034D02*
X525Y1034D01*
X672Y1034D02*
X675Y1034D01*
X861Y1034D02*
X864Y1034D01*
X1023Y1034D02*
X1030Y1034D01*
X0Y1033D02*
X7Y1033D01*
X249Y1033D02*
X252Y1033D01*
X522Y1033D02*
X525Y1033D01*
X672Y1033D02*
X675Y1033D01*
X861Y1033D02*
X864Y1033D01*
X1023Y1033D02*
X1030Y1033D01*
X0Y1032D02*
X7Y1032D01*
X249Y1032D02*
X252Y1032D01*
X522Y1032D02*
X525Y1032D01*
X672Y1032D02*
X675Y1032D01*
X861Y1032D02*
X864Y1032D01*
X1023Y1032D02*
X1030Y1032D01*
X0Y1031D02*
X7Y1031D01*
X249Y1031D02*
X252Y1031D01*
X522Y1031D02*
X525Y1031D01*
X672Y1031D02*
X675Y1031D01*
X861Y1031D02*
X864Y1031D01*
X1023Y1031D02*
X1030Y1031D01*
X0Y1030D02*
X7Y1030D01*
X249Y1030D02*
X252Y1030D01*
X522Y1030D02*
X525Y1030D01*
X672Y1030D02*
X675Y1030D01*
X861Y1030D02*
X864Y1030D01*
X1023Y1030D02*
X1030Y1030D01*
X0Y1029D02*
X7Y1029D01*
X249Y1029D02*
X252Y1029D01*
X522Y1029D02*
X525Y1029D01*
X672Y1029D02*
X675Y1029D01*
X861Y1029D02*
X864Y1029D01*
X1023Y1029D02*
X1030Y1029D01*
X0Y1028D02*
X7Y1028D01*
X249Y1028D02*
X252Y1028D01*
X522Y1028D02*
X525Y1028D01*
X672Y1028D02*
X675Y1028D01*
X861Y1028D02*
X864Y1028D01*
X1023Y1028D02*
X1030Y1028D01*
X0Y1027D02*
X7Y1027D01*
X249Y1027D02*
X252Y1027D01*
X522Y1027D02*
X525Y1027D01*
X672Y1027D02*
X675Y1027D01*
X861Y1027D02*
X864Y1027D01*
X1023Y1027D02*
X1030Y1027D01*
X0Y1026D02*
X7Y1026D01*
X249Y1026D02*
X252Y1026D01*
X522Y1026D02*
X525Y1026D01*
X672Y1026D02*
X675Y1026D01*
X861Y1026D02*
X864Y1026D01*
X1023Y1026D02*
X1030Y1026D01*
X0Y1025D02*
X7Y1025D01*
X249Y1025D02*
X252Y1025D01*
X522Y1025D02*
X525Y1025D01*
X672Y1025D02*
X675Y1025D01*
X861Y1025D02*
X864Y1025D01*
X1023Y1025D02*
X1030Y1025D01*
X0Y1024D02*
X7Y1024D01*
X249Y1024D02*
X252Y1024D01*
X522Y1024D02*
X525Y1024D01*
X672Y1024D02*
X675Y1024D01*
X861Y1024D02*
X864Y1024D01*
X1023Y1024D02*
X1030Y1024D01*
X0Y1023D02*
X7Y1023D01*
X249Y1023D02*
X252Y1023D01*
X522Y1023D02*
X525Y1023D01*
X672Y1023D02*
X675Y1023D01*
X861Y1023D02*
X864Y1023D01*
X1023Y1023D02*
X1030Y1023D01*
X0Y1022D02*
X7Y1022D01*
X249Y1022D02*
X252Y1022D01*
X522Y1022D02*
X525Y1022D01*
X672Y1022D02*
X675Y1022D01*
X861Y1022D02*
X864Y1022D01*
X1023Y1022D02*
X1030Y1022D01*
X0Y1021D02*
X7Y1021D01*
X249Y1021D02*
X252Y1021D01*
X522Y1021D02*
X525Y1021D01*
X672Y1021D02*
X675Y1021D01*
X861Y1021D02*
X864Y1021D01*
X1023Y1021D02*
X1030Y1021D01*
X0Y1020D02*
X7Y1020D01*
X249Y1020D02*
X252Y1020D01*
X522Y1020D02*
X525Y1020D01*
X672Y1020D02*
X675Y1020D01*
X861Y1020D02*
X864Y1020D01*
X1023Y1020D02*
X1030Y1020D01*
X0Y1019D02*
X7Y1019D01*
X249Y1019D02*
X252Y1019D01*
X522Y1019D02*
X525Y1019D01*
X672Y1019D02*
X675Y1019D01*
X861Y1019D02*
X864Y1019D01*
X1023Y1019D02*
X1030Y1019D01*
X0Y1018D02*
X7Y1018D01*
X249Y1018D02*
X252Y1018D01*
X522Y1018D02*
X525Y1018D01*
X672Y1018D02*
X675Y1018D01*
X861Y1018D02*
X864Y1018D01*
X1023Y1018D02*
X1030Y1018D01*
X0Y1017D02*
X7Y1017D01*
X249Y1017D02*
X252Y1017D01*
X522Y1017D02*
X525Y1017D01*
X672Y1017D02*
X675Y1017D01*
X861Y1017D02*
X864Y1017D01*
X1023Y1017D02*
X1030Y1017D01*
X0Y1016D02*
X7Y1016D01*
X249Y1016D02*
X252Y1016D01*
X522Y1016D02*
X525Y1016D01*
X672Y1016D02*
X675Y1016D01*
X861Y1016D02*
X864Y1016D01*
X1023Y1016D02*
X1030Y1016D01*
X0Y1015D02*
X7Y1015D01*
X249Y1015D02*
X252Y1015D01*
X522Y1015D02*
X525Y1015D01*
X672Y1015D02*
X675Y1015D01*
X861Y1015D02*
X864Y1015D01*
X1023Y1015D02*
X1030Y1015D01*
X0Y1014D02*
X7Y1014D01*
X248Y1014D02*
X252Y1014D01*
X522Y1014D02*
X526Y1014D01*
X672Y1014D02*
X675Y1014D01*
X861Y1014D02*
X864Y1014D01*
X1023Y1014D02*
X1030Y1014D01*
X0Y1013D02*
X7Y1013D01*
X249Y1013D02*
X252Y1013D01*
X522Y1013D02*
X525Y1013D01*
X672Y1013D02*
X675Y1013D01*
X861Y1013D02*
X864Y1013D01*
X1023Y1013D02*
X1030Y1013D01*
X0Y1012D02*
X7Y1012D01*
X249Y1012D02*
X252Y1012D01*
X522Y1012D02*
X525Y1012D01*
X672Y1012D02*
X675Y1012D01*
X861Y1012D02*
X864Y1012D01*
X1023Y1012D02*
X1030Y1012D01*
X0Y1011D02*
X7Y1011D01*
X249Y1011D02*
X252Y1011D01*
X522Y1011D02*
X525Y1011D01*
X672Y1011D02*
X675Y1011D01*
X861Y1011D02*
X864Y1011D01*
X1023Y1011D02*
X1030Y1011D01*
X0Y1010D02*
X7Y1010D01*
X249Y1010D02*
X252Y1010D01*
X522Y1010D02*
X525Y1010D01*
X672Y1010D02*
X675Y1010D01*
X861Y1010D02*
X864Y1010D01*
X1023Y1010D02*
X1030Y1010D01*
X0Y1009D02*
X7Y1009D01*
X249Y1009D02*
X252Y1009D01*
X522Y1009D02*
X525Y1009D01*
X672Y1009D02*
X675Y1009D01*
X861Y1009D02*
X864Y1009D01*
X1023Y1009D02*
X1030Y1009D01*
X0Y1008D02*
X7Y1008D01*
X249Y1008D02*
X252Y1008D01*
X522Y1008D02*
X525Y1008D01*
X672Y1008D02*
X675Y1008D01*
X861Y1008D02*
X864Y1008D01*
X1023Y1008D02*
X1030Y1008D01*
X0Y1007D02*
X7Y1007D01*
X249Y1007D02*
X252Y1007D01*
X522Y1007D02*
X525Y1007D01*
X672Y1007D02*
X675Y1007D01*
X861Y1007D02*
X864Y1007D01*
X1023Y1007D02*
X1030Y1007D01*
X0Y1006D02*
X7Y1006D01*
X249Y1006D02*
X252Y1006D01*
X522Y1006D02*
X525Y1006D01*
X672Y1006D02*
X675Y1006D01*
X861Y1006D02*
X864Y1006D01*
X1023Y1006D02*
X1030Y1006D01*
X0Y1005D02*
X7Y1005D01*
X249Y1005D02*
X252Y1005D01*
X522Y1005D02*
X525Y1005D01*
X672Y1005D02*
X675Y1005D01*
X861Y1005D02*
X864Y1005D01*
X1023Y1005D02*
X1030Y1005D01*
X0Y1004D02*
X7Y1004D01*
X249Y1004D02*
X252Y1004D01*
X522Y1004D02*
X525Y1004D01*
X672Y1004D02*
X675Y1004D01*
X861Y1004D02*
X864Y1004D01*
X1023Y1004D02*
X1030Y1004D01*
X0Y1003D02*
X7Y1003D01*
X249Y1003D02*
X252Y1003D01*
X522Y1003D02*
X525Y1003D01*
X672Y1003D02*
X675Y1003D01*
X861Y1003D02*
X864Y1003D01*
X1023Y1003D02*
X1030Y1003D01*
X0Y1002D02*
X7Y1002D01*
X249Y1002D02*
X252Y1002D01*
X522Y1002D02*
X525Y1002D01*
X672Y1002D02*
X675Y1002D01*
X861Y1002D02*
X864Y1002D01*
X1023Y1002D02*
X1030Y1002D01*
X0Y1001D02*
X7Y1001D01*
X249Y1001D02*
X252Y1001D01*
X522Y1001D02*
X525Y1001D01*
X672Y1001D02*
X675Y1001D01*
X861Y1001D02*
X864Y1001D01*
X1023Y1001D02*
X1030Y1001D01*
X0Y1000D02*
X7Y1000D01*
X249Y1000D02*
X252Y1000D01*
X522Y1000D02*
X525Y1000D01*
X672Y1000D02*
X675Y1000D01*
X861Y1000D02*
X864Y1000D01*
X1023Y1000D02*
X1030Y1000D01*
X0Y999D02*
X7Y999D01*
X249Y999D02*
X252Y999D01*
X522Y999D02*
X525Y999D01*
X672Y999D02*
X675Y999D01*
X861Y999D02*
X864Y999D01*
X1023Y999D02*
X1030Y999D01*
X0Y998D02*
X7Y998D01*
X249Y998D02*
X252Y998D01*
X522Y998D02*
X525Y998D01*
X672Y998D02*
X675Y998D01*
X861Y998D02*
X864Y998D01*
X1023Y998D02*
X1030Y998D01*
X0Y997D02*
X7Y997D01*
X249Y997D02*
X252Y997D01*
X522Y997D02*
X525Y997D01*
X672Y997D02*
X675Y997D01*
X861Y997D02*
X864Y997D01*
X1023Y997D02*
X1030Y997D01*
X0Y996D02*
X7Y996D01*
X249Y996D02*
X252Y996D01*
X522Y996D02*
X525Y996D01*
X672Y996D02*
X675Y996D01*
X861Y996D02*
X864Y996D01*
X1023Y996D02*
X1030Y996D01*
X0Y995D02*
X7Y995D01*
X249Y995D02*
X252Y995D01*
X522Y995D02*
X525Y995D01*
X672Y995D02*
X675Y995D01*
X861Y995D02*
X864Y995D01*
X1023Y995D02*
X1030Y995D01*
X0Y994D02*
X7Y994D01*
X249Y994D02*
X252Y994D01*
X522Y994D02*
X525Y994D01*
X672Y994D02*
X675Y994D01*
X861Y994D02*
X864Y994D01*
X1023Y994D02*
X1030Y994D01*
X0Y993D02*
X7Y993D01*
X249Y993D02*
X252Y993D01*
X522Y993D02*
X525Y993D01*
X672Y993D02*
X675Y993D01*
X861Y993D02*
X864Y993D01*
X1023Y993D02*
X1030Y993D01*
X0Y992D02*
X7Y992D01*
X249Y992D02*
X252Y992D01*
X522Y992D02*
X525Y992D01*
X672Y992D02*
X675Y992D01*
X861Y992D02*
X864Y992D01*
X1023Y992D02*
X1030Y992D01*
X0Y991D02*
X7Y991D01*
X249Y991D02*
X252Y991D01*
X522Y991D02*
X525Y991D01*
X672Y991D02*
X675Y991D01*
X861Y991D02*
X864Y991D01*
X1023Y991D02*
X1030Y991D01*
X0Y990D02*
X7Y990D01*
X249Y990D02*
X252Y990D01*
X522Y990D02*
X525Y990D01*
X672Y990D02*
X675Y990D01*
X861Y990D02*
X864Y990D01*
X1023Y990D02*
X1030Y990D01*
X0Y989D02*
X7Y989D01*
X249Y989D02*
X252Y989D01*
X522Y989D02*
X525Y989D01*
X672Y989D02*
X675Y989D01*
X861Y989D02*
X864Y989D01*
X1023Y989D02*
X1030Y989D01*
X0Y988D02*
X7Y988D01*
X249Y988D02*
X252Y988D01*
X522Y988D02*
X525Y988D01*
X672Y988D02*
X675Y988D01*
X861Y988D02*
X864Y988D01*
X1023Y988D02*
X1030Y988D01*
X0Y987D02*
X7Y987D01*
X249Y987D02*
X252Y987D01*
X522Y987D02*
X525Y987D01*
X672Y987D02*
X675Y987D01*
X861Y987D02*
X864Y987D01*
X1023Y987D02*
X1030Y987D01*
X0Y986D02*
X7Y986D01*
X249Y986D02*
X252Y986D01*
X522Y986D02*
X525Y986D01*
X672Y986D02*
X675Y986D01*
X861Y986D02*
X864Y986D01*
X1023Y986D02*
X1030Y986D01*
X0Y985D02*
X7Y985D01*
X249Y985D02*
X252Y985D01*
X522Y985D02*
X525Y985D01*
X672Y985D02*
X675Y985D01*
X861Y985D02*
X864Y985D01*
X1023Y985D02*
X1030Y985D01*
X0Y984D02*
X7Y984D01*
X249Y984D02*
X252Y984D01*
X522Y984D02*
X525Y984D01*
X672Y984D02*
X675Y984D01*
X861Y984D02*
X864Y984D01*
X1023Y984D02*
X1030Y984D01*
X0Y983D02*
X7Y983D01*
X249Y983D02*
X252Y983D01*
X522Y983D02*
X525Y983D01*
X672Y983D02*
X675Y983D01*
X861Y983D02*
X864Y983D01*
X1023Y983D02*
X1030Y983D01*
X0Y982D02*
X7Y982D01*
X249Y982D02*
X252Y982D01*
X522Y982D02*
X525Y982D01*
X672Y982D02*
X675Y982D01*
X861Y982D02*
X864Y982D01*
X1023Y982D02*
X1030Y982D01*
X0Y981D02*
X7Y981D01*
X249Y981D02*
X252Y981D01*
X522Y981D02*
X525Y981D01*
X672Y981D02*
X675Y981D01*
X861Y981D02*
X864Y981D01*
X1023Y981D02*
X1030Y981D01*
X0Y980D02*
X7Y980D01*
X249Y980D02*
X252Y980D01*
X522Y980D02*
X525Y980D01*
X672Y980D02*
X675Y980D01*
X861Y980D02*
X864Y980D01*
X1023Y980D02*
X1030Y980D01*
X0Y979D02*
X7Y979D01*
X249Y979D02*
X252Y979D01*
X522Y979D02*
X525Y979D01*
X672Y979D02*
X675Y979D01*
X861Y979D02*
X864Y979D01*
X1023Y979D02*
X1030Y979D01*
X0Y978D02*
X7Y978D01*
X249Y978D02*
X252Y978D01*
X522Y978D02*
X525Y978D01*
X672Y978D02*
X675Y978D01*
X861Y978D02*
X864Y978D01*
X1023Y978D02*
X1030Y978D01*
X0Y977D02*
X7Y977D01*
X249Y977D02*
X252Y977D01*
X522Y977D02*
X525Y977D01*
X672Y977D02*
X675Y977D01*
X861Y977D02*
X864Y977D01*
X1023Y977D02*
X1030Y977D01*
X0Y976D02*
X7Y976D01*
X249Y976D02*
X252Y976D01*
X522Y976D02*
X525Y976D01*
X672Y976D02*
X675Y976D01*
X861Y976D02*
X864Y976D01*
X1023Y976D02*
X1030Y976D01*
X0Y975D02*
X7Y975D01*
X249Y975D02*
X252Y975D01*
X522Y975D02*
X525Y975D01*
X672Y975D02*
X675Y975D01*
X861Y975D02*
X864Y975D01*
X1023Y975D02*
X1030Y975D01*
X0Y974D02*
X7Y974D01*
X249Y974D02*
X252Y974D01*
X522Y974D02*
X525Y974D01*
X672Y974D02*
X675Y974D01*
X861Y974D02*
X864Y974D01*
X1023Y974D02*
X1030Y974D01*
X0Y973D02*
X7Y973D01*
X249Y973D02*
X252Y973D01*
X522Y973D02*
X525Y973D01*
X672Y973D02*
X675Y973D01*
X861Y973D02*
X864Y973D01*
X1023Y973D02*
X1030Y973D01*
X0Y972D02*
X7Y972D01*
X249Y972D02*
X252Y972D01*
X522Y972D02*
X525Y972D01*
X672Y972D02*
X675Y972D01*
X861Y972D02*
X864Y972D01*
X1023Y972D02*
X1030Y972D01*
X0Y971D02*
X7Y971D01*
X249Y971D02*
X252Y971D01*
X522Y971D02*
X525Y971D01*
X672Y971D02*
X675Y971D01*
X861Y971D02*
X864Y971D01*
X1023Y971D02*
X1030Y971D01*
X0Y970D02*
X7Y970D01*
X249Y970D02*
X252Y970D01*
X522Y970D02*
X525Y970D01*
X672Y970D02*
X675Y970D01*
X861Y970D02*
X864Y970D01*
X1023Y970D02*
X1030Y970D01*
X0Y969D02*
X7Y969D01*
X249Y969D02*
X252Y969D01*
X522Y969D02*
X525Y969D01*
X672Y969D02*
X675Y969D01*
X861Y969D02*
X864Y969D01*
X1023Y969D02*
X1030Y969D01*
X0Y968D02*
X7Y968D01*
X249Y968D02*
X252Y968D01*
X522Y968D02*
X525Y968D01*
X672Y968D02*
X675Y968D01*
X861Y968D02*
X864Y968D01*
X1023Y968D02*
X1030Y968D01*
X0Y967D02*
X7Y967D01*
X249Y967D02*
X252Y967D01*
X522Y967D02*
X525Y967D01*
X672Y967D02*
X675Y967D01*
X861Y967D02*
X864Y967D01*
X1023Y967D02*
X1030Y967D01*
X0Y966D02*
X7Y966D01*
X249Y966D02*
X252Y966D01*
X522Y966D02*
X525Y966D01*
X672Y966D02*
X675Y966D01*
X861Y966D02*
X864Y966D01*
X1023Y966D02*
X1030Y966D01*
X0Y965D02*
X7Y965D01*
X249Y965D02*
X252Y965D01*
X522Y965D02*
X525Y965D01*
X672Y965D02*
X675Y965D01*
X861Y965D02*
X864Y965D01*
X1023Y965D02*
X1030Y965D01*
X0Y964D02*
X7Y964D01*
X249Y964D02*
X252Y964D01*
X522Y964D02*
X525Y964D01*
X672Y964D02*
X675Y964D01*
X861Y964D02*
X864Y964D01*
X1023Y964D02*
X1030Y964D01*
X0Y963D02*
X7Y963D01*
X249Y963D02*
X252Y963D01*
X522Y963D02*
X525Y963D01*
X672Y963D02*
X675Y963D01*
X861Y963D02*
X864Y963D01*
X1023Y963D02*
X1030Y963D01*
X0Y962D02*
X7Y962D01*
X249Y962D02*
X252Y962D01*
X522Y962D02*
X525Y962D01*
X672Y962D02*
X675Y962D01*
X861Y962D02*
X864Y962D01*
X1023Y962D02*
X1030Y962D01*
X0Y961D02*
X7Y961D01*
X249Y961D02*
X252Y961D01*
X522Y961D02*
X525Y961D01*
X672Y961D02*
X675Y961D01*
X861Y961D02*
X864Y961D01*
X1023Y961D02*
X1030Y961D01*
X0Y960D02*
X7Y960D01*
X249Y960D02*
X252Y960D01*
X522Y960D02*
X525Y960D01*
X672Y960D02*
X675Y960D01*
X861Y960D02*
X864Y960D01*
X1023Y960D02*
X1030Y960D01*
X0Y959D02*
X7Y959D01*
X249Y959D02*
X252Y959D01*
X522Y959D02*
X525Y959D01*
X672Y959D02*
X675Y959D01*
X861Y959D02*
X864Y959D01*
X1023Y959D02*
X1030Y959D01*
X0Y958D02*
X7Y958D01*
X249Y958D02*
X252Y958D01*
X522Y958D02*
X525Y958D01*
X672Y958D02*
X675Y958D01*
X861Y958D02*
X864Y958D01*
X1023Y958D02*
X1030Y958D01*
X0Y957D02*
X7Y957D01*
X249Y957D02*
X252Y957D01*
X522Y957D02*
X525Y957D01*
X672Y957D02*
X675Y957D01*
X861Y957D02*
X864Y957D01*
X1023Y957D02*
X1030Y957D01*
X0Y956D02*
X7Y956D01*
X249Y956D02*
X252Y956D01*
X522Y956D02*
X525Y956D01*
X672Y956D02*
X675Y956D01*
X861Y956D02*
X864Y956D01*
X1023Y956D02*
X1030Y956D01*
X0Y955D02*
X7Y955D01*
X249Y955D02*
X252Y955D01*
X522Y955D02*
X525Y955D01*
X672Y955D02*
X675Y955D01*
X861Y955D02*
X864Y955D01*
X1023Y955D02*
X1030Y955D01*
X0Y954D02*
X7Y954D01*
X249Y954D02*
X252Y954D01*
X522Y954D02*
X525Y954D01*
X672Y954D02*
X675Y954D01*
X861Y954D02*
X864Y954D01*
X1023Y954D02*
X1030Y954D01*
X0Y953D02*
X7Y953D01*
X249Y953D02*
X252Y953D01*
X522Y953D02*
X525Y953D01*
X672Y953D02*
X675Y953D01*
X861Y953D02*
X864Y953D01*
X1023Y953D02*
X1030Y953D01*
X0Y952D02*
X7Y952D01*
X249Y952D02*
X252Y952D01*
X522Y952D02*
X525Y952D01*
X672Y952D02*
X675Y952D01*
X861Y952D02*
X864Y952D01*
X1023Y952D02*
X1030Y952D01*
X0Y951D02*
X7Y951D01*
X248Y951D02*
X252Y951D01*
X522Y951D02*
X526Y951D01*
X672Y951D02*
X675Y951D01*
X861Y951D02*
X864Y951D01*
X1023Y951D02*
X1030Y951D01*
X0Y950D02*
X7Y950D01*
X249Y950D02*
X252Y950D01*
X522Y950D02*
X525Y950D01*
X672Y950D02*
X675Y950D01*
X861Y950D02*
X864Y950D01*
X1023Y950D02*
X1030Y950D01*
X0Y949D02*
X7Y949D01*
X249Y949D02*
X252Y949D01*
X522Y949D02*
X525Y949D01*
X672Y949D02*
X675Y949D01*
X861Y949D02*
X864Y949D01*
X1023Y949D02*
X1030Y949D01*
X0Y948D02*
X7Y948D01*
X249Y948D02*
X252Y948D01*
X522Y948D02*
X525Y948D01*
X672Y948D02*
X675Y948D01*
X861Y948D02*
X864Y948D01*
X1023Y948D02*
X1030Y948D01*
X0Y947D02*
X7Y947D01*
X249Y947D02*
X252Y947D01*
X522Y947D02*
X525Y947D01*
X672Y947D02*
X675Y947D01*
X861Y947D02*
X864Y947D01*
X1023Y947D02*
X1030Y947D01*
X0Y946D02*
X7Y946D01*
X249Y946D02*
X252Y946D01*
X522Y946D02*
X525Y946D01*
X672Y946D02*
X675Y946D01*
X861Y946D02*
X864Y946D01*
X1023Y946D02*
X1030Y946D01*
X0Y945D02*
X7Y945D01*
X249Y945D02*
X252Y945D01*
X522Y945D02*
X525Y945D01*
X672Y945D02*
X675Y945D01*
X861Y945D02*
X864Y945D01*
X1023Y945D02*
X1030Y945D01*
X0Y944D02*
X7Y944D01*
X249Y944D02*
X252Y944D01*
X522Y944D02*
X525Y944D01*
X672Y944D02*
X675Y944D01*
X861Y944D02*
X864Y944D01*
X1023Y944D02*
X1030Y944D01*
X0Y943D02*
X7Y943D01*
X249Y943D02*
X252Y943D01*
X522Y943D02*
X525Y943D01*
X672Y943D02*
X675Y943D01*
X861Y943D02*
X864Y943D01*
X1023Y943D02*
X1030Y943D01*
X0Y942D02*
X7Y942D01*
X249Y942D02*
X252Y942D01*
X522Y942D02*
X525Y942D01*
X672Y942D02*
X675Y942D01*
X861Y942D02*
X864Y942D01*
X1023Y942D02*
X1030Y942D01*
X0Y941D02*
X7Y941D01*
X249Y941D02*
X252Y941D01*
X522Y941D02*
X525Y941D01*
X672Y941D02*
X675Y941D01*
X861Y941D02*
X864Y941D01*
X1023Y941D02*
X1030Y941D01*
X0Y940D02*
X7Y940D01*
X249Y940D02*
X252Y940D01*
X522Y940D02*
X525Y940D01*
X672Y940D02*
X675Y940D01*
X861Y940D02*
X864Y940D01*
X1023Y940D02*
X1030Y940D01*
X0Y939D02*
X7Y939D01*
X249Y939D02*
X252Y939D01*
X522Y939D02*
X525Y939D01*
X672Y939D02*
X675Y939D01*
X861Y939D02*
X864Y939D01*
X1023Y939D02*
X1030Y939D01*
X0Y938D02*
X7Y938D01*
X249Y938D02*
X252Y938D01*
X522Y938D02*
X525Y938D01*
X672Y938D02*
X675Y938D01*
X861Y938D02*
X864Y938D01*
X1023Y938D02*
X1030Y938D01*
X0Y937D02*
X7Y937D01*
X249Y937D02*
X252Y937D01*
X522Y937D02*
X525Y937D01*
X672Y937D02*
X675Y937D01*
X861Y937D02*
X864Y937D01*
X1023Y937D02*
X1030Y937D01*
X0Y936D02*
X7Y936D01*
X249Y936D02*
X252Y936D01*
X522Y936D02*
X525Y936D01*
X672Y936D02*
X675Y936D01*
X861Y936D02*
X864Y936D01*
X1023Y936D02*
X1030Y936D01*
X0Y935D02*
X7Y935D01*
X70Y935D02*
X143Y935D01*
X249Y935D02*
X252Y935D01*
X522Y935D02*
X525Y935D01*
X672Y935D02*
X675Y935D01*
X861Y935D02*
X864Y935D01*
X1023Y935D02*
X1030Y935D01*
X0Y934D02*
X7Y934D01*
X70Y934D02*
X144Y934D01*
X249Y934D02*
X252Y934D01*
X522Y934D02*
X525Y934D01*
X672Y934D02*
X675Y934D01*
X861Y934D02*
X864Y934D01*
X1023Y934D02*
X1030Y934D01*
X0Y933D02*
X7Y933D01*
X70Y933D02*
X144Y933D01*
X249Y933D02*
X252Y933D01*
X522Y933D02*
X525Y933D01*
X672Y933D02*
X675Y933D01*
X861Y933D02*
X864Y933D01*
X1023Y933D02*
X1030Y933D01*
X0Y932D02*
X7Y932D01*
X70Y932D02*
X72Y932D01*
X141Y932D02*
X144Y932D01*
X249Y932D02*
X252Y932D01*
X522Y932D02*
X525Y932D01*
X672Y932D02*
X675Y932D01*
X861Y932D02*
X864Y932D01*
X1023Y932D02*
X1030Y932D01*
X0Y931D02*
X7Y931D01*
X70Y931D02*
X72Y931D01*
X142Y931D02*
X144Y931D01*
X249Y931D02*
X252Y931D01*
X522Y931D02*
X525Y931D01*
X672Y931D02*
X675Y931D01*
X861Y931D02*
X864Y931D01*
X1023Y931D02*
X1030Y931D01*
X0Y930D02*
X7Y930D01*
X70Y930D02*
X72Y930D01*
X142Y930D02*
X144Y930D01*
X249Y930D02*
X252Y930D01*
X522Y930D02*
X525Y930D01*
X672Y930D02*
X675Y930D01*
X861Y930D02*
X864Y930D01*
X1023Y930D02*
X1030Y930D01*
X0Y929D02*
X7Y929D01*
X70Y929D02*
X72Y929D01*
X142Y929D02*
X144Y929D01*
X249Y929D02*
X252Y929D01*
X522Y929D02*
X525Y929D01*
X672Y929D02*
X675Y929D01*
X861Y929D02*
X864Y929D01*
X1023Y929D02*
X1030Y929D01*
X0Y928D02*
X7Y928D01*
X70Y928D02*
X72Y928D01*
X142Y928D02*
X144Y928D01*
X249Y928D02*
X252Y928D01*
X522Y928D02*
X525Y928D01*
X672Y928D02*
X675Y928D01*
X861Y928D02*
X864Y928D01*
X1023Y928D02*
X1030Y928D01*
X0Y927D02*
X7Y927D01*
X70Y927D02*
X72Y927D01*
X142Y927D02*
X144Y927D01*
X249Y927D02*
X252Y927D01*
X522Y927D02*
X525Y927D01*
X672Y927D02*
X675Y927D01*
X861Y927D02*
X864Y927D01*
X1023Y927D02*
X1030Y927D01*
X0Y926D02*
X7Y926D01*
X70Y926D02*
X72Y926D01*
X142Y926D02*
X144Y926D01*
X249Y926D02*
X252Y926D01*
X522Y926D02*
X525Y926D01*
X672Y926D02*
X675Y926D01*
X861Y926D02*
X864Y926D01*
X1023Y926D02*
X1030Y926D01*
X0Y925D02*
X7Y925D01*
X70Y925D02*
X72Y925D01*
X142Y925D02*
X144Y925D01*
X249Y925D02*
X252Y925D01*
X522Y925D02*
X525Y925D01*
X672Y925D02*
X675Y925D01*
X861Y925D02*
X864Y925D01*
X1023Y925D02*
X1030Y925D01*
X0Y924D02*
X7Y924D01*
X70Y924D02*
X72Y924D01*
X142Y924D02*
X144Y924D01*
X249Y924D02*
X252Y924D01*
X522Y924D02*
X525Y924D01*
X672Y924D02*
X675Y924D01*
X861Y924D02*
X864Y924D01*
X1023Y924D02*
X1030Y924D01*
X0Y923D02*
X7Y923D01*
X70Y923D02*
X72Y923D01*
X142Y923D02*
X144Y923D01*
X249Y923D02*
X252Y923D01*
X522Y923D02*
X525Y923D01*
X672Y923D02*
X675Y923D01*
X861Y923D02*
X864Y923D01*
X1023Y923D02*
X1030Y923D01*
X0Y922D02*
X7Y922D01*
X70Y922D02*
X72Y922D01*
X142Y922D02*
X144Y922D01*
X249Y922D02*
X252Y922D01*
X522Y922D02*
X525Y922D01*
X672Y922D02*
X675Y922D01*
X861Y922D02*
X864Y922D01*
X1023Y922D02*
X1030Y922D01*
X0Y921D02*
X7Y921D01*
X70Y921D02*
X72Y921D01*
X142Y921D02*
X144Y921D01*
X249Y921D02*
X252Y921D01*
X522Y921D02*
X525Y921D01*
X672Y921D02*
X675Y921D01*
X861Y921D02*
X864Y921D01*
X1023Y921D02*
X1030Y921D01*
X0Y920D02*
X7Y920D01*
X70Y920D02*
X72Y920D01*
X142Y920D02*
X144Y920D01*
X249Y920D02*
X252Y920D01*
X522Y920D02*
X525Y920D01*
X672Y920D02*
X675Y920D01*
X861Y920D02*
X864Y920D01*
X1023Y920D02*
X1030Y920D01*
X0Y919D02*
X7Y919D01*
X70Y919D02*
X72Y919D01*
X142Y919D02*
X144Y919D01*
X249Y919D02*
X252Y919D01*
X522Y919D02*
X525Y919D01*
X672Y919D02*
X675Y919D01*
X861Y919D02*
X864Y919D01*
X1023Y919D02*
X1030Y919D01*
X0Y918D02*
X7Y918D01*
X70Y918D02*
X72Y918D01*
X142Y918D02*
X144Y918D01*
X249Y918D02*
X252Y918D01*
X522Y918D02*
X525Y918D01*
X672Y918D02*
X675Y918D01*
X861Y918D02*
X864Y918D01*
X1023Y918D02*
X1030Y918D01*
X0Y917D02*
X7Y917D01*
X70Y917D02*
X72Y917D01*
X142Y917D02*
X144Y917D01*
X249Y917D02*
X252Y917D01*
X522Y917D02*
X525Y917D01*
X672Y917D02*
X675Y917D01*
X861Y917D02*
X864Y917D01*
X1023Y917D02*
X1030Y917D01*
X0Y916D02*
X7Y916D01*
X70Y916D02*
X72Y916D01*
X142Y916D02*
X144Y916D01*
X249Y916D02*
X252Y916D01*
X522Y916D02*
X525Y916D01*
X672Y916D02*
X675Y916D01*
X861Y916D02*
X864Y916D01*
X1023Y916D02*
X1030Y916D01*
X0Y915D02*
X7Y915D01*
X70Y915D02*
X72Y915D01*
X142Y915D02*
X144Y915D01*
X249Y915D02*
X252Y915D01*
X522Y915D02*
X525Y915D01*
X672Y915D02*
X675Y915D01*
X861Y915D02*
X864Y915D01*
X1023Y915D02*
X1030Y915D01*
X0Y914D02*
X7Y914D01*
X70Y914D02*
X72Y914D01*
X142Y914D02*
X144Y914D01*
X249Y914D02*
X252Y914D01*
X522Y914D02*
X525Y914D01*
X672Y914D02*
X675Y914D01*
X861Y914D02*
X864Y914D01*
X1023Y914D02*
X1030Y914D01*
X0Y913D02*
X7Y913D01*
X70Y913D02*
X72Y913D01*
X142Y913D02*
X144Y913D01*
X249Y913D02*
X252Y913D01*
X522Y913D02*
X525Y913D01*
X672Y913D02*
X675Y913D01*
X861Y913D02*
X864Y913D01*
X1023Y913D02*
X1030Y913D01*
X0Y912D02*
X7Y912D01*
X70Y912D02*
X72Y912D01*
X142Y912D02*
X144Y912D01*
X249Y912D02*
X252Y912D01*
X522Y912D02*
X525Y912D01*
X672Y912D02*
X675Y912D01*
X861Y912D02*
X864Y912D01*
X1023Y912D02*
X1030Y912D01*
X0Y911D02*
X7Y911D01*
X70Y911D02*
X72Y911D01*
X142Y911D02*
X144Y911D01*
X249Y911D02*
X252Y911D01*
X522Y911D02*
X525Y911D01*
X672Y911D02*
X675Y911D01*
X861Y911D02*
X864Y911D01*
X1023Y911D02*
X1030Y911D01*
X0Y910D02*
X7Y910D01*
X70Y910D02*
X72Y910D01*
X142Y910D02*
X144Y910D01*
X249Y910D02*
X252Y910D01*
X522Y910D02*
X525Y910D01*
X672Y910D02*
X675Y910D01*
X861Y910D02*
X864Y910D01*
X1023Y910D02*
X1030Y910D01*
X0Y909D02*
X7Y909D01*
X70Y909D02*
X72Y909D01*
X142Y909D02*
X144Y909D01*
X249Y909D02*
X252Y909D01*
X522Y909D02*
X525Y909D01*
X672Y909D02*
X675Y909D01*
X861Y909D02*
X864Y909D01*
X1023Y909D02*
X1030Y909D01*
X0Y908D02*
X7Y908D01*
X70Y908D02*
X72Y908D01*
X142Y908D02*
X144Y908D01*
X249Y908D02*
X252Y908D01*
X522Y908D02*
X525Y908D01*
X672Y908D02*
X675Y908D01*
X861Y908D02*
X864Y908D01*
X1023Y908D02*
X1030Y908D01*
X0Y907D02*
X7Y907D01*
X70Y907D02*
X72Y907D01*
X142Y907D02*
X144Y907D01*
X249Y907D02*
X252Y907D01*
X522Y907D02*
X525Y907D01*
X672Y907D02*
X675Y907D01*
X861Y907D02*
X864Y907D01*
X1023Y907D02*
X1030Y907D01*
X0Y906D02*
X7Y906D01*
X70Y906D02*
X72Y906D01*
X142Y906D02*
X144Y906D01*
X249Y906D02*
X252Y906D01*
X522Y906D02*
X525Y906D01*
X672Y906D02*
X675Y906D01*
X861Y906D02*
X864Y906D01*
X1023Y906D02*
X1030Y906D01*
X0Y905D02*
X7Y905D01*
X70Y905D02*
X72Y905D01*
X142Y905D02*
X144Y905D01*
X249Y905D02*
X252Y905D01*
X522Y905D02*
X525Y905D01*
X672Y905D02*
X675Y905D01*
X861Y905D02*
X864Y905D01*
X1023Y905D02*
X1030Y905D01*
X0Y904D02*
X7Y904D01*
X70Y904D02*
X72Y904D01*
X142Y904D02*
X144Y904D01*
X249Y904D02*
X252Y904D01*
X522Y904D02*
X525Y904D01*
X672Y904D02*
X675Y904D01*
X861Y904D02*
X864Y904D01*
X1023Y904D02*
X1030Y904D01*
X0Y903D02*
X7Y903D01*
X70Y903D02*
X72Y903D01*
X142Y903D02*
X144Y903D01*
X249Y903D02*
X252Y903D01*
X522Y903D02*
X525Y903D01*
X672Y903D02*
X675Y903D01*
X861Y903D02*
X864Y903D01*
X1023Y903D02*
X1030Y903D01*
X0Y902D02*
X7Y902D01*
X70Y902D02*
X72Y902D01*
X142Y902D02*
X144Y902D01*
X249Y902D02*
X252Y902D01*
X522Y902D02*
X525Y902D01*
X672Y902D02*
X675Y902D01*
X861Y902D02*
X864Y902D01*
X1023Y902D02*
X1030Y902D01*
X0Y901D02*
X7Y901D01*
X70Y901D02*
X72Y901D01*
X142Y901D02*
X144Y901D01*
X249Y901D02*
X252Y901D01*
X522Y901D02*
X525Y901D01*
X672Y901D02*
X675Y901D01*
X861Y901D02*
X864Y901D01*
X1023Y901D02*
X1030Y901D01*
X0Y900D02*
X7Y900D01*
X70Y900D02*
X72Y900D01*
X142Y900D02*
X144Y900D01*
X249Y900D02*
X252Y900D01*
X522Y900D02*
X525Y900D01*
X672Y900D02*
X675Y900D01*
X861Y900D02*
X864Y900D01*
X1023Y900D02*
X1030Y900D01*
X0Y899D02*
X7Y899D01*
X70Y899D02*
X72Y899D01*
X142Y899D02*
X144Y899D01*
X249Y899D02*
X252Y899D01*
X522Y899D02*
X525Y899D01*
X672Y899D02*
X675Y899D01*
X861Y899D02*
X864Y899D01*
X1023Y899D02*
X1030Y899D01*
X0Y898D02*
X7Y898D01*
X70Y898D02*
X72Y898D01*
X142Y898D02*
X144Y898D01*
X249Y898D02*
X252Y898D01*
X522Y898D02*
X525Y898D01*
X672Y898D02*
X675Y898D01*
X861Y898D02*
X864Y898D01*
X1023Y898D02*
X1030Y898D01*
X0Y897D02*
X7Y897D01*
X70Y897D02*
X72Y897D01*
X142Y897D02*
X144Y897D01*
X249Y897D02*
X252Y897D01*
X522Y897D02*
X525Y897D01*
X672Y897D02*
X675Y897D01*
X861Y897D02*
X864Y897D01*
X1023Y897D02*
X1030Y897D01*
X0Y896D02*
X7Y896D01*
X70Y896D02*
X72Y896D01*
X142Y896D02*
X144Y896D01*
X249Y896D02*
X252Y896D01*
X522Y896D02*
X525Y896D01*
X672Y896D02*
X675Y896D01*
X861Y896D02*
X864Y896D01*
X1023Y896D02*
X1030Y896D01*
X0Y895D02*
X7Y895D01*
X70Y895D02*
X72Y895D01*
X142Y895D02*
X144Y895D01*
X249Y895D02*
X252Y895D01*
X522Y895D02*
X525Y895D01*
X672Y895D02*
X675Y895D01*
X861Y895D02*
X864Y895D01*
X1023Y895D02*
X1030Y895D01*
X0Y894D02*
X7Y894D01*
X70Y894D02*
X72Y894D01*
X142Y894D02*
X144Y894D01*
X249Y894D02*
X252Y894D01*
X522Y894D02*
X525Y894D01*
X672Y894D02*
X675Y894D01*
X861Y894D02*
X864Y894D01*
X1023Y894D02*
X1030Y894D01*
X0Y893D02*
X7Y893D01*
X70Y893D02*
X72Y893D01*
X142Y893D02*
X144Y893D01*
X249Y893D02*
X252Y893D01*
X522Y893D02*
X525Y893D01*
X672Y893D02*
X675Y893D01*
X861Y893D02*
X864Y893D01*
X1023Y893D02*
X1030Y893D01*
X0Y892D02*
X7Y892D01*
X70Y892D02*
X72Y892D01*
X142Y892D02*
X144Y892D01*
X249Y892D02*
X252Y892D01*
X522Y892D02*
X525Y892D01*
X672Y892D02*
X675Y892D01*
X861Y892D02*
X864Y892D01*
X1023Y892D02*
X1030Y892D01*
X0Y891D02*
X7Y891D01*
X70Y891D02*
X72Y891D01*
X142Y891D02*
X144Y891D01*
X249Y891D02*
X252Y891D01*
X522Y891D02*
X525Y891D01*
X672Y891D02*
X675Y891D01*
X861Y891D02*
X864Y891D01*
X1023Y891D02*
X1030Y891D01*
X0Y890D02*
X7Y890D01*
X70Y890D02*
X72Y890D01*
X142Y890D02*
X144Y890D01*
X249Y890D02*
X252Y890D01*
X522Y890D02*
X525Y890D01*
X672Y890D02*
X675Y890D01*
X861Y890D02*
X864Y890D01*
X1023Y890D02*
X1030Y890D01*
X0Y889D02*
X7Y889D01*
X70Y889D02*
X72Y889D01*
X142Y889D02*
X144Y889D01*
X249Y889D02*
X252Y889D01*
X522Y889D02*
X525Y889D01*
X672Y889D02*
X675Y889D01*
X861Y889D02*
X864Y889D01*
X1023Y889D02*
X1030Y889D01*
X0Y888D02*
X7Y888D01*
X70Y888D02*
X72Y888D01*
X142Y888D02*
X144Y888D01*
X248Y888D02*
X252Y888D01*
X522Y888D02*
X525Y888D01*
X672Y888D02*
X675Y888D01*
X861Y888D02*
X864Y888D01*
X1023Y888D02*
X1030Y888D01*
X0Y887D02*
X7Y887D01*
X70Y887D02*
X72Y887D01*
X142Y887D02*
X144Y887D01*
X249Y887D02*
X252Y887D01*
X522Y887D02*
X525Y887D01*
X672Y887D02*
X675Y887D01*
X861Y887D02*
X864Y887D01*
X1023Y887D02*
X1030Y887D01*
X0Y886D02*
X7Y886D01*
X70Y886D02*
X72Y886D01*
X142Y886D02*
X144Y886D01*
X249Y886D02*
X252Y886D01*
X522Y886D02*
X525Y886D01*
X672Y886D02*
X675Y886D01*
X861Y886D02*
X864Y886D01*
X1023Y886D02*
X1030Y886D01*
X0Y885D02*
X7Y885D01*
X70Y885D02*
X72Y885D01*
X142Y885D02*
X144Y885D01*
X249Y885D02*
X252Y885D01*
X522Y885D02*
X525Y885D01*
X672Y885D02*
X675Y885D01*
X861Y885D02*
X864Y885D01*
X1023Y885D02*
X1030Y885D01*
X0Y884D02*
X7Y884D01*
X70Y884D02*
X72Y884D01*
X142Y884D02*
X144Y884D01*
X249Y884D02*
X252Y884D01*
X522Y884D02*
X525Y884D01*
X672Y884D02*
X675Y884D01*
X861Y884D02*
X864Y884D01*
X1023Y884D02*
X1030Y884D01*
X0Y883D02*
X7Y883D01*
X70Y883D02*
X72Y883D01*
X142Y883D02*
X144Y883D01*
X249Y883D02*
X252Y883D01*
X522Y883D02*
X525Y883D01*
X672Y883D02*
X675Y883D01*
X861Y883D02*
X864Y883D01*
X1023Y883D02*
X1030Y883D01*
X0Y882D02*
X7Y882D01*
X70Y882D02*
X72Y882D01*
X142Y882D02*
X144Y882D01*
X249Y882D02*
X252Y882D01*
X522Y882D02*
X525Y882D01*
X672Y882D02*
X675Y882D01*
X861Y882D02*
X864Y882D01*
X1023Y882D02*
X1030Y882D01*
X0Y881D02*
X7Y881D01*
X70Y881D02*
X72Y881D01*
X142Y881D02*
X144Y881D01*
X249Y881D02*
X252Y881D01*
X522Y881D02*
X525Y881D01*
X672Y881D02*
X675Y881D01*
X861Y881D02*
X864Y881D01*
X1023Y881D02*
X1030Y881D01*
X0Y880D02*
X7Y880D01*
X70Y880D02*
X72Y880D01*
X142Y880D02*
X144Y880D01*
X249Y880D02*
X252Y880D01*
X522Y880D02*
X525Y880D01*
X672Y880D02*
X675Y880D01*
X861Y880D02*
X864Y880D01*
X1023Y880D02*
X1030Y880D01*
X0Y879D02*
X7Y879D01*
X70Y879D02*
X72Y879D01*
X142Y879D02*
X144Y879D01*
X249Y879D02*
X252Y879D01*
X522Y879D02*
X525Y879D01*
X672Y879D02*
X675Y879D01*
X861Y879D02*
X864Y879D01*
X1023Y879D02*
X1030Y879D01*
X0Y878D02*
X7Y878D01*
X70Y878D02*
X72Y878D01*
X142Y878D02*
X144Y878D01*
X249Y878D02*
X252Y878D01*
X522Y878D02*
X525Y878D01*
X672Y878D02*
X675Y878D01*
X861Y878D02*
X864Y878D01*
X1023Y878D02*
X1030Y878D01*
X0Y877D02*
X7Y877D01*
X70Y877D02*
X72Y877D01*
X142Y877D02*
X144Y877D01*
X249Y877D02*
X252Y877D01*
X522Y877D02*
X525Y877D01*
X672Y877D02*
X675Y877D01*
X861Y877D02*
X864Y877D01*
X1023Y877D02*
X1030Y877D01*
X0Y876D02*
X7Y876D01*
X70Y876D02*
X72Y876D01*
X142Y876D02*
X144Y876D01*
X249Y876D02*
X252Y876D01*
X522Y876D02*
X525Y876D01*
X672Y876D02*
X675Y876D01*
X861Y876D02*
X864Y876D01*
X1023Y876D02*
X1030Y876D01*
X0Y875D02*
X7Y875D01*
X70Y875D02*
X72Y875D01*
X142Y875D02*
X144Y875D01*
X249Y875D02*
X252Y875D01*
X522Y875D02*
X525Y875D01*
X672Y875D02*
X675Y875D01*
X861Y875D02*
X864Y875D01*
X1023Y875D02*
X1030Y875D01*
X0Y874D02*
X7Y874D01*
X70Y874D02*
X72Y874D01*
X142Y874D02*
X144Y874D01*
X249Y874D02*
X252Y874D01*
X522Y874D02*
X525Y874D01*
X672Y874D02*
X675Y874D01*
X861Y874D02*
X864Y874D01*
X1023Y874D02*
X1030Y874D01*
X0Y873D02*
X7Y873D01*
X70Y873D02*
X72Y873D01*
X142Y873D02*
X144Y873D01*
X249Y873D02*
X252Y873D01*
X522Y873D02*
X525Y873D01*
X672Y873D02*
X675Y873D01*
X861Y873D02*
X864Y873D01*
X1023Y873D02*
X1030Y873D01*
X0Y872D02*
X7Y872D01*
X70Y872D02*
X72Y872D01*
X142Y872D02*
X144Y872D01*
X249Y872D02*
X252Y872D01*
X522Y872D02*
X525Y872D01*
X672Y872D02*
X675Y872D01*
X861Y872D02*
X864Y872D01*
X1023Y872D02*
X1030Y872D01*
X0Y871D02*
X7Y871D01*
X70Y871D02*
X72Y871D01*
X142Y871D02*
X144Y871D01*
X249Y871D02*
X252Y871D01*
X522Y871D02*
X525Y871D01*
X672Y871D02*
X675Y871D01*
X861Y871D02*
X864Y871D01*
X1023Y871D02*
X1030Y871D01*
X0Y870D02*
X7Y870D01*
X70Y870D02*
X72Y870D01*
X142Y870D02*
X144Y870D01*
X249Y870D02*
X252Y870D01*
X522Y870D02*
X525Y870D01*
X672Y870D02*
X675Y870D01*
X861Y870D02*
X864Y870D01*
X1023Y870D02*
X1030Y870D01*
X0Y869D02*
X7Y869D01*
X70Y869D02*
X72Y869D01*
X142Y869D02*
X144Y869D01*
X249Y869D02*
X252Y869D01*
X522Y869D02*
X525Y869D01*
X672Y869D02*
X675Y869D01*
X861Y869D02*
X864Y869D01*
X1023Y869D02*
X1030Y869D01*
X0Y868D02*
X7Y868D01*
X70Y868D02*
X72Y868D01*
X142Y868D02*
X144Y868D01*
X249Y868D02*
X252Y868D01*
X522Y868D02*
X525Y868D01*
X672Y868D02*
X675Y868D01*
X861Y868D02*
X864Y868D01*
X1023Y868D02*
X1030Y868D01*
X0Y867D02*
X7Y867D01*
X70Y867D02*
X73Y867D01*
X141Y867D02*
X144Y867D01*
X249Y867D02*
X252Y867D01*
X522Y867D02*
X525Y867D01*
X672Y867D02*
X675Y867D01*
X861Y867D02*
X864Y867D01*
X1023Y867D02*
X1030Y867D01*
X0Y866D02*
X7Y866D01*
X70Y866D02*
X73Y866D01*
X141Y866D02*
X144Y866D01*
X249Y866D02*
X252Y866D01*
X522Y866D02*
X525Y866D01*
X672Y866D02*
X675Y866D01*
X861Y866D02*
X864Y866D01*
X1023Y866D02*
X1030Y866D01*
X0Y865D02*
X7Y865D01*
X70Y865D02*
X73Y865D01*
X141Y865D02*
X144Y865D01*
X249Y865D02*
X252Y865D01*
X522Y865D02*
X525Y865D01*
X672Y865D02*
X675Y865D01*
X861Y865D02*
X864Y865D01*
X1023Y865D02*
X1030Y865D01*
X0Y864D02*
X7Y864D01*
X70Y864D02*
X73Y864D01*
X141Y864D02*
X144Y864D01*
X249Y864D02*
X252Y864D01*
X522Y864D02*
X525Y864D01*
X672Y864D02*
X675Y864D01*
X861Y864D02*
X864Y864D01*
X1023Y864D02*
X1030Y864D01*
X0Y863D02*
X7Y863D01*
X70Y863D02*
X73Y863D01*
X141Y863D02*
X144Y863D01*
X249Y863D02*
X252Y863D01*
X522Y863D02*
X525Y863D01*
X672Y863D02*
X675Y863D01*
X861Y863D02*
X864Y863D01*
X1023Y863D02*
X1030Y863D01*
X0Y862D02*
X7Y862D01*
X70Y862D02*
X73Y862D01*
X141Y862D02*
X144Y862D01*
X249Y862D02*
X252Y862D01*
X522Y862D02*
X525Y862D01*
X672Y862D02*
X675Y862D01*
X861Y862D02*
X864Y862D01*
X1023Y862D02*
X1030Y862D01*
X0Y861D02*
X7Y861D01*
X70Y861D02*
X73Y861D01*
X141Y861D02*
X144Y861D01*
X249Y861D02*
X252Y861D01*
X522Y861D02*
X525Y861D01*
X672Y861D02*
X675Y861D01*
X861Y861D02*
X864Y861D01*
X1023Y861D02*
X1030Y861D01*
X0Y860D02*
X7Y860D01*
X70Y860D02*
X73Y860D01*
X141Y860D02*
X144Y860D01*
X249Y860D02*
X252Y860D01*
X522Y860D02*
X525Y860D01*
X672Y860D02*
X675Y860D01*
X861Y860D02*
X864Y860D01*
X1023Y860D02*
X1030Y860D01*
X0Y859D02*
X7Y859D01*
X70Y859D02*
X73Y859D01*
X141Y859D02*
X144Y859D01*
X249Y859D02*
X252Y859D01*
X522Y859D02*
X525Y859D01*
X672Y859D02*
X675Y859D01*
X861Y859D02*
X864Y859D01*
X1023Y859D02*
X1030Y859D01*
X0Y858D02*
X7Y858D01*
X70Y858D02*
X73Y858D01*
X141Y858D02*
X144Y858D01*
X249Y858D02*
X252Y858D01*
X522Y858D02*
X525Y858D01*
X672Y858D02*
X675Y858D01*
X861Y858D02*
X864Y858D01*
X1023Y858D02*
X1030Y858D01*
X0Y857D02*
X7Y857D01*
X70Y857D02*
X73Y857D01*
X141Y857D02*
X144Y857D01*
X249Y857D02*
X252Y857D01*
X522Y857D02*
X525Y857D01*
X672Y857D02*
X675Y857D01*
X861Y857D02*
X864Y857D01*
X1023Y857D02*
X1030Y857D01*
X0Y856D02*
X7Y856D01*
X70Y856D02*
X73Y856D01*
X141Y856D02*
X144Y856D01*
X249Y856D02*
X252Y856D01*
X522Y856D02*
X525Y856D01*
X672Y856D02*
X675Y856D01*
X861Y856D02*
X864Y856D01*
X1023Y856D02*
X1030Y856D01*
X0Y855D02*
X7Y855D01*
X70Y855D02*
X73Y855D01*
X141Y855D02*
X144Y855D01*
X249Y855D02*
X252Y855D01*
X522Y855D02*
X525Y855D01*
X672Y855D02*
X675Y855D01*
X861Y855D02*
X864Y855D01*
X1023Y855D02*
X1030Y855D01*
X0Y854D02*
X7Y854D01*
X70Y854D02*
X73Y854D01*
X141Y854D02*
X144Y854D01*
X249Y854D02*
X252Y854D01*
X522Y854D02*
X525Y854D01*
X672Y854D02*
X675Y854D01*
X861Y854D02*
X864Y854D01*
X1023Y854D02*
X1030Y854D01*
X0Y853D02*
X7Y853D01*
X70Y853D02*
X73Y853D01*
X141Y853D02*
X144Y853D01*
X249Y853D02*
X252Y853D01*
X522Y853D02*
X525Y853D01*
X672Y853D02*
X715Y853D01*
X821Y853D02*
X864Y853D01*
X1023Y853D02*
X1030Y853D01*
X0Y852D02*
X7Y852D01*
X70Y852D02*
X73Y852D01*
X141Y852D02*
X144Y852D01*
X249Y852D02*
X252Y852D01*
X522Y852D02*
X525Y852D01*
X672Y852D02*
X715Y852D01*
X821Y852D02*
X864Y852D01*
X1023Y852D02*
X1030Y852D01*
X0Y851D02*
X7Y851D01*
X70Y851D02*
X72Y851D01*
X142Y851D02*
X144Y851D01*
X249Y851D02*
X252Y851D01*
X522Y851D02*
X525Y851D01*
X672Y851D02*
X715Y851D01*
X821Y851D02*
X864Y851D01*
X1023Y851D02*
X1030Y851D01*
X0Y850D02*
X7Y850D01*
X70Y850D02*
X72Y850D01*
X142Y850D02*
X144Y850D01*
X249Y850D02*
X252Y850D01*
X522Y850D02*
X525Y850D01*
X672Y850D02*
X715Y850D01*
X821Y850D02*
X864Y850D01*
X1023Y850D02*
X1030Y850D01*
X0Y849D02*
X7Y849D01*
X70Y849D02*
X72Y849D01*
X142Y849D02*
X144Y849D01*
X249Y849D02*
X252Y849D01*
X522Y849D02*
X525Y849D01*
X672Y849D02*
X715Y849D01*
X821Y849D02*
X864Y849D01*
X1023Y849D02*
X1030Y849D01*
X0Y848D02*
X7Y848D01*
X70Y848D02*
X72Y848D01*
X142Y848D02*
X144Y848D01*
X249Y848D02*
X252Y848D01*
X522Y848D02*
X525Y848D01*
X672Y848D02*
X715Y848D01*
X821Y848D02*
X864Y848D01*
X1023Y848D02*
X1030Y848D01*
X0Y847D02*
X7Y847D01*
X70Y847D02*
X72Y847D01*
X142Y847D02*
X144Y847D01*
X249Y847D02*
X252Y847D01*
X522Y847D02*
X525Y847D01*
X672Y847D02*
X715Y847D01*
X821Y847D02*
X864Y847D01*
X1023Y847D02*
X1030Y847D01*
X0Y846D02*
X7Y846D01*
X70Y846D02*
X72Y846D01*
X142Y846D02*
X144Y846D01*
X249Y846D02*
X252Y846D01*
X522Y846D02*
X525Y846D01*
X672Y846D02*
X715Y846D01*
X821Y846D02*
X864Y846D01*
X1023Y846D02*
X1030Y846D01*
X0Y845D02*
X7Y845D01*
X70Y845D02*
X72Y845D01*
X142Y845D02*
X144Y845D01*
X249Y845D02*
X252Y845D01*
X522Y845D02*
X525Y845D01*
X672Y845D02*
X715Y845D01*
X821Y845D02*
X864Y845D01*
X1023Y845D02*
X1030Y845D01*
X0Y844D02*
X7Y844D01*
X70Y844D02*
X72Y844D01*
X142Y844D02*
X144Y844D01*
X249Y844D02*
X252Y844D01*
X522Y844D02*
X525Y844D01*
X672Y844D02*
X715Y844D01*
X821Y844D02*
X864Y844D01*
X1023Y844D02*
X1030Y844D01*
X0Y843D02*
X7Y843D01*
X70Y843D02*
X72Y843D01*
X142Y843D02*
X144Y843D01*
X249Y843D02*
X252Y843D01*
X522Y843D02*
X525Y843D01*
X672Y843D02*
X715Y843D01*
X821Y843D02*
X864Y843D01*
X1023Y843D02*
X1030Y843D01*
X0Y842D02*
X7Y842D01*
X70Y842D02*
X72Y842D01*
X142Y842D02*
X144Y842D01*
X249Y842D02*
X252Y842D01*
X522Y842D02*
X525Y842D01*
X672Y842D02*
X715Y842D01*
X821Y842D02*
X864Y842D01*
X1023Y842D02*
X1030Y842D01*
X0Y841D02*
X7Y841D01*
X70Y841D02*
X72Y841D01*
X142Y841D02*
X144Y841D01*
X249Y841D02*
X252Y841D01*
X522Y841D02*
X525Y841D01*
X672Y841D02*
X715Y841D01*
X821Y841D02*
X864Y841D01*
X1023Y841D02*
X1030Y841D01*
X0Y840D02*
X7Y840D01*
X70Y840D02*
X72Y840D01*
X142Y840D02*
X144Y840D01*
X249Y840D02*
X252Y840D01*
X522Y840D02*
X525Y840D01*
X672Y840D02*
X715Y840D01*
X821Y840D02*
X864Y840D01*
X1023Y840D02*
X1030Y840D01*
X0Y839D02*
X7Y839D01*
X70Y839D02*
X72Y839D01*
X142Y839D02*
X144Y839D01*
X249Y839D02*
X252Y839D01*
X522Y839D02*
X525Y839D01*
X672Y839D02*
X715Y839D01*
X821Y839D02*
X864Y839D01*
X1023Y839D02*
X1030Y839D01*
X0Y838D02*
X7Y838D01*
X70Y838D02*
X72Y838D01*
X142Y838D02*
X144Y838D01*
X249Y838D02*
X252Y838D01*
X522Y838D02*
X525Y838D01*
X672Y838D02*
X715Y838D01*
X821Y838D02*
X864Y838D01*
X1023Y838D02*
X1030Y838D01*
X0Y837D02*
X7Y837D01*
X70Y837D02*
X72Y837D01*
X142Y837D02*
X144Y837D01*
X249Y837D02*
X252Y837D01*
X522Y837D02*
X525Y837D01*
X672Y837D02*
X715Y837D01*
X821Y837D02*
X864Y837D01*
X1023Y837D02*
X1030Y837D01*
X0Y836D02*
X7Y836D01*
X70Y836D02*
X72Y836D01*
X142Y836D02*
X144Y836D01*
X249Y836D02*
X252Y836D01*
X522Y836D02*
X525Y836D01*
X672Y836D02*
X715Y836D01*
X821Y836D02*
X864Y836D01*
X1023Y836D02*
X1030Y836D01*
X0Y835D02*
X7Y835D01*
X70Y835D02*
X72Y835D01*
X142Y835D02*
X144Y835D01*
X249Y835D02*
X252Y835D01*
X522Y835D02*
X525Y835D01*
X672Y835D02*
X715Y835D01*
X821Y835D02*
X864Y835D01*
X1023Y835D02*
X1030Y835D01*
X0Y834D02*
X7Y834D01*
X70Y834D02*
X72Y834D01*
X142Y834D02*
X144Y834D01*
X249Y834D02*
X252Y834D01*
X522Y834D02*
X525Y834D01*
X672Y834D02*
X715Y834D01*
X821Y834D02*
X864Y834D01*
X1023Y834D02*
X1030Y834D01*
X0Y833D02*
X7Y833D01*
X70Y833D02*
X72Y833D01*
X142Y833D02*
X144Y833D01*
X249Y833D02*
X252Y833D01*
X522Y833D02*
X525Y833D01*
X672Y833D02*
X715Y833D01*
X821Y833D02*
X864Y833D01*
X1023Y833D02*
X1030Y833D01*
X0Y832D02*
X7Y832D01*
X70Y832D02*
X72Y832D01*
X142Y832D02*
X144Y832D01*
X249Y832D02*
X252Y832D01*
X522Y832D02*
X525Y832D01*
X672Y832D02*
X715Y832D01*
X821Y832D02*
X864Y832D01*
X1023Y832D02*
X1030Y832D01*
X0Y831D02*
X7Y831D01*
X70Y831D02*
X72Y831D01*
X142Y831D02*
X144Y831D01*
X249Y831D02*
X252Y831D01*
X522Y831D02*
X525Y831D01*
X672Y831D02*
X715Y831D01*
X821Y831D02*
X864Y831D01*
X1023Y831D02*
X1030Y831D01*
X0Y830D02*
X7Y830D01*
X70Y830D02*
X72Y830D01*
X142Y830D02*
X144Y830D01*
X249Y830D02*
X252Y830D01*
X522Y830D02*
X525Y830D01*
X672Y830D02*
X715Y830D01*
X821Y830D02*
X864Y830D01*
X1023Y830D02*
X1030Y830D01*
X0Y829D02*
X7Y829D01*
X70Y829D02*
X72Y829D01*
X142Y829D02*
X144Y829D01*
X249Y829D02*
X252Y829D01*
X522Y829D02*
X525Y829D01*
X672Y829D02*
X715Y829D01*
X821Y829D02*
X864Y829D01*
X1023Y829D02*
X1030Y829D01*
X0Y828D02*
X7Y828D01*
X70Y828D02*
X72Y828D01*
X142Y828D02*
X144Y828D01*
X249Y828D02*
X252Y828D01*
X522Y828D02*
X525Y828D01*
X672Y828D02*
X715Y828D01*
X821Y828D02*
X864Y828D01*
X1023Y828D02*
X1030Y828D01*
X0Y827D02*
X7Y827D01*
X70Y827D02*
X72Y827D01*
X142Y827D02*
X144Y827D01*
X249Y827D02*
X252Y827D01*
X522Y827D02*
X525Y827D01*
X672Y827D02*
X715Y827D01*
X821Y827D02*
X864Y827D01*
X1023Y827D02*
X1030Y827D01*
X0Y826D02*
X7Y826D01*
X70Y826D02*
X72Y826D01*
X142Y826D02*
X144Y826D01*
X249Y826D02*
X252Y826D01*
X522Y826D02*
X525Y826D01*
X672Y826D02*
X715Y826D01*
X821Y826D02*
X864Y826D01*
X1023Y826D02*
X1030Y826D01*
X0Y825D02*
X7Y825D01*
X70Y825D02*
X72Y825D01*
X142Y825D02*
X144Y825D01*
X249Y825D02*
X252Y825D01*
X522Y825D02*
X525Y825D01*
X672Y825D02*
X675Y825D01*
X861Y825D02*
X864Y825D01*
X1023Y825D02*
X1030Y825D01*
X0Y824D02*
X7Y824D01*
X70Y824D02*
X72Y824D01*
X142Y824D02*
X144Y824D01*
X249Y824D02*
X252Y824D01*
X522Y824D02*
X525Y824D01*
X672Y824D02*
X675Y824D01*
X861Y824D02*
X864Y824D01*
X1023Y824D02*
X1030Y824D01*
X0Y823D02*
X7Y823D01*
X70Y823D02*
X72Y823D01*
X142Y823D02*
X144Y823D01*
X249Y823D02*
X252Y823D01*
X522Y823D02*
X525Y823D01*
X672Y823D02*
X675Y823D01*
X861Y823D02*
X864Y823D01*
X1023Y823D02*
X1030Y823D01*
X0Y822D02*
X7Y822D01*
X70Y822D02*
X72Y822D01*
X142Y822D02*
X144Y822D01*
X249Y822D02*
X252Y822D01*
X522Y822D02*
X525Y822D01*
X672Y822D02*
X675Y822D01*
X861Y822D02*
X864Y822D01*
X1023Y822D02*
X1030Y822D01*
X0Y821D02*
X7Y821D01*
X70Y821D02*
X72Y821D01*
X142Y821D02*
X144Y821D01*
X249Y821D02*
X252Y821D01*
X522Y821D02*
X525Y821D01*
X672Y821D02*
X675Y821D01*
X861Y821D02*
X864Y821D01*
X1023Y821D02*
X1030Y821D01*
X0Y820D02*
X7Y820D01*
X70Y820D02*
X72Y820D01*
X142Y820D02*
X144Y820D01*
X249Y820D02*
X252Y820D01*
X522Y820D02*
X525Y820D01*
X672Y820D02*
X675Y820D01*
X861Y820D02*
X864Y820D01*
X1023Y820D02*
X1030Y820D01*
X0Y819D02*
X7Y819D01*
X70Y819D02*
X72Y819D01*
X142Y819D02*
X144Y819D01*
X249Y819D02*
X252Y819D01*
X522Y819D02*
X525Y819D01*
X672Y819D02*
X675Y819D01*
X861Y819D02*
X864Y819D01*
X1023Y819D02*
X1030Y819D01*
X0Y818D02*
X7Y818D01*
X70Y818D02*
X72Y818D01*
X142Y818D02*
X144Y818D01*
X249Y818D02*
X252Y818D01*
X522Y818D02*
X525Y818D01*
X672Y818D02*
X675Y818D01*
X861Y818D02*
X864Y818D01*
X1023Y818D02*
X1030Y818D01*
X0Y817D02*
X7Y817D01*
X70Y817D02*
X72Y817D01*
X142Y817D02*
X144Y817D01*
X249Y817D02*
X252Y817D01*
X522Y817D02*
X525Y817D01*
X672Y817D02*
X675Y817D01*
X861Y817D02*
X864Y817D01*
X1023Y817D02*
X1030Y817D01*
X0Y816D02*
X7Y816D01*
X70Y816D02*
X72Y816D01*
X142Y816D02*
X144Y816D01*
X249Y816D02*
X252Y816D01*
X522Y816D02*
X525Y816D01*
X672Y816D02*
X675Y816D01*
X861Y816D02*
X864Y816D01*
X1023Y816D02*
X1030Y816D01*
X0Y815D02*
X7Y815D01*
X70Y815D02*
X72Y815D01*
X142Y815D02*
X144Y815D01*
X249Y815D02*
X252Y815D01*
X522Y815D02*
X525Y815D01*
X672Y815D02*
X675Y815D01*
X861Y815D02*
X864Y815D01*
X1023Y815D02*
X1030Y815D01*
X0Y814D02*
X7Y814D01*
X70Y814D02*
X72Y814D01*
X142Y814D02*
X144Y814D01*
X249Y814D02*
X252Y814D01*
X522Y814D02*
X525Y814D01*
X672Y814D02*
X715Y814D01*
X821Y814D02*
X864Y814D01*
X1023Y814D02*
X1030Y814D01*
X0Y813D02*
X7Y813D01*
X70Y813D02*
X72Y813D01*
X142Y813D02*
X144Y813D01*
X249Y813D02*
X252Y813D01*
X522Y813D02*
X525Y813D01*
X672Y813D02*
X715Y813D01*
X821Y813D02*
X864Y813D01*
X1023Y813D02*
X1030Y813D01*
X0Y812D02*
X7Y812D01*
X70Y812D02*
X72Y812D01*
X142Y812D02*
X144Y812D01*
X249Y812D02*
X252Y812D01*
X522Y812D02*
X525Y812D01*
X672Y812D02*
X715Y812D01*
X821Y812D02*
X864Y812D01*
X1023Y812D02*
X1030Y812D01*
X0Y811D02*
X7Y811D01*
X70Y811D02*
X72Y811D01*
X142Y811D02*
X144Y811D01*
X249Y811D02*
X252Y811D01*
X522Y811D02*
X525Y811D01*
X672Y811D02*
X715Y811D01*
X821Y811D02*
X864Y811D01*
X1023Y811D02*
X1030Y811D01*
X0Y810D02*
X7Y810D01*
X70Y810D02*
X72Y810D01*
X142Y810D02*
X144Y810D01*
X249Y810D02*
X252Y810D01*
X522Y810D02*
X525Y810D01*
X713Y810D02*
X715Y810D01*
X821Y810D02*
X823Y810D01*
X1023Y810D02*
X1030Y810D01*
X0Y809D02*
X7Y809D01*
X70Y809D02*
X72Y809D01*
X142Y809D02*
X144Y809D01*
X249Y809D02*
X252Y809D01*
X522Y809D02*
X525Y809D01*
X713Y809D02*
X715Y809D01*
X821Y809D02*
X823Y809D01*
X1023Y809D02*
X1030Y809D01*
X0Y808D02*
X7Y808D01*
X70Y808D02*
X72Y808D01*
X142Y808D02*
X144Y808D01*
X249Y808D02*
X252Y808D01*
X522Y808D02*
X525Y808D01*
X713Y808D02*
X715Y808D01*
X821Y808D02*
X823Y808D01*
X1023Y808D02*
X1030Y808D01*
X0Y807D02*
X7Y807D01*
X70Y807D02*
X72Y807D01*
X142Y807D02*
X144Y807D01*
X249Y807D02*
X252Y807D01*
X522Y807D02*
X525Y807D01*
X713Y807D02*
X715Y807D01*
X821Y807D02*
X823Y807D01*
X1023Y807D02*
X1030Y807D01*
X0Y806D02*
X7Y806D01*
X70Y806D02*
X72Y806D01*
X142Y806D02*
X144Y806D01*
X249Y806D02*
X252Y806D01*
X522Y806D02*
X525Y806D01*
X713Y806D02*
X715Y806D01*
X821Y806D02*
X823Y806D01*
X1023Y806D02*
X1030Y806D01*
X0Y805D02*
X7Y805D01*
X70Y805D02*
X72Y805D01*
X142Y805D02*
X144Y805D01*
X249Y805D02*
X252Y805D01*
X522Y805D02*
X525Y805D01*
X713Y805D02*
X715Y805D01*
X821Y805D02*
X823Y805D01*
X1023Y805D02*
X1030Y805D01*
X0Y804D02*
X7Y804D01*
X70Y804D02*
X72Y804D01*
X142Y804D02*
X144Y804D01*
X249Y804D02*
X252Y804D01*
X522Y804D02*
X525Y804D01*
X713Y804D02*
X715Y804D01*
X821Y804D02*
X823Y804D01*
X1023Y804D02*
X1030Y804D01*
X0Y803D02*
X7Y803D01*
X70Y803D02*
X72Y803D01*
X142Y803D02*
X144Y803D01*
X249Y803D02*
X252Y803D01*
X522Y803D02*
X525Y803D01*
X713Y803D02*
X715Y803D01*
X821Y803D02*
X823Y803D01*
X1023Y803D02*
X1030Y803D01*
X0Y802D02*
X7Y802D01*
X70Y802D02*
X72Y802D01*
X142Y802D02*
X144Y802D01*
X249Y802D02*
X252Y802D01*
X522Y802D02*
X525Y802D01*
X713Y802D02*
X715Y802D01*
X821Y802D02*
X823Y802D01*
X1023Y802D02*
X1030Y802D01*
X0Y801D02*
X7Y801D01*
X70Y801D02*
X72Y801D01*
X142Y801D02*
X144Y801D01*
X249Y801D02*
X252Y801D01*
X522Y801D02*
X525Y801D01*
X713Y801D02*
X715Y801D01*
X821Y801D02*
X823Y801D01*
X1023Y801D02*
X1030Y801D01*
X0Y800D02*
X7Y800D01*
X70Y800D02*
X72Y800D01*
X142Y800D02*
X144Y800D01*
X249Y800D02*
X252Y800D01*
X522Y800D02*
X525Y800D01*
X713Y800D02*
X715Y800D01*
X821Y800D02*
X823Y800D01*
X1023Y800D02*
X1030Y800D01*
X0Y799D02*
X7Y799D01*
X70Y799D02*
X72Y799D01*
X142Y799D02*
X144Y799D01*
X249Y799D02*
X252Y799D01*
X522Y799D02*
X525Y799D01*
X713Y799D02*
X715Y799D01*
X821Y799D02*
X823Y799D01*
X1023Y799D02*
X1030Y799D01*
X0Y798D02*
X7Y798D01*
X70Y798D02*
X72Y798D01*
X142Y798D02*
X144Y798D01*
X249Y798D02*
X252Y798D01*
X522Y798D02*
X525Y798D01*
X713Y798D02*
X715Y798D01*
X821Y798D02*
X823Y798D01*
X1023Y798D02*
X1030Y798D01*
X0Y797D02*
X7Y797D01*
X70Y797D02*
X72Y797D01*
X142Y797D02*
X144Y797D01*
X249Y797D02*
X252Y797D01*
X522Y797D02*
X525Y797D01*
X713Y797D02*
X715Y797D01*
X821Y797D02*
X823Y797D01*
X1023Y797D02*
X1030Y797D01*
X0Y796D02*
X7Y796D01*
X70Y796D02*
X72Y796D01*
X142Y796D02*
X144Y796D01*
X249Y796D02*
X252Y796D01*
X522Y796D02*
X525Y796D01*
X713Y796D02*
X715Y796D01*
X821Y796D02*
X823Y796D01*
X1023Y796D02*
X1030Y796D01*
X0Y795D02*
X7Y795D01*
X70Y795D02*
X72Y795D01*
X142Y795D02*
X144Y795D01*
X249Y795D02*
X253Y795D01*
X522Y795D02*
X525Y795D01*
X713Y795D02*
X715Y795D01*
X821Y795D02*
X823Y795D01*
X1023Y795D02*
X1030Y795D01*
X0Y794D02*
X7Y794D01*
X70Y794D02*
X72Y794D01*
X142Y794D02*
X144Y794D01*
X249Y794D02*
X254Y794D01*
X522Y794D02*
X525Y794D01*
X713Y794D02*
X715Y794D01*
X821Y794D02*
X823Y794D01*
X1023Y794D02*
X1030Y794D01*
X0Y793D02*
X7Y793D01*
X70Y793D02*
X72Y793D01*
X142Y793D02*
X144Y793D01*
X248Y793D02*
X255Y793D01*
X522Y793D02*
X527Y793D01*
X713Y793D02*
X715Y793D01*
X821Y793D02*
X823Y793D01*
X1023Y793D02*
X1030Y793D01*
X0Y792D02*
X7Y792D01*
X70Y792D02*
X72Y792D01*
X142Y792D02*
X144Y792D01*
X249Y792D02*
X256Y792D01*
X522Y792D02*
X527Y792D01*
X713Y792D02*
X715Y792D01*
X821Y792D02*
X823Y792D01*
X1023Y792D02*
X1030Y792D01*
X0Y791D02*
X7Y791D01*
X70Y791D02*
X72Y791D01*
X142Y791D02*
X144Y791D01*
X250Y791D02*
X257Y791D01*
X522Y791D02*
X527Y791D01*
X713Y791D02*
X715Y791D01*
X821Y791D02*
X823Y791D01*
X1023Y791D02*
X1030Y791D01*
X0Y790D02*
X7Y790D01*
X70Y790D02*
X72Y790D01*
X142Y790D02*
X144Y790D01*
X251Y790D02*
X258Y790D01*
X522Y790D02*
X527Y790D01*
X713Y790D02*
X715Y790D01*
X821Y790D02*
X823Y790D01*
X1023Y790D02*
X1030Y790D01*
X0Y789D02*
X7Y789D01*
X70Y789D02*
X72Y789D01*
X142Y789D02*
X144Y789D01*
X252Y789D02*
X259Y789D01*
X522Y789D02*
X527Y789D01*
X713Y789D02*
X715Y789D01*
X821Y789D02*
X823Y789D01*
X1023Y789D02*
X1030Y789D01*
X0Y788D02*
X7Y788D01*
X70Y788D02*
X72Y788D01*
X142Y788D02*
X144Y788D01*
X253Y788D02*
X260Y788D01*
X522Y788D02*
X527Y788D01*
X713Y788D02*
X715Y788D01*
X821Y788D02*
X823Y788D01*
X1023Y788D02*
X1030Y788D01*
X0Y787D02*
X7Y787D01*
X70Y787D02*
X72Y787D01*
X142Y787D02*
X144Y787D01*
X254Y787D02*
X261Y787D01*
X522Y787D02*
X527Y787D01*
X713Y787D02*
X715Y787D01*
X821Y787D02*
X823Y787D01*
X1023Y787D02*
X1030Y787D01*
X0Y786D02*
X7Y786D01*
X70Y786D02*
X144Y786D01*
X255Y786D02*
X262Y786D01*
X522Y786D02*
X527Y786D01*
X713Y786D02*
X715Y786D01*
X821Y786D02*
X823Y786D01*
X1023Y786D02*
X1030Y786D01*
X0Y785D02*
X7Y785D01*
X70Y785D02*
X144Y785D01*
X256Y785D02*
X263Y785D01*
X522Y785D02*
X527Y785D01*
X713Y785D02*
X715Y785D01*
X821Y785D02*
X823Y785D01*
X1023Y785D02*
X1030Y785D01*
X0Y784D02*
X7Y784D01*
X70Y784D02*
X144Y784D01*
X257Y784D02*
X527Y784D01*
X713Y784D02*
X715Y784D01*
X821Y784D02*
X823Y784D01*
X1023Y784D02*
X1030Y784D01*
X0Y783D02*
X7Y783D01*
X258Y783D02*
X527Y783D01*
X713Y783D02*
X715Y783D01*
X821Y783D02*
X823Y783D01*
X1023Y783D02*
X1030Y783D01*
X0Y782D02*
X7Y782D01*
X259Y782D02*
X527Y782D01*
X713Y782D02*
X715Y782D01*
X821Y782D02*
X823Y782D01*
X1023Y782D02*
X1030Y782D01*
X0Y781D02*
X7Y781D01*
X260Y781D02*
X527Y781D01*
X713Y781D02*
X715Y781D01*
X821Y781D02*
X823Y781D01*
X1023Y781D02*
X1030Y781D01*
X0Y780D02*
X7Y780D01*
X514Y780D02*
X527Y780D01*
X713Y780D02*
X715Y780D01*
X821Y780D02*
X823Y780D01*
X1023Y780D02*
X1030Y780D01*
X0Y779D02*
X7Y779D01*
X514Y779D02*
X526Y779D01*
X713Y779D02*
X715Y779D01*
X821Y779D02*
X823Y779D01*
X1023Y779D02*
X1030Y779D01*
X0Y778D02*
X7Y778D01*
X713Y778D02*
X715Y778D01*
X821Y778D02*
X823Y778D01*
X1023Y778D02*
X1030Y778D01*
X0Y777D02*
X7Y777D01*
X713Y777D02*
X715Y777D01*
X821Y777D02*
X823Y777D01*
X1023Y777D02*
X1030Y777D01*
X0Y776D02*
X7Y776D01*
X713Y776D02*
X715Y776D01*
X821Y776D02*
X823Y776D01*
X1023Y776D02*
X1030Y776D01*
X0Y775D02*
X7Y775D01*
X713Y775D02*
X715Y775D01*
X821Y775D02*
X823Y775D01*
X1023Y775D02*
X1030Y775D01*
X0Y774D02*
X7Y774D01*
X713Y774D02*
X715Y774D01*
X821Y774D02*
X823Y774D01*
X1023Y774D02*
X1030Y774D01*
X0Y773D02*
X7Y773D01*
X713Y773D02*
X715Y773D01*
X821Y773D02*
X823Y773D01*
X1023Y773D02*
X1030Y773D01*
X0Y772D02*
X7Y772D01*
X713Y772D02*
X715Y772D01*
X821Y772D02*
X823Y772D01*
X1023Y772D02*
X1030Y772D01*
X0Y771D02*
X7Y771D01*
X713Y771D02*
X715Y771D01*
X821Y771D02*
X823Y771D01*
X1023Y771D02*
X1030Y771D01*
X0Y770D02*
X7Y770D01*
X713Y770D02*
X715Y770D01*
X821Y770D02*
X823Y770D01*
X1023Y770D02*
X1030Y770D01*
X0Y769D02*
X7Y769D01*
X713Y769D02*
X715Y769D01*
X821Y769D02*
X823Y769D01*
X1023Y769D02*
X1030Y769D01*
X0Y768D02*
X7Y768D01*
X713Y768D02*
X715Y768D01*
X821Y768D02*
X823Y768D01*
X1023Y768D02*
X1030Y768D01*
X0Y767D02*
X7Y767D01*
X713Y767D02*
X715Y767D01*
X821Y767D02*
X823Y767D01*
X1023Y767D02*
X1030Y767D01*
X0Y766D02*
X7Y766D01*
X713Y766D02*
X715Y766D01*
X821Y766D02*
X823Y766D01*
X1023Y766D02*
X1030Y766D01*
X0Y765D02*
X7Y765D01*
X713Y765D02*
X715Y765D01*
X821Y765D02*
X823Y765D01*
X1023Y765D02*
X1030Y765D01*
X0Y764D02*
X7Y764D01*
X713Y764D02*
X715Y764D01*
X821Y764D02*
X823Y764D01*
X1023Y764D02*
X1030Y764D01*
X0Y763D02*
X7Y763D01*
X713Y763D02*
X715Y763D01*
X821Y763D02*
X823Y763D01*
X1023Y763D02*
X1030Y763D01*
X0Y762D02*
X7Y762D01*
X713Y762D02*
X716Y762D01*
X821Y762D02*
X823Y762D01*
X1023Y762D02*
X1030Y762D01*
X0Y761D02*
X7Y761D01*
X713Y761D02*
X823Y761D01*
X1023Y761D02*
X1030Y761D01*
X0Y760D02*
X7Y760D01*
X713Y760D02*
X823Y760D01*
X1023Y760D02*
X1030Y760D01*
X0Y759D02*
X7Y759D01*
X714Y759D02*
X822Y759D01*
X1023Y759D02*
X1030Y759D01*
X0Y758D02*
X7Y758D01*
X1023Y758D02*
X1030Y758D01*
X0Y757D02*
X7Y757D01*
X1023Y757D02*
X1030Y757D01*
X0Y756D02*
X7Y756D01*
X1023Y756D02*
X1030Y756D01*
X0Y755D02*
X7Y755D01*
X1023Y755D02*
X1030Y755D01*
X0Y754D02*
X7Y754D01*
X1023Y754D02*
X1030Y754D01*
X0Y753D02*
X7Y753D01*
X1023Y753D02*
X1030Y753D01*
X0Y752D02*
X7Y752D01*
X1023Y752D02*
X1030Y752D01*
X0Y751D02*
X7Y751D01*
X1023Y751D02*
X1030Y751D01*
X0Y750D02*
X7Y750D01*
X1023Y750D02*
X1030Y750D01*
X0Y749D02*
X7Y749D01*
X1023Y749D02*
X1030Y749D01*
X0Y748D02*
X7Y748D01*
X1023Y748D02*
X1030Y748D01*
X0Y747D02*
X7Y747D01*
X1023Y747D02*
X1030Y747D01*
X0Y746D02*
X7Y746D01*
X1023Y746D02*
X1030Y746D01*
X0Y745D02*
X7Y745D01*
X1023Y745D02*
X1030Y745D01*
X0Y744D02*
X7Y744D01*
X1023Y744D02*
X1030Y744D01*
X0Y743D02*
X7Y743D01*
X1023Y743D02*
X1030Y743D01*
X0Y742D02*
X7Y742D01*
X1023Y742D02*
X1030Y742D01*
X0Y741D02*
X7Y741D01*
X1023Y741D02*
X1030Y741D01*
X0Y740D02*
X7Y740D01*
X1023Y740D02*
X1030Y740D01*
X0Y739D02*
X7Y739D01*
X1023Y739D02*
X1030Y739D01*
X0Y738D02*
X7Y738D01*
X1023Y738D02*
X1030Y738D01*
X0Y737D02*
X7Y737D01*
X1023Y737D02*
X1030Y737D01*
X0Y736D02*
X7Y736D01*
X1023Y736D02*
X1030Y736D01*
X0Y735D02*
X7Y735D01*
X1023Y735D02*
X1030Y735D01*
X0Y734D02*
X7Y734D01*
X1023Y734D02*
X1030Y734D01*
X0Y733D02*
X7Y733D01*
X1023Y733D02*
X1030Y733D01*
X0Y732D02*
X7Y732D01*
X1023Y732D02*
X1030Y732D01*
X0Y731D02*
X7Y731D01*
X1023Y731D02*
X1030Y731D01*
X0Y730D02*
X7Y730D01*
X1023Y730D02*
X1030Y730D01*
X0Y729D02*
X7Y729D01*
X1023Y729D02*
X1030Y729D01*
X0Y728D02*
X7Y728D01*
X1023Y728D02*
X1030Y728D01*
X0Y727D02*
X7Y727D01*
X1023Y727D02*
X1030Y727D01*
X0Y726D02*
X7Y726D01*
X1023Y726D02*
X1030Y726D01*
X0Y725D02*
X7Y725D01*
X1023Y725D02*
X1030Y725D01*
X0Y724D02*
X7Y724D01*
X1023Y724D02*
X1030Y724D01*
X0Y723D02*
X7Y723D01*
X1023Y723D02*
X1030Y723D01*
X0Y722D02*
X7Y722D01*
X1023Y722D02*
X1030Y722D01*
X0Y721D02*
X7Y721D01*
X1023Y721D02*
X1030Y721D01*
X0Y720D02*
X7Y720D01*
X1023Y720D02*
X1030Y720D01*
X0Y719D02*
X7Y719D01*
X1023Y719D02*
X1030Y719D01*
X0Y718D02*
X7Y718D01*
X1023Y718D02*
X1030Y718D01*
X0Y717D02*
X7Y717D01*
X1023Y717D02*
X1030Y717D01*
X0Y716D02*
X7Y716D01*
X1023Y716D02*
X1030Y716D01*
X0Y715D02*
X7Y715D01*
X1023Y715D02*
X1030Y715D01*
X0Y714D02*
X7Y714D01*
X1023Y714D02*
X1030Y714D01*
X0Y713D02*
X7Y713D01*
X1023Y713D02*
X1030Y713D01*
X0Y712D02*
X7Y712D01*
X1023Y712D02*
X1030Y712D01*
X0Y711D02*
X7Y711D01*
X1023Y711D02*
X1030Y711D01*
X0Y710D02*
X7Y710D01*
X1023Y710D02*
X1030Y710D01*
X0Y709D02*
X7Y709D01*
X1023Y709D02*
X1030Y709D01*
X0Y708D02*
X7Y708D01*
X1023Y708D02*
X1030Y708D01*
X0Y707D02*
X7Y707D01*
X1023Y707D02*
X1030Y707D01*
X0Y706D02*
X7Y706D01*
X1023Y706D02*
X1030Y706D01*
X0Y705D02*
X7Y705D01*
X1023Y705D02*
X1030Y705D01*
X0Y704D02*
X7Y704D01*
X1023Y704D02*
X1030Y704D01*
X0Y703D02*
X7Y703D01*
X1023Y703D02*
X1030Y703D01*
X0Y702D02*
X7Y702D01*
X1023Y702D02*
X1030Y702D01*
X0Y701D02*
X7Y701D01*
X1023Y701D02*
X1030Y701D01*
X0Y700D02*
X7Y700D01*
X1023Y700D02*
X1030Y700D01*
X0Y699D02*
X7Y699D01*
X1023Y699D02*
X1030Y699D01*
X0Y698D02*
X7Y698D01*
X1023Y698D02*
X1030Y698D01*
X0Y697D02*
X7Y697D01*
X1023Y697D02*
X1030Y697D01*
X0Y696D02*
X7Y696D01*
X1023Y696D02*
X1030Y696D01*
X0Y695D02*
X7Y695D01*
X1023Y695D02*
X1030Y695D01*
X0Y694D02*
X7Y694D01*
X1023Y694D02*
X1030Y694D01*
X0Y693D02*
X7Y693D01*
X1023Y693D02*
X1030Y693D01*
X0Y692D02*
X7Y692D01*
X1023Y692D02*
X1030Y692D01*
X0Y691D02*
X7Y691D01*
X1023Y691D02*
X1030Y691D01*
X0Y690D02*
X7Y690D01*
X1023Y690D02*
X1030Y690D01*
X0Y689D02*
X7Y689D01*
X1023Y689D02*
X1030Y689D01*
X0Y688D02*
X7Y688D01*
X1023Y688D02*
X1030Y688D01*
X0Y687D02*
X7Y687D01*
X1023Y687D02*
X1030Y687D01*
X0Y686D02*
X7Y686D01*
X1023Y686D02*
X1030Y686D01*
X0Y685D02*
X7Y685D01*
X1023Y685D02*
X1030Y685D01*
X0Y684D02*
X7Y684D01*
X1023Y684D02*
X1030Y684D01*
X0Y683D02*
X7Y683D01*
X1023Y683D02*
X1030Y683D01*
X0Y682D02*
X7Y682D01*
X1023Y682D02*
X1030Y682D01*
X0Y681D02*
X7Y681D01*
X1023Y681D02*
X1030Y681D01*
X0Y680D02*
X7Y680D01*
X1023Y680D02*
X1030Y680D01*
X0Y679D02*
X7Y679D01*
X1023Y679D02*
X1030Y679D01*
X0Y678D02*
X7Y678D01*
X1023Y678D02*
X1030Y678D01*
X0Y677D02*
X7Y677D01*
X1023Y677D02*
X1030Y677D01*
X0Y676D02*
X7Y676D01*
X1023Y676D02*
X1030Y676D01*
X0Y675D02*
X7Y675D01*
X1023Y675D02*
X1030Y675D01*
X0Y674D02*
X7Y674D01*
X1023Y674D02*
X1030Y674D01*
X0Y673D02*
X7Y673D01*
X1023Y673D02*
X1030Y673D01*
X0Y672D02*
X7Y672D01*
X1023Y672D02*
X1030Y672D01*
X0Y671D02*
X7Y671D01*
X1023Y671D02*
X1030Y671D01*
X0Y670D02*
X7Y670D01*
X1023Y670D02*
X1030Y670D01*
X0Y669D02*
X7Y669D01*
X1023Y669D02*
X1030Y669D01*
X0Y668D02*
X7Y668D01*
X1023Y668D02*
X1030Y668D01*
X0Y667D02*
X7Y667D01*
X1023Y667D02*
X1030Y667D01*
X0Y666D02*
X7Y666D01*
X1023Y666D02*
X1030Y666D01*
X0Y665D02*
X7Y665D01*
X1023Y665D02*
X1030Y665D01*
X0Y664D02*
X7Y664D01*
X1023Y664D02*
X1030Y664D01*
X0Y663D02*
X7Y663D01*
X1023Y663D02*
X1030Y663D01*
X0Y662D02*
X7Y662D01*
X1023Y662D02*
X1030Y662D01*
X0Y661D02*
X7Y661D01*
X1023Y661D02*
X1030Y661D01*
X0Y660D02*
X7Y660D01*
X1023Y660D02*
X1030Y660D01*
X0Y659D02*
X7Y659D01*
X1023Y659D02*
X1030Y659D01*
X0Y658D02*
X7Y658D01*
X1023Y658D02*
X1030Y658D01*
X0Y657D02*
X7Y657D01*
X1023Y657D02*
X1030Y657D01*
X0Y656D02*
X7Y656D01*
X1023Y656D02*
X1030Y656D01*
X0Y655D02*
X7Y655D01*
X1023Y655D02*
X1030Y655D01*
X0Y654D02*
X7Y654D01*
X1023Y654D02*
X1030Y654D01*
X0Y653D02*
X7Y653D01*
X1023Y653D02*
X1030Y653D01*
X0Y652D02*
X7Y652D01*
X1023Y652D02*
X1030Y652D01*
X0Y651D02*
X7Y651D01*
X1023Y651D02*
X1030Y651D01*
X0Y650D02*
X7Y650D01*
X1023Y650D02*
X1030Y650D01*
X0Y649D02*
X7Y649D01*
X1023Y649D02*
X1030Y649D01*
X0Y648D02*
X7Y648D01*
X1023Y648D02*
X1030Y648D01*
X0Y647D02*
X7Y647D01*
X1023Y647D02*
X1030Y647D01*
X0Y646D02*
X7Y646D01*
X1023Y646D02*
X1030Y646D01*
X0Y645D02*
X7Y645D01*
X1023Y645D02*
X1030Y645D01*
X0Y644D02*
X7Y644D01*
X1023Y644D02*
X1030Y644D01*
X0Y643D02*
X7Y643D01*
X1023Y643D02*
X1030Y643D01*
X0Y642D02*
X7Y642D01*
X1023Y642D02*
X1030Y642D01*
X0Y641D02*
X7Y641D01*
X1023Y641D02*
X1030Y641D01*
X0Y640D02*
X7Y640D01*
X1023Y640D02*
X1030Y640D01*
X0Y639D02*
X7Y639D01*
X1023Y639D02*
X1030Y639D01*
X0Y638D02*
X7Y638D01*
X1023Y638D02*
X1030Y638D01*
X0Y637D02*
X7Y637D01*
X1023Y637D02*
X1030Y637D01*
X0Y636D02*
X7Y636D01*
X1023Y636D02*
X1030Y636D01*
X0Y635D02*
X7Y635D01*
X1023Y635D02*
X1030Y635D01*
X0Y634D02*
X7Y634D01*
X1023Y634D02*
X1030Y634D01*
X0Y633D02*
X7Y633D01*
X1023Y633D02*
X1030Y633D01*
X0Y632D02*
X7Y632D01*
X1023Y632D02*
X1030Y632D01*
X0Y631D02*
X7Y631D01*
X1023Y631D02*
X1030Y631D01*
X0Y630D02*
X7Y630D01*
X1023Y630D02*
X1030Y630D01*
X0Y629D02*
X7Y629D01*
X1023Y629D02*
X1030Y629D01*
X0Y628D02*
X7Y628D01*
X1023Y628D02*
X1030Y628D01*
X0Y627D02*
X7Y627D01*
X1023Y627D02*
X1030Y627D01*
X0Y626D02*
X7Y626D01*
X1023Y626D02*
X1030Y626D01*
X0Y625D02*
X7Y625D01*
X1023Y625D02*
X1030Y625D01*
X0Y624D02*
X7Y624D01*
X1023Y624D02*
X1030Y624D01*
X0Y623D02*
X7Y623D01*
X1023Y623D02*
X1030Y623D01*
X0Y622D02*
X7Y622D01*
X1023Y622D02*
X1030Y622D01*
X0Y621D02*
X7Y621D01*
X1023Y621D02*
X1030Y621D01*
X0Y620D02*
X7Y620D01*
X1023Y620D02*
X1030Y620D01*
X0Y619D02*
X7Y619D01*
X1023Y619D02*
X1030Y619D01*
X0Y618D02*
X7Y618D01*
X1023Y618D02*
X1030Y618D01*
X0Y617D02*
X7Y617D01*
X1023Y617D02*
X1030Y617D01*
X0Y616D02*
X7Y616D01*
X1023Y616D02*
X1030Y616D01*
X0Y615D02*
X7Y615D01*
X1023Y615D02*
X1030Y615D01*
X0Y614D02*
X7Y614D01*
X1023Y614D02*
X1030Y614D01*
X0Y613D02*
X7Y613D01*
X1023Y613D02*
X1030Y613D01*
X0Y612D02*
X7Y612D01*
X1023Y612D02*
X1030Y612D01*
X0Y611D02*
X7Y611D01*
X1023Y611D02*
X1030Y611D01*
X0Y610D02*
X7Y610D01*
X1023Y610D02*
X1030Y610D01*
X0Y609D02*
X7Y609D01*
X1023Y609D02*
X1030Y609D01*
X0Y608D02*
X7Y608D01*
X1023Y608D02*
X1030Y608D01*
X0Y607D02*
X7Y607D01*
X1023Y607D02*
X1030Y607D01*
X0Y606D02*
X7Y606D01*
X1023Y606D02*
X1030Y606D01*
X0Y605D02*
X7Y605D01*
X1023Y605D02*
X1030Y605D01*
X0Y604D02*
X7Y604D01*
X1023Y604D02*
X1030Y604D01*
X0Y603D02*
X7Y603D01*
X1023Y603D02*
X1030Y603D01*
X0Y602D02*
X7Y602D01*
X1023Y602D02*
X1030Y602D01*
X0Y601D02*
X7Y601D01*
X1023Y601D02*
X1030Y601D01*
X0Y600D02*
X7Y600D01*
X1023Y600D02*
X1030Y600D01*
X0Y599D02*
X7Y599D01*
X1023Y599D02*
X1030Y599D01*
X0Y598D02*
X7Y598D01*
X1023Y598D02*
X1030Y598D01*
X0Y597D02*
X7Y597D01*
X1023Y597D02*
X1030Y597D01*
X0Y596D02*
X7Y596D01*
X1023Y596D02*
X1030Y596D01*
X0Y595D02*
X7Y595D01*
X1023Y595D02*
X1030Y595D01*
X0Y594D02*
X7Y594D01*
X1023Y594D02*
X1030Y594D01*
X0Y593D02*
X7Y593D01*
X1023Y593D02*
X1030Y593D01*
X0Y592D02*
X7Y592D01*
X1023Y592D02*
X1030Y592D01*
X0Y591D02*
X7Y591D01*
X1023Y591D02*
X1030Y591D01*
X0Y590D02*
X7Y590D01*
X1023Y590D02*
X1030Y590D01*
X0Y589D02*
X7Y589D01*
X1023Y589D02*
X1030Y589D01*
X0Y588D02*
X7Y588D01*
X1023Y588D02*
X1030Y588D01*
X0Y587D02*
X7Y587D01*
X1023Y587D02*
X1030Y587D01*
X0Y586D02*
X7Y586D01*
X1023Y586D02*
X1030Y586D01*
X0Y585D02*
X7Y585D01*
X1023Y585D02*
X1030Y585D01*
X0Y584D02*
X7Y584D01*
X1023Y584D02*
X1030Y584D01*
X0Y583D02*
X7Y583D01*
X1023Y583D02*
X1030Y583D01*
X0Y582D02*
X7Y582D01*
X1023Y582D02*
X1030Y582D01*
X0Y581D02*
X7Y581D01*
X1023Y581D02*
X1030Y581D01*
X0Y580D02*
X7Y580D01*
X1023Y580D02*
X1030Y580D01*
X0Y579D02*
X7Y579D01*
X1023Y579D02*
X1030Y579D01*
X0Y578D02*
X7Y578D01*
X1023Y578D02*
X1030Y578D01*
X0Y577D02*
X7Y577D01*
X1023Y577D02*
X1030Y577D01*
X0Y576D02*
X7Y576D01*
X1023Y576D02*
X1030Y576D01*
X0Y575D02*
X7Y575D01*
X1023Y575D02*
X1030Y575D01*
X0Y574D02*
X7Y574D01*
X1023Y574D02*
X1030Y574D01*
X0Y573D02*
X7Y573D01*
X1023Y573D02*
X1030Y573D01*
X0Y572D02*
X7Y572D01*
X1023Y572D02*
X1030Y572D01*
X0Y571D02*
X7Y571D01*
X1023Y571D02*
X1030Y571D01*
X0Y570D02*
X7Y570D01*
X1023Y570D02*
X1030Y570D01*
X0Y569D02*
X7Y569D01*
X1023Y569D02*
X1030Y569D01*
X0Y568D02*
X7Y568D01*
X1023Y568D02*
X1030Y568D01*
X0Y567D02*
X7Y567D01*
X1023Y567D02*
X1030Y567D01*
X0Y566D02*
X7Y566D01*
X1023Y566D02*
X1030Y566D01*
X0Y565D02*
X7Y565D01*
X1023Y565D02*
X1030Y565D01*
X0Y564D02*
X7Y564D01*
X1023Y564D02*
X1030Y564D01*
X0Y563D02*
X7Y563D01*
X1023Y563D02*
X1030Y563D01*
X0Y562D02*
X7Y562D01*
X1023Y562D02*
X1030Y562D01*
X0Y561D02*
X7Y561D01*
X1023Y561D02*
X1030Y561D01*
X0Y560D02*
X7Y560D01*
X1023Y560D02*
X1030Y560D01*
X0Y559D02*
X7Y559D01*
X1023Y559D02*
X1030Y559D01*
X0Y558D02*
X7Y558D01*
X1023Y558D02*
X1030Y558D01*
X0Y557D02*
X7Y557D01*
X1023Y557D02*
X1030Y557D01*
X0Y556D02*
X7Y556D01*
X1023Y556D02*
X1030Y556D01*
X0Y555D02*
X7Y555D01*
X1023Y555D02*
X1030Y555D01*
X0Y554D02*
X7Y554D01*
X1023Y554D02*
X1030Y554D01*
X0Y553D02*
X7Y553D01*
X1023Y553D02*
X1030Y553D01*
X0Y552D02*
X7Y552D01*
X1023Y552D02*
X1030Y552D01*
X0Y551D02*
X7Y551D01*
X1023Y551D02*
X1030Y551D01*
X0Y550D02*
X7Y550D01*
X1023Y550D02*
X1030Y550D01*
X0Y549D02*
X7Y549D01*
X1023Y549D02*
X1030Y549D01*
X0Y548D02*
X7Y548D01*
X1023Y548D02*
X1030Y548D01*
X0Y547D02*
X7Y547D01*
X1023Y547D02*
X1030Y547D01*
X0Y546D02*
X7Y546D01*
X1023Y546D02*
X1030Y546D01*
X0Y545D02*
X7Y545D01*
X1023Y545D02*
X1030Y545D01*
X0Y544D02*
X7Y544D01*
X1023Y544D02*
X1030Y544D01*
X0Y543D02*
X7Y543D01*
X1023Y543D02*
X1030Y543D01*
X0Y542D02*
X7Y542D01*
X1023Y542D02*
X1030Y542D01*
X0Y541D02*
X7Y541D01*
X1023Y541D02*
X1030Y541D01*
X0Y540D02*
X7Y540D01*
X1023Y540D02*
X1030Y540D01*
X0Y539D02*
X7Y539D01*
X1023Y539D02*
X1030Y539D01*
X0Y538D02*
X7Y538D01*
X1023Y538D02*
X1030Y538D01*
X0Y537D02*
X7Y537D01*
X1023Y537D02*
X1030Y537D01*
X0Y536D02*
X7Y536D01*
X1023Y536D02*
X1030Y536D01*
X0Y535D02*
X7Y535D01*
X1023Y535D02*
X1030Y535D01*
X0Y534D02*
X7Y534D01*
X1023Y534D02*
X1030Y534D01*
X0Y533D02*
X7Y533D01*
X1023Y533D02*
X1030Y533D01*
X0Y532D02*
X7Y532D01*
X1023Y532D02*
X1030Y532D01*
X0Y531D02*
X7Y531D01*
X780Y531D02*
X781Y531D01*
X1023Y531D02*
X1030Y531D01*
X0Y530D02*
X7Y530D01*
X779Y530D02*
X782Y530D01*
X1023Y530D02*
X1030Y530D01*
X0Y529D02*
X7Y529D01*
X778Y529D02*
X783Y529D01*
X1023Y529D02*
X1030Y529D01*
X0Y528D02*
X7Y528D01*
X777Y528D02*
X783Y528D01*
X1023Y528D02*
X1030Y528D01*
X0Y527D02*
X7Y527D01*
X776Y527D02*
X782Y527D01*
X1023Y527D02*
X1030Y527D01*
X0Y526D02*
X7Y526D01*
X775Y526D02*
X781Y526D01*
X1023Y526D02*
X1030Y526D01*
X0Y525D02*
X7Y525D01*
X774Y525D02*
X780Y525D01*
X1023Y525D02*
X1030Y525D01*
X0Y524D02*
X7Y524D01*
X773Y524D02*
X779Y524D01*
X1023Y524D02*
X1030Y524D01*
X0Y523D02*
X7Y523D01*
X772Y523D02*
X778Y523D01*
X1023Y523D02*
X1030Y523D01*
X0Y522D02*
X7Y522D01*
X771Y522D02*
X777Y522D01*
X1023Y522D02*
X1030Y522D01*
X0Y521D02*
X7Y521D01*
X770Y521D02*
X776Y521D01*
X1023Y521D02*
X1030Y521D01*
X0Y520D02*
X7Y520D01*
X769Y520D02*
X775Y520D01*
X1023Y520D02*
X1030Y520D01*
X0Y519D02*
X7Y519D01*
X768Y519D02*
X774Y519D01*
X1023Y519D02*
X1030Y519D01*
X0Y518D02*
X7Y518D01*
X767Y518D02*
X773Y518D01*
X1023Y518D02*
X1030Y518D01*
X0Y517D02*
X7Y517D01*
X766Y517D02*
X771Y517D01*
X1023Y517D02*
X1030Y517D01*
X0Y516D02*
X7Y516D01*
X244Y516D02*
X463Y516D01*
X765Y516D02*
X770Y516D01*
X1023Y516D02*
X1030Y516D01*
X0Y515D02*
X7Y515D01*
X244Y515D02*
X463Y515D01*
X764Y515D02*
X768Y515D01*
X1023Y515D02*
X1030Y515D01*
X0Y514D02*
X7Y514D01*
X244Y514D02*
X463Y514D01*
X763Y514D02*
X767Y514D01*
X1023Y514D02*
X1030Y514D01*
X0Y513D02*
X7Y513D01*
X244Y513D02*
X463Y513D01*
X762Y513D02*
X766Y513D01*
X1023Y513D02*
X1030Y513D01*
X0Y512D02*
X7Y512D01*
X244Y512D02*
X247Y512D01*
X256Y512D02*
X290Y512D01*
X460Y512D02*
X463Y512D01*
X761Y512D02*
X765Y512D01*
X1023Y512D02*
X1030Y512D01*
X0Y511D02*
X7Y511D01*
X244Y511D02*
X247Y511D01*
X256Y511D02*
X290Y511D01*
X460Y511D02*
X463Y511D01*
X760Y511D02*
X764Y511D01*
X1023Y511D02*
X1030Y511D01*
X0Y510D02*
X7Y510D01*
X244Y510D02*
X247Y510D01*
X256Y510D02*
X290Y510D01*
X460Y510D02*
X463Y510D01*
X759Y510D02*
X763Y510D01*
X1023Y510D02*
X1030Y510D01*
X0Y509D02*
X7Y509D01*
X244Y509D02*
X247Y509D01*
X256Y509D02*
X290Y509D01*
X460Y509D02*
X463Y509D01*
X758Y509D02*
X762Y509D01*
X1023Y509D02*
X1030Y509D01*
X0Y508D02*
X7Y508D01*
X244Y508D02*
X247Y508D01*
X256Y508D02*
X290Y508D01*
X460Y508D02*
X463Y508D01*
X757Y508D02*
X762Y508D01*
X1023Y508D02*
X1030Y508D01*
X0Y507D02*
X7Y507D01*
X244Y507D02*
X247Y507D01*
X256Y507D02*
X290Y507D01*
X460Y507D02*
X463Y507D01*
X756Y507D02*
X761Y507D01*
X1023Y507D02*
X1030Y507D01*
X0Y506D02*
X7Y506D01*
X244Y506D02*
X247Y506D01*
X256Y506D02*
X290Y506D01*
X460Y506D02*
X463Y506D01*
X755Y506D02*
X760Y506D01*
X1023Y506D02*
X1030Y506D01*
X0Y505D02*
X7Y505D01*
X244Y505D02*
X247Y505D01*
X256Y505D02*
X290Y505D01*
X460Y505D02*
X463Y505D01*
X754Y505D02*
X759Y505D01*
X1023Y505D02*
X1030Y505D01*
X0Y504D02*
X7Y504D01*
X244Y504D02*
X247Y504D01*
X256Y504D02*
X290Y504D01*
X460Y504D02*
X463Y504D01*
X753Y504D02*
X759Y504D01*
X1023Y504D02*
X1030Y504D01*
X0Y503D02*
X7Y503D01*
X244Y503D02*
X247Y503D01*
X256Y503D02*
X290Y503D01*
X460Y503D02*
X463Y503D01*
X752Y503D02*
X758Y503D01*
X1023Y503D02*
X1030Y503D01*
X0Y502D02*
X7Y502D01*
X244Y502D02*
X247Y502D01*
X256Y502D02*
X290Y502D01*
X460Y502D02*
X463Y502D01*
X751Y502D02*
X757Y502D01*
X1023Y502D02*
X1030Y502D01*
X0Y501D02*
X7Y501D01*
X244Y501D02*
X247Y501D01*
X256Y501D02*
X290Y501D01*
X460Y501D02*
X463Y501D01*
X750Y501D02*
X756Y501D01*
X1023Y501D02*
X1030Y501D01*
X0Y500D02*
X7Y500D01*
X244Y500D02*
X247Y500D01*
X256Y500D02*
X290Y500D01*
X460Y500D02*
X463Y500D01*
X749Y500D02*
X755Y500D01*
X1023Y500D02*
X1030Y500D01*
X0Y499D02*
X7Y499D01*
X244Y499D02*
X247Y499D01*
X256Y499D02*
X290Y499D01*
X460Y499D02*
X463Y499D01*
X748Y499D02*
X754Y499D01*
X1023Y499D02*
X1030Y499D01*
X0Y498D02*
X7Y498D01*
X244Y498D02*
X247Y498D01*
X256Y498D02*
X290Y498D01*
X460Y498D02*
X463Y498D01*
X747Y498D02*
X753Y498D01*
X1023Y498D02*
X1030Y498D01*
X0Y497D02*
X7Y497D01*
X244Y497D02*
X247Y497D01*
X256Y497D02*
X290Y497D01*
X460Y497D02*
X463Y497D01*
X746Y497D02*
X752Y497D01*
X1023Y497D02*
X1030Y497D01*
X0Y496D02*
X7Y496D01*
X244Y496D02*
X247Y496D01*
X256Y496D02*
X290Y496D01*
X460Y496D02*
X463Y496D01*
X747Y496D02*
X751Y496D01*
X1023Y496D02*
X1030Y496D01*
X0Y495D02*
X7Y495D01*
X244Y495D02*
X247Y495D01*
X256Y495D02*
X290Y495D01*
X460Y495D02*
X463Y495D01*
X748Y495D02*
X750Y495D01*
X1023Y495D02*
X1030Y495D01*
X0Y494D02*
X7Y494D01*
X244Y494D02*
X247Y494D01*
X256Y494D02*
X290Y494D01*
X460Y494D02*
X463Y494D01*
X749Y494D02*
X749Y494D01*
X1023Y494D02*
X1030Y494D01*
X0Y493D02*
X7Y493D01*
X244Y493D02*
X247Y493D01*
X256Y493D02*
X290Y493D01*
X460Y493D02*
X463Y493D01*
X1023Y493D02*
X1030Y493D01*
X0Y492D02*
X7Y492D01*
X244Y492D02*
X247Y492D01*
X256Y492D02*
X290Y492D01*
X460Y492D02*
X463Y492D01*
X1023Y492D02*
X1030Y492D01*
X0Y491D02*
X7Y491D01*
X197Y491D02*
X247Y491D01*
X256Y491D02*
X290Y491D01*
X460Y491D02*
X510Y491D01*
X1023Y491D02*
X1030Y491D01*
X0Y490D02*
X7Y490D01*
X197Y490D02*
X247Y490D01*
X256Y490D02*
X290Y490D01*
X460Y490D02*
X510Y490D01*
X1023Y490D02*
X1030Y490D01*
X0Y489D02*
X7Y489D01*
X197Y489D02*
X247Y489D01*
X256Y489D02*
X290Y489D01*
X460Y489D02*
X510Y489D01*
X1023Y489D02*
X1030Y489D01*
X0Y488D02*
X7Y488D01*
X197Y488D02*
X199Y488D01*
X508Y488D02*
X510Y488D01*
X1023Y488D02*
X1030Y488D01*
X0Y487D02*
X7Y487D01*
X197Y487D02*
X199Y487D01*
X509Y487D02*
X510Y487D01*
X1023Y487D02*
X1030Y487D01*
X0Y486D02*
X7Y486D01*
X197Y486D02*
X199Y486D01*
X509Y486D02*
X510Y486D01*
X1023Y486D02*
X1030Y486D01*
X0Y485D02*
X7Y485D01*
X197Y485D02*
X199Y485D01*
X509Y485D02*
X510Y485D01*
X1023Y485D02*
X1030Y485D01*
X0Y484D02*
X7Y484D01*
X197Y484D02*
X199Y484D01*
X509Y484D02*
X510Y484D01*
X1023Y484D02*
X1030Y484D01*
X0Y483D02*
X7Y483D01*
X197Y483D02*
X199Y483D01*
X509Y483D02*
X510Y483D01*
X1023Y483D02*
X1030Y483D01*
X0Y482D02*
X7Y482D01*
X197Y482D02*
X199Y482D01*
X509Y482D02*
X510Y482D01*
X1023Y482D02*
X1030Y482D01*
X0Y481D02*
X7Y481D01*
X197Y481D02*
X199Y481D01*
X509Y481D02*
X510Y481D01*
X1023Y481D02*
X1030Y481D01*
X0Y480D02*
X7Y480D01*
X197Y480D02*
X199Y480D01*
X509Y480D02*
X510Y480D01*
X1023Y480D02*
X1030Y480D01*
X0Y479D02*
X7Y479D01*
X197Y479D02*
X199Y479D01*
X509Y479D02*
X510Y479D01*
X1023Y479D02*
X1030Y479D01*
X0Y478D02*
X7Y478D01*
X197Y478D02*
X199Y478D01*
X509Y478D02*
X510Y478D01*
X1023Y478D02*
X1030Y478D01*
X0Y477D02*
X7Y477D01*
X197Y477D02*
X199Y477D01*
X509Y477D02*
X510Y477D01*
X1023Y477D02*
X1030Y477D01*
X0Y476D02*
X7Y476D01*
X197Y476D02*
X199Y476D01*
X509Y476D02*
X510Y476D01*
X1023Y476D02*
X1030Y476D01*
X0Y475D02*
X7Y475D01*
X197Y475D02*
X199Y475D01*
X509Y475D02*
X510Y475D01*
X1023Y475D02*
X1030Y475D01*
X0Y474D02*
X7Y474D01*
X197Y474D02*
X199Y474D01*
X509Y474D02*
X510Y474D01*
X1023Y474D02*
X1030Y474D01*
X0Y473D02*
X7Y473D01*
X197Y473D02*
X199Y473D01*
X509Y473D02*
X510Y473D01*
X1023Y473D02*
X1030Y473D01*
X0Y472D02*
X7Y472D01*
X197Y472D02*
X199Y472D01*
X509Y472D02*
X510Y472D01*
X1023Y472D02*
X1030Y472D01*
X0Y471D02*
X7Y471D01*
X197Y471D02*
X199Y471D01*
X509Y471D02*
X510Y471D01*
X1023Y471D02*
X1030Y471D01*
X0Y470D02*
X7Y470D01*
X197Y470D02*
X199Y470D01*
X509Y470D02*
X510Y470D01*
X1023Y470D02*
X1030Y470D01*
X0Y469D02*
X7Y469D01*
X197Y469D02*
X199Y469D01*
X509Y469D02*
X510Y469D01*
X1023Y469D02*
X1030Y469D01*
X0Y468D02*
X7Y468D01*
X197Y468D02*
X199Y468D01*
X509Y468D02*
X510Y468D01*
X1023Y468D02*
X1030Y468D01*
X0Y467D02*
X7Y467D01*
X197Y467D02*
X199Y467D01*
X509Y467D02*
X510Y467D01*
X1023Y467D02*
X1030Y467D01*
X0Y466D02*
X7Y466D01*
X197Y466D02*
X199Y466D01*
X509Y466D02*
X510Y466D01*
X1023Y466D02*
X1030Y466D01*
X0Y465D02*
X7Y465D01*
X197Y465D02*
X199Y465D01*
X509Y465D02*
X510Y465D01*
X1023Y465D02*
X1030Y465D01*
X0Y464D02*
X7Y464D01*
X197Y464D02*
X199Y464D01*
X509Y464D02*
X510Y464D01*
X1023Y464D02*
X1030Y464D01*
X0Y463D02*
X7Y463D01*
X197Y463D02*
X199Y463D01*
X509Y463D02*
X510Y463D01*
X1023Y463D02*
X1030Y463D01*
X0Y462D02*
X7Y462D01*
X197Y462D02*
X199Y462D01*
X509Y462D02*
X510Y462D01*
X1023Y462D02*
X1030Y462D01*
X0Y461D02*
X7Y461D01*
X197Y461D02*
X199Y461D01*
X509Y461D02*
X510Y461D01*
X1023Y461D02*
X1030Y461D01*
X0Y460D02*
X7Y460D01*
X197Y460D02*
X199Y460D01*
X509Y460D02*
X510Y460D01*
X1023Y460D02*
X1030Y460D01*
X0Y459D02*
X7Y459D01*
X197Y459D02*
X199Y459D01*
X509Y459D02*
X510Y459D01*
X1023Y459D02*
X1030Y459D01*
X0Y458D02*
X7Y458D01*
X197Y458D02*
X199Y458D01*
X509Y458D02*
X510Y458D01*
X1023Y458D02*
X1030Y458D01*
X0Y457D02*
X7Y457D01*
X197Y457D02*
X199Y457D01*
X509Y457D02*
X510Y457D01*
X1023Y457D02*
X1030Y457D01*
X0Y456D02*
X7Y456D01*
X197Y456D02*
X199Y456D01*
X509Y456D02*
X510Y456D01*
X1023Y456D02*
X1030Y456D01*
X0Y455D02*
X7Y455D01*
X197Y455D02*
X199Y455D01*
X509Y455D02*
X510Y455D01*
X1023Y455D02*
X1030Y455D01*
X0Y454D02*
X7Y454D01*
X197Y454D02*
X199Y454D01*
X509Y454D02*
X510Y454D01*
X1023Y454D02*
X1030Y454D01*
X0Y453D02*
X7Y453D01*
X197Y453D02*
X199Y453D01*
X509Y453D02*
X510Y453D01*
X1023Y453D02*
X1030Y453D01*
X0Y452D02*
X7Y452D01*
X197Y452D02*
X199Y452D01*
X509Y452D02*
X510Y452D01*
X1023Y452D02*
X1030Y452D01*
X0Y451D02*
X7Y451D01*
X197Y451D02*
X199Y451D01*
X509Y451D02*
X510Y451D01*
X1023Y451D02*
X1030Y451D01*
X0Y450D02*
X7Y450D01*
X197Y450D02*
X199Y450D01*
X509Y450D02*
X510Y450D01*
X1023Y450D02*
X1030Y450D01*
X0Y449D02*
X7Y449D01*
X197Y449D02*
X199Y449D01*
X509Y449D02*
X510Y449D01*
X1023Y449D02*
X1030Y449D01*
X0Y448D02*
X7Y448D01*
X197Y448D02*
X199Y448D01*
X509Y448D02*
X510Y448D01*
X1023Y448D02*
X1030Y448D01*
X0Y447D02*
X7Y447D01*
X197Y447D02*
X199Y447D01*
X509Y447D02*
X510Y447D01*
X1023Y447D02*
X1030Y447D01*
X0Y446D02*
X7Y446D01*
X197Y446D02*
X199Y446D01*
X509Y446D02*
X510Y446D01*
X1023Y446D02*
X1030Y446D01*
X0Y445D02*
X7Y445D01*
X197Y445D02*
X199Y445D01*
X509Y445D02*
X510Y445D01*
X1023Y445D02*
X1030Y445D01*
X0Y444D02*
X7Y444D01*
X197Y444D02*
X199Y444D01*
X509Y444D02*
X510Y444D01*
X1023Y444D02*
X1030Y444D01*
X0Y443D02*
X7Y443D01*
X197Y443D02*
X199Y443D01*
X509Y443D02*
X510Y443D01*
X1023Y443D02*
X1030Y443D01*
X0Y442D02*
X7Y442D01*
X197Y442D02*
X199Y442D01*
X509Y442D02*
X510Y442D01*
X1023Y442D02*
X1030Y442D01*
X0Y441D02*
X7Y441D01*
X197Y441D02*
X199Y441D01*
X509Y441D02*
X510Y441D01*
X1023Y441D02*
X1030Y441D01*
X0Y440D02*
X7Y440D01*
X197Y440D02*
X199Y440D01*
X509Y440D02*
X510Y440D01*
X1023Y440D02*
X1030Y440D01*
X0Y439D02*
X7Y439D01*
X197Y439D02*
X199Y439D01*
X509Y439D02*
X510Y439D01*
X1023Y439D02*
X1030Y439D01*
X0Y438D02*
X7Y438D01*
X197Y438D02*
X199Y438D01*
X509Y438D02*
X510Y438D01*
X1023Y438D02*
X1030Y438D01*
X0Y437D02*
X7Y437D01*
X197Y437D02*
X199Y437D01*
X509Y437D02*
X510Y437D01*
X1023Y437D02*
X1030Y437D01*
X0Y436D02*
X7Y436D01*
X197Y436D02*
X199Y436D01*
X509Y436D02*
X510Y436D01*
X1023Y436D02*
X1030Y436D01*
X0Y435D02*
X7Y435D01*
X197Y435D02*
X199Y435D01*
X509Y435D02*
X510Y435D01*
X1023Y435D02*
X1030Y435D01*
X0Y434D02*
X7Y434D01*
X197Y434D02*
X199Y434D01*
X509Y434D02*
X510Y434D01*
X1023Y434D02*
X1030Y434D01*
X0Y433D02*
X7Y433D01*
X197Y433D02*
X199Y433D01*
X509Y433D02*
X510Y433D01*
X1023Y433D02*
X1030Y433D01*
X0Y432D02*
X7Y432D01*
X197Y432D02*
X199Y432D01*
X509Y432D02*
X510Y432D01*
X1023Y432D02*
X1030Y432D01*
X0Y431D02*
X7Y431D01*
X197Y431D02*
X199Y431D01*
X509Y431D02*
X510Y431D01*
X1023Y431D02*
X1030Y431D01*
X0Y430D02*
X7Y430D01*
X197Y430D02*
X199Y430D01*
X509Y430D02*
X510Y430D01*
X1023Y430D02*
X1030Y430D01*
X0Y429D02*
X7Y429D01*
X197Y429D02*
X199Y429D01*
X509Y429D02*
X510Y429D01*
X1023Y429D02*
X1030Y429D01*
X0Y428D02*
X7Y428D01*
X197Y428D02*
X199Y428D01*
X509Y428D02*
X510Y428D01*
X1023Y428D02*
X1030Y428D01*
X0Y427D02*
X7Y427D01*
X197Y427D02*
X199Y427D01*
X509Y427D02*
X510Y427D01*
X1023Y427D02*
X1030Y427D01*
X0Y426D02*
X7Y426D01*
X197Y426D02*
X199Y426D01*
X509Y426D02*
X510Y426D01*
X1023Y426D02*
X1030Y426D01*
X0Y425D02*
X7Y425D01*
X197Y425D02*
X199Y425D01*
X509Y425D02*
X510Y425D01*
X1023Y425D02*
X1030Y425D01*
X0Y424D02*
X7Y424D01*
X197Y424D02*
X199Y424D01*
X509Y424D02*
X510Y424D01*
X1023Y424D02*
X1030Y424D01*
X0Y423D02*
X7Y423D01*
X197Y423D02*
X199Y423D01*
X509Y423D02*
X510Y423D01*
X1023Y423D02*
X1030Y423D01*
X0Y422D02*
X7Y422D01*
X197Y422D02*
X199Y422D01*
X509Y422D02*
X510Y422D01*
X1023Y422D02*
X1030Y422D01*
X0Y421D02*
X7Y421D01*
X197Y421D02*
X199Y421D01*
X509Y421D02*
X510Y421D01*
X1023Y421D02*
X1030Y421D01*
X0Y420D02*
X7Y420D01*
X197Y420D02*
X199Y420D01*
X509Y420D02*
X510Y420D01*
X1023Y420D02*
X1030Y420D01*
X0Y419D02*
X7Y419D01*
X197Y419D02*
X199Y419D01*
X509Y419D02*
X510Y419D01*
X1023Y419D02*
X1030Y419D01*
X0Y418D02*
X7Y418D01*
X197Y418D02*
X199Y418D01*
X509Y418D02*
X510Y418D01*
X1023Y418D02*
X1030Y418D01*
X0Y417D02*
X7Y417D01*
X197Y417D02*
X199Y417D01*
X509Y417D02*
X510Y417D01*
X1023Y417D02*
X1030Y417D01*
X0Y416D02*
X7Y416D01*
X197Y416D02*
X199Y416D01*
X509Y416D02*
X510Y416D01*
X1023Y416D02*
X1030Y416D01*
X0Y415D02*
X7Y415D01*
X197Y415D02*
X199Y415D01*
X509Y415D02*
X510Y415D01*
X1023Y415D02*
X1030Y415D01*
X0Y414D02*
X7Y414D01*
X197Y414D02*
X199Y414D01*
X509Y414D02*
X510Y414D01*
X1023Y414D02*
X1030Y414D01*
X0Y413D02*
X7Y413D01*
X197Y413D02*
X199Y413D01*
X509Y413D02*
X510Y413D01*
X1023Y413D02*
X1030Y413D01*
X0Y412D02*
X7Y412D01*
X197Y412D02*
X199Y412D01*
X509Y412D02*
X510Y412D01*
X1023Y412D02*
X1030Y412D01*
X0Y411D02*
X7Y411D01*
X197Y411D02*
X199Y411D01*
X509Y411D02*
X510Y411D01*
X1023Y411D02*
X1030Y411D01*
X0Y410D02*
X7Y410D01*
X197Y410D02*
X199Y410D01*
X509Y410D02*
X510Y410D01*
X1023Y410D02*
X1030Y410D01*
X0Y409D02*
X7Y409D01*
X197Y409D02*
X199Y409D01*
X509Y409D02*
X510Y409D01*
X1023Y409D02*
X1030Y409D01*
X0Y408D02*
X7Y408D01*
X197Y408D02*
X199Y408D01*
X509Y408D02*
X510Y408D01*
X1023Y408D02*
X1030Y408D01*
X0Y407D02*
X7Y407D01*
X197Y407D02*
X199Y407D01*
X509Y407D02*
X510Y407D01*
X1023Y407D02*
X1030Y407D01*
X0Y406D02*
X7Y406D01*
X197Y406D02*
X199Y406D01*
X509Y406D02*
X510Y406D01*
X1023Y406D02*
X1030Y406D01*
X0Y405D02*
X7Y405D01*
X197Y405D02*
X199Y405D01*
X509Y405D02*
X510Y405D01*
X1023Y405D02*
X1030Y405D01*
X0Y404D02*
X7Y404D01*
X197Y404D02*
X199Y404D01*
X509Y404D02*
X510Y404D01*
X1023Y404D02*
X1030Y404D01*
X0Y403D02*
X7Y403D01*
X197Y403D02*
X199Y403D01*
X509Y403D02*
X510Y403D01*
X1023Y403D02*
X1030Y403D01*
X0Y402D02*
X7Y402D01*
X197Y402D02*
X199Y402D01*
X509Y402D02*
X510Y402D01*
X1023Y402D02*
X1030Y402D01*
X0Y401D02*
X7Y401D01*
X197Y401D02*
X199Y401D01*
X509Y401D02*
X510Y401D01*
X1023Y401D02*
X1030Y401D01*
X0Y400D02*
X7Y400D01*
X197Y400D02*
X199Y400D01*
X509Y400D02*
X510Y400D01*
X1023Y400D02*
X1030Y400D01*
X0Y399D02*
X7Y399D01*
X197Y399D02*
X199Y399D01*
X509Y399D02*
X510Y399D01*
X1023Y399D02*
X1030Y399D01*
X0Y398D02*
X7Y398D01*
X197Y398D02*
X199Y398D01*
X509Y398D02*
X510Y398D01*
X1023Y398D02*
X1030Y398D01*
X0Y397D02*
X7Y397D01*
X197Y397D02*
X199Y397D01*
X509Y397D02*
X510Y397D01*
X1023Y397D02*
X1030Y397D01*
X0Y396D02*
X7Y396D01*
X197Y396D02*
X199Y396D01*
X509Y396D02*
X510Y396D01*
X1023Y396D02*
X1030Y396D01*
X0Y395D02*
X7Y395D01*
X197Y395D02*
X199Y395D01*
X509Y395D02*
X510Y395D01*
X1023Y395D02*
X1030Y395D01*
X0Y394D02*
X7Y394D01*
X197Y394D02*
X199Y394D01*
X509Y394D02*
X510Y394D01*
X1023Y394D02*
X1030Y394D01*
X0Y393D02*
X7Y393D01*
X197Y393D02*
X199Y393D01*
X509Y393D02*
X510Y393D01*
X1023Y393D02*
X1030Y393D01*
X0Y392D02*
X7Y392D01*
X197Y392D02*
X199Y392D01*
X508Y392D02*
X510Y392D01*
X1023Y392D02*
X1030Y392D01*
X0Y391D02*
X7Y391D01*
X197Y391D02*
X247Y391D01*
X256Y391D02*
X290Y391D01*
X460Y391D02*
X510Y391D01*
X1023Y391D02*
X1030Y391D01*
X0Y390D02*
X7Y390D01*
X197Y390D02*
X247Y390D01*
X256Y390D02*
X290Y390D01*
X460Y390D02*
X510Y390D01*
X1023Y390D02*
X1030Y390D01*
X0Y389D02*
X7Y389D01*
X243Y389D02*
X247Y389D01*
X256Y389D02*
X290Y389D01*
X460Y389D02*
X464Y389D01*
X1023Y389D02*
X1030Y389D01*
X0Y388D02*
X7Y388D01*
X244Y388D02*
X247Y388D01*
X256Y388D02*
X290Y388D01*
X460Y388D02*
X463Y388D01*
X1023Y388D02*
X1030Y388D01*
X0Y387D02*
X7Y387D01*
X244Y387D02*
X247Y387D01*
X256Y387D02*
X290Y387D01*
X460Y387D02*
X463Y387D01*
X1023Y387D02*
X1030Y387D01*
X0Y386D02*
X7Y386D01*
X244Y386D02*
X247Y386D01*
X256Y386D02*
X290Y386D01*
X460Y386D02*
X463Y386D01*
X1023Y386D02*
X1030Y386D01*
X0Y385D02*
X7Y385D01*
X244Y385D02*
X247Y385D01*
X256Y385D02*
X290Y385D01*
X460Y385D02*
X463Y385D01*
X1023Y385D02*
X1030Y385D01*
X0Y384D02*
X7Y384D01*
X244Y384D02*
X247Y384D01*
X256Y384D02*
X290Y384D01*
X460Y384D02*
X463Y384D01*
X1023Y384D02*
X1030Y384D01*
X0Y383D02*
X7Y383D01*
X244Y383D02*
X247Y383D01*
X256Y383D02*
X290Y383D01*
X460Y383D02*
X463Y383D01*
X1023Y383D02*
X1030Y383D01*
X0Y382D02*
X7Y382D01*
X244Y382D02*
X247Y382D01*
X256Y382D02*
X290Y382D01*
X460Y382D02*
X463Y382D01*
X1023Y382D02*
X1030Y382D01*
X0Y381D02*
X7Y381D01*
X244Y381D02*
X247Y381D01*
X256Y381D02*
X290Y381D01*
X460Y381D02*
X463Y381D01*
X1023Y381D02*
X1030Y381D01*
X0Y380D02*
X7Y380D01*
X244Y380D02*
X247Y380D01*
X256Y380D02*
X290Y380D01*
X460Y380D02*
X463Y380D01*
X1023Y380D02*
X1030Y380D01*
X0Y379D02*
X7Y379D01*
X244Y379D02*
X247Y379D01*
X256Y379D02*
X290Y379D01*
X460Y379D02*
X463Y379D01*
X1023Y379D02*
X1030Y379D01*
X0Y378D02*
X7Y378D01*
X244Y378D02*
X247Y378D01*
X256Y378D02*
X290Y378D01*
X460Y378D02*
X463Y378D01*
X1023Y378D02*
X1030Y378D01*
X0Y377D02*
X7Y377D01*
X244Y377D02*
X247Y377D01*
X256Y377D02*
X290Y377D01*
X460Y377D02*
X463Y377D01*
X1023Y377D02*
X1030Y377D01*
X0Y376D02*
X7Y376D01*
X244Y376D02*
X247Y376D01*
X256Y376D02*
X290Y376D01*
X460Y376D02*
X463Y376D01*
X1023Y376D02*
X1030Y376D01*
X0Y375D02*
X7Y375D01*
X244Y375D02*
X247Y375D01*
X256Y375D02*
X290Y375D01*
X460Y375D02*
X463Y375D01*
X1023Y375D02*
X1030Y375D01*
X0Y374D02*
X7Y374D01*
X244Y374D02*
X247Y374D01*
X256Y374D02*
X290Y374D01*
X460Y374D02*
X463Y374D01*
X1023Y374D02*
X1030Y374D01*
X0Y373D02*
X7Y373D01*
X244Y373D02*
X247Y373D01*
X256Y373D02*
X290Y373D01*
X460Y373D02*
X463Y373D01*
X1023Y373D02*
X1030Y373D01*
X0Y372D02*
X7Y372D01*
X244Y372D02*
X247Y372D01*
X256Y372D02*
X290Y372D01*
X460Y372D02*
X463Y372D01*
X1023Y372D02*
X1030Y372D01*
X0Y371D02*
X7Y371D01*
X244Y371D02*
X247Y371D01*
X256Y371D02*
X290Y371D01*
X460Y371D02*
X463Y371D01*
X1023Y371D02*
X1030Y371D01*
X0Y370D02*
X7Y370D01*
X244Y370D02*
X247Y370D01*
X256Y370D02*
X290Y370D01*
X460Y370D02*
X463Y370D01*
X1023Y370D02*
X1030Y370D01*
X0Y369D02*
X7Y369D01*
X244Y369D02*
X247Y369D01*
X256Y369D02*
X290Y369D01*
X460Y369D02*
X463Y369D01*
X1023Y369D02*
X1030Y369D01*
X0Y368D02*
X7Y368D01*
X244Y368D02*
X247Y368D01*
X256Y368D02*
X290Y368D01*
X460Y368D02*
X463Y368D01*
X1023Y368D02*
X1030Y368D01*
X0Y367D02*
X7Y367D01*
X244Y367D02*
X463Y367D01*
X1023Y367D02*
X1030Y367D01*
X0Y366D02*
X7Y366D01*
X244Y366D02*
X463Y366D01*
X1023Y366D02*
X1030Y366D01*
X0Y365D02*
X7Y365D01*
X244Y365D02*
X463Y365D01*
X1023Y365D02*
X1030Y365D01*
X0Y364D02*
X7Y364D01*
X244Y364D02*
X463Y364D01*
X1023Y364D02*
X1030Y364D01*
X0Y363D02*
X7Y363D01*
X1023Y363D02*
X1030Y363D01*
X0Y362D02*
X7Y362D01*
X1023Y362D02*
X1030Y362D01*
X0Y361D02*
X7Y361D01*
X1023Y361D02*
X1030Y361D01*
X0Y360D02*
X7Y360D01*
X1023Y360D02*
X1030Y360D01*
X0Y359D02*
X7Y359D01*
X1023Y359D02*
X1030Y359D01*
X0Y358D02*
X7Y358D01*
X1023Y358D02*
X1030Y358D01*
X0Y357D02*
X7Y357D01*
X1023Y357D02*
X1030Y357D01*
X0Y356D02*
X7Y356D01*
X1023Y356D02*
X1030Y356D01*
X0Y355D02*
X7Y355D01*
X1023Y355D02*
X1030Y355D01*
X0Y354D02*
X7Y354D01*
X1023Y354D02*
X1030Y354D01*
X0Y353D02*
X7Y353D01*
X1023Y353D02*
X1030Y353D01*
X0Y352D02*
X7Y352D01*
X1023Y352D02*
X1030Y352D01*
X0Y351D02*
X7Y351D01*
X1023Y351D02*
X1030Y351D01*
X0Y350D02*
X7Y350D01*
X1023Y350D02*
X1030Y350D01*
X0Y349D02*
X7Y349D01*
X1023Y349D02*
X1030Y349D01*
X0Y348D02*
X7Y348D01*
X1023Y348D02*
X1030Y348D01*
X0Y347D02*
X7Y347D01*
X1023Y347D02*
X1030Y347D01*
X0Y346D02*
X7Y346D01*
X1023Y346D02*
X1030Y346D01*
X0Y345D02*
X7Y345D01*
X1023Y345D02*
X1030Y345D01*
X0Y344D02*
X7Y344D01*
X1023Y344D02*
X1030Y344D01*
X0Y343D02*
X7Y343D01*
X1023Y343D02*
X1030Y343D01*
X0Y342D02*
X7Y342D01*
X1023Y342D02*
X1030Y342D01*
X0Y341D02*
X7Y341D01*
X1023Y341D02*
X1030Y341D01*
X0Y340D02*
X7Y340D01*
X1023Y340D02*
X1030Y340D01*
X0Y339D02*
X7Y339D01*
X1023Y339D02*
X1030Y339D01*
X0Y338D02*
X7Y338D01*
X1023Y338D02*
X1030Y338D01*
X0Y337D02*
X7Y337D01*
X1023Y337D02*
X1030Y337D01*
X0Y336D02*
X7Y336D01*
X1023Y336D02*
X1030Y336D01*
X0Y335D02*
X7Y335D01*
X1023Y335D02*
X1030Y335D01*
X0Y334D02*
X7Y334D01*
X1023Y334D02*
X1030Y334D01*
X0Y333D02*
X7Y333D01*
X1023Y333D02*
X1030Y333D01*
X0Y332D02*
X7Y332D01*
X1023Y332D02*
X1030Y332D01*
X0Y331D02*
X7Y331D01*
X1023Y331D02*
X1030Y331D01*
X0Y330D02*
X7Y330D01*
X1023Y330D02*
X1030Y330D01*
X0Y329D02*
X7Y329D01*
X1023Y329D02*
X1030Y329D01*
X0Y328D02*
X7Y328D01*
X1023Y328D02*
X1030Y328D01*
X0Y327D02*
X7Y327D01*
X1023Y327D02*
X1030Y327D01*
X0Y326D02*
X7Y326D01*
X1023Y326D02*
X1030Y326D01*
X0Y325D02*
X7Y325D01*
X1023Y325D02*
X1030Y325D01*
X0Y324D02*
X7Y324D01*
X1023Y324D02*
X1030Y324D01*
X0Y323D02*
X7Y323D01*
X1023Y323D02*
X1030Y323D01*
X0Y322D02*
X7Y322D01*
X1023Y322D02*
X1030Y322D01*
X0Y321D02*
X7Y321D01*
X1023Y321D02*
X1030Y321D01*
X0Y320D02*
X7Y320D01*
X1023Y320D02*
X1030Y320D01*
X0Y319D02*
X7Y319D01*
X1023Y319D02*
X1030Y319D01*
X0Y318D02*
X7Y318D01*
X1023Y318D02*
X1030Y318D01*
X0Y317D02*
X7Y317D01*
X1023Y317D02*
X1030Y317D01*
X0Y316D02*
X7Y316D01*
X1023Y316D02*
X1030Y316D01*
X0Y315D02*
X7Y315D01*
X1023Y315D02*
X1030Y315D01*
X0Y314D02*
X7Y314D01*
X1023Y314D02*
X1030Y314D01*
X0Y313D02*
X7Y313D01*
X1023Y313D02*
X1030Y313D01*
X0Y312D02*
X7Y312D01*
X1023Y312D02*
X1030Y312D01*
X0Y311D02*
X7Y311D01*
X1023Y311D02*
X1030Y311D01*
X0Y310D02*
X7Y310D01*
X1023Y310D02*
X1030Y310D01*
X0Y309D02*
X7Y309D01*
X1023Y309D02*
X1030Y309D01*
X0Y308D02*
X7Y308D01*
X1023Y308D02*
X1030Y308D01*
X0Y307D02*
X7Y307D01*
X1023Y307D02*
X1030Y307D01*
X0Y306D02*
X7Y306D01*
X1023Y306D02*
X1030Y306D01*
X0Y305D02*
X7Y305D01*
X1023Y305D02*
X1030Y305D01*
X0Y304D02*
X7Y304D01*
X1023Y304D02*
X1030Y304D01*
X0Y303D02*
X7Y303D01*
X1023Y303D02*
X1030Y303D01*
X0Y302D02*
X7Y302D01*
X1023Y302D02*
X1030Y302D01*
X0Y301D02*
X7Y301D01*
X1023Y301D02*
X1030Y301D01*
X0Y300D02*
X7Y300D01*
X1023Y300D02*
X1030Y300D01*
X0Y299D02*
X7Y299D01*
X1023Y299D02*
X1030Y299D01*
X0Y298D02*
X7Y298D01*
X1023Y298D02*
X1030Y298D01*
X0Y297D02*
X7Y297D01*
X1023Y297D02*
X1030Y297D01*
X0Y296D02*
X7Y296D01*
X1023Y296D02*
X1030Y296D01*
X0Y295D02*
X7Y295D01*
X1023Y295D02*
X1030Y295D01*
X0Y294D02*
X7Y294D01*
X1023Y294D02*
X1030Y294D01*
X0Y293D02*
X7Y293D01*
X1023Y293D02*
X1030Y293D01*
X0Y292D02*
X7Y292D01*
X1023Y292D02*
X1030Y292D01*
X0Y291D02*
X7Y291D01*
X1023Y291D02*
X1030Y291D01*
X0Y290D02*
X7Y290D01*
X1023Y290D02*
X1030Y290D01*
X0Y289D02*
X7Y289D01*
X1023Y289D02*
X1030Y289D01*
X0Y288D02*
X7Y288D01*
X1023Y288D02*
X1030Y288D01*
X0Y287D02*
X7Y287D01*
X1023Y287D02*
X1030Y287D01*
X0Y286D02*
X7Y286D01*
X1023Y286D02*
X1030Y286D01*
X0Y285D02*
X7Y285D01*
X1023Y285D02*
X1030Y285D01*
X0Y284D02*
X7Y284D01*
X1023Y284D02*
X1030Y284D01*
X0Y283D02*
X7Y283D01*
X1023Y283D02*
X1030Y283D01*
X0Y282D02*
X7Y282D01*
X1023Y282D02*
X1030Y282D01*
X0Y281D02*
X7Y281D01*
X1023Y281D02*
X1030Y281D01*
X0Y280D02*
X7Y280D01*
X1023Y280D02*
X1030Y280D01*
X0Y279D02*
X7Y279D01*
X204Y279D02*
X600Y279D01*
X1023Y279D02*
X1030Y279D01*
X0Y278D02*
X7Y278D01*
X204Y278D02*
X600Y278D01*
X1023Y278D02*
X1030Y278D01*
X0Y277D02*
X7Y277D01*
X203Y277D02*
X600Y277D01*
X1023Y277D02*
X1030Y277D01*
X0Y276D02*
X7Y276D01*
X203Y276D02*
X600Y276D01*
X1023Y276D02*
X1030Y276D01*
X0Y275D02*
X7Y275D01*
X202Y275D02*
X600Y275D01*
X1023Y275D02*
X1030Y275D01*
X0Y274D02*
X7Y274D01*
X201Y274D02*
X600Y274D01*
X1023Y274D02*
X1030Y274D01*
X0Y273D02*
X7Y273D01*
X201Y273D02*
X600Y273D01*
X1023Y273D02*
X1030Y273D01*
X0Y272D02*
X7Y272D01*
X200Y272D02*
X600Y272D01*
X1023Y272D02*
X1030Y272D01*
X0Y271D02*
X7Y271D01*
X199Y271D02*
X600Y271D01*
X1023Y271D02*
X1030Y271D01*
X0Y270D02*
X7Y270D01*
X198Y270D02*
X600Y270D01*
X1023Y270D02*
X1030Y270D01*
X0Y269D02*
X7Y269D01*
X197Y269D02*
X206Y269D01*
X1023Y269D02*
X1030Y269D01*
X0Y268D02*
X7Y268D01*
X197Y268D02*
X206Y268D01*
X1023Y268D02*
X1030Y268D01*
X0Y267D02*
X7Y267D01*
X197Y267D02*
X206Y267D01*
X1023Y267D02*
X1030Y267D01*
X0Y266D02*
X7Y266D01*
X197Y266D02*
X206Y266D01*
X1023Y266D02*
X1030Y266D01*
X0Y265D02*
X7Y265D01*
X197Y265D02*
X206Y265D01*
X1023Y265D02*
X1030Y265D01*
X0Y264D02*
X7Y264D01*
X197Y264D02*
X206Y264D01*
X1023Y264D02*
X1030Y264D01*
X0Y263D02*
X7Y263D01*
X197Y263D02*
X206Y263D01*
X1023Y263D02*
X1030Y263D01*
X0Y262D02*
X7Y262D01*
X197Y262D02*
X206Y262D01*
X1023Y262D02*
X1030Y262D01*
X0Y261D02*
X7Y261D01*
X197Y261D02*
X206Y261D01*
X1023Y261D02*
X1030Y261D01*
X0Y260D02*
X7Y260D01*
X197Y260D02*
X206Y260D01*
X1023Y260D02*
X1030Y260D01*
X0Y259D02*
X7Y259D01*
X197Y259D02*
X206Y259D01*
X1023Y259D02*
X1030Y259D01*
X0Y258D02*
X7Y258D01*
X197Y258D02*
X206Y258D01*
X1023Y258D02*
X1030Y258D01*
X0Y257D02*
X7Y257D01*
X197Y257D02*
X206Y257D01*
X1023Y257D02*
X1030Y257D01*
X0Y256D02*
X7Y256D01*
X197Y256D02*
X206Y256D01*
X1023Y256D02*
X1030Y256D01*
X0Y255D02*
X7Y255D01*
X197Y255D02*
X206Y255D01*
X1023Y255D02*
X1030Y255D01*
X0Y254D02*
X7Y254D01*
X197Y254D02*
X206Y254D01*
X1023Y254D02*
X1030Y254D01*
X0Y253D02*
X7Y253D01*
X197Y253D02*
X206Y253D01*
X1023Y253D02*
X1030Y253D01*
X0Y252D02*
X7Y252D01*
X197Y252D02*
X206Y252D01*
X1023Y252D02*
X1030Y252D01*
X0Y251D02*
X7Y251D01*
X197Y251D02*
X206Y251D01*
X1023Y251D02*
X1030Y251D01*
X0Y250D02*
X7Y250D01*
X197Y250D02*
X206Y250D01*
X1023Y250D02*
X1030Y250D01*
X0Y249D02*
X7Y249D01*
X197Y249D02*
X206Y249D01*
X1023Y249D02*
X1030Y249D01*
X0Y248D02*
X7Y248D01*
X197Y248D02*
X206Y248D01*
X1023Y248D02*
X1030Y248D01*
X0Y247D02*
X7Y247D01*
X197Y247D02*
X206Y247D01*
X1023Y247D02*
X1030Y247D01*
X0Y246D02*
X7Y246D01*
X197Y246D02*
X206Y246D01*
X1023Y246D02*
X1030Y246D01*
X0Y245D02*
X7Y245D01*
X197Y245D02*
X206Y245D01*
X1023Y245D02*
X1030Y245D01*
X0Y244D02*
X7Y244D01*
X197Y244D02*
X206Y244D01*
X1023Y244D02*
X1030Y244D01*
X0Y243D02*
X7Y243D01*
X197Y243D02*
X206Y243D01*
X1023Y243D02*
X1030Y243D01*
X0Y242D02*
X7Y242D01*
X197Y242D02*
X206Y242D01*
X1023Y242D02*
X1030Y242D01*
X0Y241D02*
X7Y241D01*
X197Y241D02*
X206Y241D01*
X1023Y241D02*
X1030Y241D01*
X0Y240D02*
X7Y240D01*
X197Y240D02*
X206Y240D01*
X1023Y240D02*
X1030Y240D01*
X0Y239D02*
X7Y239D01*
X197Y239D02*
X206Y239D01*
X1023Y239D02*
X1030Y239D01*
X0Y238D02*
X7Y238D01*
X197Y238D02*
X206Y238D01*
X1023Y238D02*
X1030Y238D01*
X0Y237D02*
X7Y237D01*
X197Y237D02*
X206Y237D01*
X1023Y237D02*
X1030Y237D01*
X0Y236D02*
X7Y236D01*
X197Y236D02*
X206Y236D01*
X1023Y236D02*
X1030Y236D01*
X0Y235D02*
X7Y235D01*
X197Y235D02*
X206Y235D01*
X1023Y235D02*
X1030Y235D01*
X0Y234D02*
X7Y234D01*
X197Y234D02*
X206Y234D01*
X1023Y234D02*
X1030Y234D01*
X0Y233D02*
X7Y233D01*
X197Y233D02*
X206Y233D01*
X1023Y233D02*
X1030Y233D01*
X0Y232D02*
X7Y232D01*
X197Y232D02*
X206Y232D01*
X1023Y232D02*
X1030Y232D01*
X0Y231D02*
X7Y231D01*
X197Y231D02*
X206Y231D01*
X1023Y231D02*
X1030Y231D01*
X0Y230D02*
X7Y230D01*
X197Y230D02*
X206Y230D01*
X1023Y230D02*
X1030Y230D01*
X0Y229D02*
X7Y229D01*
X197Y229D02*
X206Y229D01*
X1023Y229D02*
X1030Y229D01*
X0Y228D02*
X7Y228D01*
X197Y228D02*
X206Y228D01*
X1023Y228D02*
X1030Y228D01*
X0Y227D02*
X7Y227D01*
X197Y227D02*
X206Y227D01*
X1023Y227D02*
X1030Y227D01*
X0Y226D02*
X7Y226D01*
X197Y226D02*
X206Y226D01*
X1023Y226D02*
X1030Y226D01*
X0Y225D02*
X7Y225D01*
X197Y225D02*
X206Y225D01*
X1023Y225D02*
X1030Y225D01*
X0Y224D02*
X7Y224D01*
X197Y224D02*
X206Y224D01*
X1023Y224D02*
X1030Y224D01*
X0Y223D02*
X7Y223D01*
X197Y223D02*
X206Y223D01*
X1023Y223D02*
X1030Y223D01*
X0Y222D02*
X7Y222D01*
X197Y222D02*
X206Y222D01*
X1023Y222D02*
X1030Y222D01*
X0Y221D02*
X7Y221D01*
X197Y221D02*
X206Y221D01*
X1023Y221D02*
X1030Y221D01*
X0Y220D02*
X7Y220D01*
X197Y220D02*
X206Y220D01*
X1023Y220D02*
X1030Y220D01*
X0Y219D02*
X7Y219D01*
X197Y219D02*
X206Y219D01*
X1023Y219D02*
X1030Y219D01*
X0Y218D02*
X7Y218D01*
X197Y218D02*
X206Y218D01*
X1023Y218D02*
X1030Y218D01*
X0Y217D02*
X7Y217D01*
X197Y217D02*
X206Y217D01*
X1023Y217D02*
X1030Y217D01*
X0Y216D02*
X7Y216D01*
X197Y216D02*
X206Y216D01*
X1023Y216D02*
X1030Y216D01*
X0Y215D02*
X7Y215D01*
X197Y215D02*
X206Y215D01*
X1023Y215D02*
X1030Y215D01*
X0Y214D02*
X7Y214D01*
X197Y214D02*
X206Y214D01*
X1023Y214D02*
X1030Y214D01*
X0Y213D02*
X7Y213D01*
X197Y213D02*
X206Y213D01*
X1023Y213D02*
X1030Y213D01*
X0Y212D02*
X7Y212D01*
X197Y212D02*
X206Y212D01*
X1023Y212D02*
X1030Y212D01*
X0Y211D02*
X7Y211D01*
X197Y211D02*
X206Y211D01*
X1023Y211D02*
X1030Y211D01*
X0Y210D02*
X7Y210D01*
X197Y210D02*
X206Y210D01*
X1023Y210D02*
X1030Y210D01*
X0Y209D02*
X7Y209D01*
X197Y209D02*
X206Y209D01*
X1023Y209D02*
X1030Y209D01*
X0Y208D02*
X7Y208D01*
X197Y208D02*
X206Y208D01*
X1023Y208D02*
X1030Y208D01*
X0Y207D02*
X7Y207D01*
X197Y207D02*
X206Y207D01*
X1023Y207D02*
X1030Y207D01*
X0Y206D02*
X7Y206D01*
X197Y206D02*
X206Y206D01*
X1023Y206D02*
X1030Y206D01*
X0Y205D02*
X7Y205D01*
X197Y205D02*
X206Y205D01*
X1023Y205D02*
X1030Y205D01*
X0Y204D02*
X7Y204D01*
X197Y204D02*
X206Y204D01*
X1023Y204D02*
X1030Y204D01*
X0Y203D02*
X7Y203D01*
X197Y203D02*
X206Y203D01*
X1023Y203D02*
X1030Y203D01*
X0Y202D02*
X7Y202D01*
X197Y202D02*
X206Y202D01*
X1023Y202D02*
X1030Y202D01*
X0Y201D02*
X7Y201D01*
X197Y201D02*
X206Y201D01*
X1023Y201D02*
X1030Y201D01*
X0Y200D02*
X7Y200D01*
X197Y200D02*
X206Y200D01*
X1023Y200D02*
X1030Y200D01*
X0Y199D02*
X7Y199D01*
X197Y199D02*
X206Y199D01*
X1023Y199D02*
X1030Y199D01*
X0Y198D02*
X7Y198D01*
X197Y198D02*
X206Y198D01*
X1023Y198D02*
X1030Y198D01*
X0Y197D02*
X7Y197D01*
X197Y197D02*
X206Y197D01*
X1023Y197D02*
X1030Y197D01*
X0Y196D02*
X7Y196D01*
X197Y196D02*
X206Y196D01*
X1023Y196D02*
X1030Y196D01*
X0Y195D02*
X7Y195D01*
X197Y195D02*
X206Y195D01*
X1023Y195D02*
X1030Y195D01*
X0Y194D02*
X7Y194D01*
X197Y194D02*
X206Y194D01*
X1023Y194D02*
X1030Y194D01*
X0Y193D02*
X7Y193D01*
X197Y193D02*
X206Y193D01*
X1023Y193D02*
X1030Y193D01*
X0Y192D02*
X7Y192D01*
X197Y192D02*
X206Y192D01*
X1023Y192D02*
X1030Y192D01*
X0Y191D02*
X7Y191D01*
X197Y191D02*
X206Y191D01*
X1023Y191D02*
X1030Y191D01*
X0Y190D02*
X7Y190D01*
X197Y190D02*
X206Y190D01*
X1023Y190D02*
X1030Y190D01*
X0Y189D02*
X7Y189D01*
X197Y189D02*
X206Y189D01*
X1023Y189D02*
X1030Y189D01*
X0Y188D02*
X7Y188D01*
X197Y188D02*
X206Y188D01*
X1023Y188D02*
X1030Y188D01*
X0Y187D02*
X7Y187D01*
X197Y187D02*
X206Y187D01*
X1023Y187D02*
X1030Y187D01*
X0Y186D02*
X7Y186D01*
X197Y186D02*
X206Y186D01*
X1023Y186D02*
X1030Y186D01*
X0Y185D02*
X7Y185D01*
X197Y185D02*
X206Y185D01*
X1023Y185D02*
X1030Y185D01*
X0Y184D02*
X7Y184D01*
X197Y184D02*
X206Y184D01*
X1023Y184D02*
X1030Y184D01*
X0Y183D02*
X7Y183D01*
X197Y183D02*
X206Y183D01*
X1023Y183D02*
X1030Y183D01*
X0Y182D02*
X7Y182D01*
X197Y182D02*
X206Y182D01*
X1023Y182D02*
X1030Y182D01*
X0Y181D02*
X7Y181D01*
X197Y181D02*
X206Y181D01*
X1023Y181D02*
X1030Y181D01*
X0Y180D02*
X7Y180D01*
X197Y180D02*
X206Y180D01*
X1023Y180D02*
X1030Y180D01*
X0Y179D02*
X7Y179D01*
X197Y179D02*
X206Y179D01*
X1023Y179D02*
X1030Y179D01*
X0Y178D02*
X7Y178D01*
X197Y178D02*
X206Y178D01*
X1023Y178D02*
X1030Y178D01*
X0Y177D02*
X7Y177D01*
X197Y177D02*
X206Y177D01*
X1023Y177D02*
X1030Y177D01*
X0Y176D02*
X7Y176D01*
X197Y176D02*
X206Y176D01*
X1023Y176D02*
X1030Y176D01*
X0Y175D02*
X7Y175D01*
X197Y175D02*
X206Y175D01*
X1023Y175D02*
X1030Y175D01*
X0Y174D02*
X7Y174D01*
X197Y174D02*
X206Y174D01*
X1023Y174D02*
X1030Y174D01*
X0Y173D02*
X7Y173D01*
X197Y173D02*
X206Y173D01*
X1023Y173D02*
X1030Y173D01*
X0Y172D02*
X7Y172D01*
X197Y172D02*
X206Y172D01*
X1023Y172D02*
X1030Y172D01*
X0Y171D02*
X7Y171D01*
X197Y171D02*
X206Y171D01*
X1023Y171D02*
X1030Y171D01*
X0Y170D02*
X7Y170D01*
X197Y170D02*
X206Y170D01*
X1023Y170D02*
X1030Y170D01*
X0Y169D02*
X7Y169D01*
X197Y169D02*
X206Y169D01*
X1023Y169D02*
X1030Y169D01*
X0Y168D02*
X7Y168D01*
X197Y168D02*
X206Y168D01*
X1023Y168D02*
X1030Y168D01*
X0Y167D02*
X7Y167D01*
X197Y167D02*
X206Y167D01*
X1023Y167D02*
X1030Y167D01*
X0Y166D02*
X7Y166D01*
X197Y166D02*
X206Y166D01*
X1023Y166D02*
X1030Y166D01*
X0Y165D02*
X7Y165D01*
X197Y165D02*
X206Y165D01*
X1023Y165D02*
X1030Y165D01*
X0Y164D02*
X7Y164D01*
X197Y164D02*
X206Y164D01*
X1023Y164D02*
X1030Y164D01*
X0Y163D02*
X7Y163D01*
X197Y163D02*
X206Y163D01*
X1023Y163D02*
X1030Y163D01*
X0Y162D02*
X7Y162D01*
X197Y162D02*
X206Y162D01*
X1023Y162D02*
X1030Y162D01*
X0Y161D02*
X7Y161D01*
X197Y161D02*
X206Y161D01*
X1023Y161D02*
X1030Y161D01*
X0Y160D02*
X7Y160D01*
X197Y160D02*
X206Y160D01*
X1023Y160D02*
X1030Y160D01*
X0Y159D02*
X7Y159D01*
X197Y159D02*
X206Y159D01*
X1023Y159D02*
X1030Y159D01*
X0Y158D02*
X7Y158D01*
X197Y158D02*
X206Y158D01*
X1023Y158D02*
X1030Y158D01*
X0Y157D02*
X7Y157D01*
X197Y157D02*
X206Y157D01*
X1023Y157D02*
X1030Y157D01*
X0Y156D02*
X7Y156D01*
X197Y156D02*
X206Y156D01*
X1023Y156D02*
X1030Y156D01*
X0Y155D02*
X7Y155D01*
X197Y155D02*
X206Y155D01*
X1023Y155D02*
X1030Y155D01*
X0Y154D02*
X7Y154D01*
X197Y154D02*
X206Y154D01*
X1023Y154D02*
X1030Y154D01*
X0Y153D02*
X7Y153D01*
X197Y153D02*
X206Y153D01*
X1023Y153D02*
X1030Y153D01*
X0Y152D02*
X7Y152D01*
X197Y152D02*
X206Y152D01*
X1023Y152D02*
X1030Y152D01*
X0Y151D02*
X7Y151D01*
X197Y151D02*
X206Y151D01*
X1023Y151D02*
X1030Y151D01*
X0Y150D02*
X7Y150D01*
X197Y150D02*
X206Y150D01*
X1023Y150D02*
X1030Y150D01*
X0Y149D02*
X7Y149D01*
X197Y149D02*
X206Y149D01*
X1023Y149D02*
X1030Y149D01*
X0Y148D02*
X7Y148D01*
X197Y148D02*
X206Y148D01*
X1023Y148D02*
X1030Y148D01*
X0Y147D02*
X7Y147D01*
X197Y147D02*
X206Y147D01*
X1023Y147D02*
X1030Y147D01*
X0Y146D02*
X7Y146D01*
X197Y146D02*
X206Y146D01*
X1023Y146D02*
X1030Y146D01*
X0Y145D02*
X7Y145D01*
X197Y145D02*
X206Y145D01*
X1023Y145D02*
X1030Y145D01*
X0Y144D02*
X7Y144D01*
X197Y144D02*
X206Y144D01*
X1023Y144D02*
X1030Y144D01*
X0Y143D02*
X7Y143D01*
X197Y143D02*
X206Y143D01*
X1023Y143D02*
X1030Y143D01*
X0Y142D02*
X7Y142D01*
X197Y142D02*
X206Y142D01*
X1023Y142D02*
X1030Y142D01*
X0Y141D02*
X7Y141D01*
X197Y141D02*
X206Y141D01*
X1023Y141D02*
X1030Y141D01*
X0Y140D02*
X7Y140D01*
X197Y140D02*
X206Y140D01*
X1023Y140D02*
X1030Y140D01*
X0Y139D02*
X7Y139D01*
X197Y139D02*
X206Y139D01*
X1023Y139D02*
X1030Y139D01*
X0Y138D02*
X7Y138D01*
X197Y138D02*
X206Y138D01*
X1023Y138D02*
X1030Y138D01*
X0Y137D02*
X7Y137D01*
X197Y137D02*
X206Y137D01*
X1023Y137D02*
X1030Y137D01*
X0Y136D02*
X7Y136D01*
X197Y136D02*
X206Y136D01*
X1023Y136D02*
X1030Y136D01*
X0Y135D02*
X7Y135D01*
X197Y135D02*
X206Y135D01*
X1023Y135D02*
X1030Y135D01*
X0Y134D02*
X7Y134D01*
X197Y134D02*
X206Y134D01*
X1023Y134D02*
X1030Y134D01*
X0Y133D02*
X7Y133D01*
X197Y133D02*
X206Y133D01*
X1023Y133D02*
X1030Y133D01*
X0Y132D02*
X7Y132D01*
X197Y132D02*
X206Y132D01*
X1023Y132D02*
X1030Y132D01*
X0Y131D02*
X7Y131D01*
X197Y131D02*
X206Y131D01*
X1023Y131D02*
X1030Y131D01*
X0Y130D02*
X7Y130D01*
X197Y130D02*
X206Y130D01*
X1023Y130D02*
X1030Y130D01*
X0Y129D02*
X7Y129D01*
X197Y129D02*
X206Y129D01*
X1023Y129D02*
X1030Y129D01*
X0Y128D02*
X7Y128D01*
X197Y128D02*
X206Y128D01*
X1023Y128D02*
X1030Y128D01*
X0Y127D02*
X7Y127D01*
X197Y127D02*
X206Y127D01*
X1023Y127D02*
X1030Y127D01*
X0Y126D02*
X7Y126D01*
X197Y126D02*
X206Y126D01*
X1023Y126D02*
X1030Y126D01*
X0Y125D02*
X7Y125D01*
X197Y125D02*
X206Y125D01*
X1023Y125D02*
X1030Y125D01*
X0Y124D02*
X7Y124D01*
X197Y124D02*
X206Y124D01*
X1023Y124D02*
X1030Y124D01*
X0Y123D02*
X7Y123D01*
X197Y123D02*
X206Y123D01*
X1023Y123D02*
X1030Y123D01*
X0Y122D02*
X7Y122D01*
X197Y122D02*
X206Y122D01*
X1023Y122D02*
X1030Y122D01*
X0Y121D02*
X7Y121D01*
X197Y121D02*
X206Y121D01*
X1023Y121D02*
X1030Y121D01*
X0Y120D02*
X7Y120D01*
X197Y120D02*
X206Y120D01*
X1023Y120D02*
X1030Y120D01*
X0Y119D02*
X7Y119D01*
X197Y119D02*
X206Y119D01*
X1023Y119D02*
X1030Y119D01*
X0Y118D02*
X7Y118D01*
X197Y118D02*
X206Y118D01*
X1023Y118D02*
X1030Y118D01*
X0Y117D02*
X7Y117D01*
X197Y117D02*
X206Y117D01*
X1023Y117D02*
X1030Y117D01*
X0Y116D02*
X7Y116D01*
X197Y116D02*
X206Y116D01*
X1023Y116D02*
X1030Y116D01*
X0Y115D02*
X7Y115D01*
X197Y115D02*
X206Y115D01*
X1023Y115D02*
X1030Y115D01*
X0Y114D02*
X7Y114D01*
X197Y114D02*
X206Y114D01*
X1023Y114D02*
X1030Y114D01*
X0Y113D02*
X7Y113D01*
X197Y113D02*
X206Y113D01*
X1023Y113D02*
X1030Y113D01*
X0Y112D02*
X7Y112D01*
X197Y112D02*
X206Y112D01*
X1023Y112D02*
X1030Y112D01*
X0Y111D02*
X7Y111D01*
X197Y111D02*
X206Y111D01*
X1023Y111D02*
X1030Y111D01*
X0Y110D02*
X7Y110D01*
X197Y110D02*
X206Y110D01*
X1023Y110D02*
X1030Y110D01*
X0Y109D02*
X7Y109D01*
X197Y109D02*
X206Y109D01*
X1023Y109D02*
X1030Y109D01*
X0Y108D02*
X7Y108D01*
X197Y108D02*
X206Y108D01*
X1023Y108D02*
X1030Y108D01*
X0Y107D02*
X7Y107D01*
X197Y107D02*
X206Y107D01*
X1023Y107D02*
X1030Y107D01*
X0Y106D02*
X7Y106D01*
X197Y106D02*
X206Y106D01*
X1023Y106D02*
X1030Y106D01*
X0Y105D02*
X7Y105D01*
X197Y105D02*
X206Y105D01*
X1023Y105D02*
X1030Y105D01*
X0Y104D02*
X7Y104D01*
X197Y104D02*
X206Y104D01*
X1023Y104D02*
X1030Y104D01*
X0Y103D02*
X7Y103D01*
X197Y103D02*
X206Y103D01*
X1023Y103D02*
X1030Y103D01*
X0Y102D02*
X7Y102D01*
X197Y102D02*
X206Y102D01*
X1023Y102D02*
X1030Y102D01*
X0Y101D02*
X7Y101D01*
X197Y101D02*
X206Y101D01*
X1023Y101D02*
X1030Y101D01*
X0Y100D02*
X7Y100D01*
X197Y100D02*
X206Y100D01*
X1023Y100D02*
X1030Y100D01*
X0Y99D02*
X7Y99D01*
X197Y99D02*
X206Y99D01*
X1023Y99D02*
X1030Y99D01*
X0Y98D02*
X7Y98D01*
X197Y98D02*
X206Y98D01*
X1023Y98D02*
X1030Y98D01*
X0Y97D02*
X7Y97D01*
X197Y97D02*
X206Y97D01*
X1023Y97D02*
X1030Y97D01*
X0Y96D02*
X7Y96D01*
X197Y96D02*
X206Y96D01*
X1023Y96D02*
X1030Y96D01*
X0Y95D02*
X7Y95D01*
X197Y95D02*
X206Y95D01*
X1023Y95D02*
X1030Y95D01*
X0Y94D02*
X7Y94D01*
X197Y94D02*
X206Y94D01*
X1023Y94D02*
X1030Y94D01*
X0Y93D02*
X7Y93D01*
X197Y93D02*
X206Y93D01*
X1023Y93D02*
X1030Y93D01*
X0Y92D02*
X7Y92D01*
X197Y92D02*
X206Y92D01*
X1023Y92D02*
X1030Y92D01*
X0Y91D02*
X7Y91D01*
X197Y91D02*
X206Y91D01*
X1023Y91D02*
X1030Y91D01*
X0Y90D02*
X7Y90D01*
X197Y90D02*
X206Y90D01*
X1023Y90D02*
X1030Y90D01*
X0Y89D02*
X7Y89D01*
X197Y89D02*
X206Y89D01*
X1023Y89D02*
X1030Y89D01*
X0Y88D02*
X7Y88D01*
X197Y88D02*
X206Y88D01*
X1023Y88D02*
X1030Y88D01*
X0Y87D02*
X7Y87D01*
X197Y87D02*
X206Y87D01*
X1023Y87D02*
X1030Y87D01*
X0Y86D02*
X7Y86D01*
X197Y86D02*
X206Y86D01*
X1023Y86D02*
X1030Y86D01*
X0Y85D02*
X7Y85D01*
X197Y85D02*
X206Y85D01*
X1023Y85D02*
X1030Y85D01*
X0Y84D02*
X7Y84D01*
X197Y84D02*
X206Y84D01*
X1023Y84D02*
X1030Y84D01*
X0Y83D02*
X7Y83D01*
X197Y83D02*
X206Y83D01*
X1023Y83D02*
X1030Y83D01*
X0Y82D02*
X7Y82D01*
X197Y82D02*
X206Y82D01*
X1023Y82D02*
X1030Y82D01*
X0Y81D02*
X7Y81D01*
X197Y81D02*
X206Y81D01*
X1023Y81D02*
X1030Y81D01*
X0Y80D02*
X7Y80D01*
X197Y80D02*
X206Y80D01*
X1023Y80D02*
X1030Y80D01*
X0Y79D02*
X7Y79D01*
X197Y79D02*
X206Y79D01*
X1023Y79D02*
X1030Y79D01*
X0Y78D02*
X7Y78D01*
X197Y78D02*
X206Y78D01*
X1023Y78D02*
X1030Y78D01*
X0Y77D02*
X7Y77D01*
X197Y77D02*
X206Y77D01*
X1023Y77D02*
X1030Y77D01*
X0Y76D02*
X7Y76D01*
X197Y76D02*
X206Y76D01*
X1023Y76D02*
X1030Y76D01*
X0Y75D02*
X7Y75D01*
X197Y75D02*
X206Y75D01*
X1023Y75D02*
X1030Y75D01*
X0Y74D02*
X7Y74D01*
X1023Y74D02*
X1030Y74D01*
X0Y73D02*
X7Y73D01*
X1023Y73D02*
X1030Y73D01*
X0Y72D02*
X7Y72D01*
X1023Y72D02*
X1030Y72D01*
X0Y71D02*
X7Y71D01*
X1023Y71D02*
X1030Y71D01*
X0Y70D02*
X7Y70D01*
X1023Y70D02*
X1030Y70D01*
X0Y69D02*
X7Y69D01*
X1023Y69D02*
X1030Y69D01*
X0Y68D02*
X7Y68D01*
X1023Y68D02*
X1030Y68D01*
X0Y67D02*
X7Y67D01*
X1023Y67D02*
X1030Y67D01*
X0Y66D02*
X7Y66D01*
X1023Y66D02*
X1030Y66D01*
X0Y65D02*
X7Y65D01*
X1023Y65D02*
X1030Y65D01*
X0Y64D02*
X7Y64D01*
X1023Y64D02*
X1030Y64D01*
X0Y63D02*
X7Y63D01*
X1023Y63D02*
X1030Y63D01*
X0Y62D02*
X7Y62D01*
X1023Y62D02*
X1030Y62D01*
X0Y61D02*
X7Y61D01*
X1023Y61D02*
X1030Y61D01*
X0Y60D02*
X7Y60D01*
X1023Y60D02*
X1030Y60D01*
X0Y59D02*
X7Y59D01*
X1023Y59D02*
X1030Y59D01*
X0Y58D02*
X7Y58D01*
X1023Y58D02*
X1030Y58D01*
X0Y57D02*
X7Y57D01*
X1023Y57D02*
X1030Y57D01*
X0Y56D02*
X7Y56D01*
X1023Y56D02*
X1030Y56D01*
X0Y55D02*
X7Y55D01*
X1023Y55D02*
X1030Y55D01*
X0Y54D02*
X7Y54D01*
X1023Y54D02*
X1030Y54D01*
X0Y53D02*
X7Y53D01*
X1023Y53D02*
X1030Y53D01*
X0Y52D02*
X7Y52D01*
X1023Y52D02*
X1030Y52D01*
X0Y51D02*
X7Y51D01*
X1023Y51D02*
X1030Y51D01*
X0Y50D02*
X7Y50D01*
X1023Y50D02*
X1030Y50D01*
X0Y49D02*
X7Y49D01*
X1023Y49D02*
X1030Y49D01*
X0Y48D02*
X7Y48D01*
X1023Y48D02*
X1030Y48D01*
X0Y47D02*
X7Y47D01*
X1023Y47D02*
X1030Y47D01*
X0Y46D02*
X7Y46D01*
X1023Y46D02*
X1030Y46D01*
X0Y45D02*
X7Y45D01*
X1023Y45D02*
X1030Y45D01*
X0Y44D02*
X7Y44D01*
X1023Y44D02*
X1030Y44D01*
X0Y43D02*
X7Y43D01*
X1023Y43D02*
X1030Y43D01*
X0Y42D02*
X7Y42D01*
X1023Y42D02*
X1030Y42D01*
X0Y41D02*
X7Y41D01*
X1023Y41D02*
X1030Y41D01*
X0Y40D02*
X7Y40D01*
X1023Y40D02*
X1030Y40D01*
X0Y39D02*
X7Y39D01*
X1023Y39D02*
X1030Y39D01*
X0Y38D02*
X7Y38D01*
X1023Y38D02*
X1030Y38D01*
X0Y37D02*
X7Y37D01*
X1023Y37D02*
X1030Y37D01*
X0Y36D02*
X7Y36D01*
X1023Y36D02*
X1030Y36D01*
X0Y35D02*
X7Y35D01*
X1023Y35D02*
X1030Y35D01*
X0Y34D02*
X7Y34D01*
X1023Y34D02*
X1030Y34D01*
X0Y33D02*
X7Y33D01*
X1023Y33D02*
X1030Y33D01*
X0Y32D02*
X7Y32D01*
X1023Y32D02*
X1030Y32D01*
X0Y31D02*
X7Y31D01*
X1023Y31D02*
X1030Y31D01*
X0Y30D02*
X7Y30D01*
X1023Y30D02*
X1030Y30D01*
X0Y29D02*
X7Y29D01*
X1023Y29D02*
X1030Y29D01*
X0Y28D02*
X7Y28D01*
X1023Y28D02*
X1030Y28D01*
X0Y27D02*
X7Y27D01*
X1023Y27D02*
X1030Y27D01*
X0Y26D02*
X7Y26D01*
X1023Y26D02*
X1030Y26D01*
X0Y25D02*
X7Y25D01*
X1023Y25D02*
X1030Y25D01*
X0Y24D02*
X7Y24D01*
X1023Y24D02*
X1030Y24D01*
X0Y23D02*
X7Y23D01*
X1023Y23D02*
X1030Y23D01*
X0Y22D02*
X7Y22D01*
X1023Y22D02*
X1030Y22D01*
X0Y21D02*
X7Y21D01*
X1023Y21D02*
X1030Y21D01*
X0Y20D02*
X7Y20D01*
X1023Y20D02*
X1030Y20D01*
X0Y19D02*
X7Y19D01*
X1023Y19D02*
X1030Y19D01*
X0Y18D02*
X7Y18D01*
X1023Y18D02*
X1030Y18D01*
X0Y17D02*
X7Y17D01*
X1023Y17D02*
X1030Y17D01*
X0Y16D02*
X7Y16D01*
X1023Y16D02*
X1030Y16D01*
X0Y15D02*
X7Y15D01*
X1023Y15D02*
X1030Y15D01*
X0Y14D02*
X7Y14D01*
X1023Y14D02*
X1030Y14D01*
X0Y13D02*
X7Y13D01*
X1023Y13D02*
X1030Y13D01*
X0Y12D02*
X7Y12D01*
X1023Y12D02*
X1030Y12D01*
X0Y11D02*
X7Y11D01*
X1023Y11D02*
X1030Y11D01*
X0Y10D02*
X7Y10D01*
X1023Y10D02*
X1030Y10D01*
X0Y9D02*
X1030Y9D01*
X0Y8D02*
X1030Y8D01*
X0Y7D02*
X1030Y7D01*
X0Y6D02*
X1030Y6D01*
X0Y5D02*
X1030Y5D01*
X0Y4D02*
X1030Y4D01*
X0Y3D02*
X1030Y3D01*
X0Y2D02*
X1030Y2D01*
D02*
G04 End of Silk1*
M02*