; NON-PLATED HOLES START AT T1
; THROUGH (PLATED) HOLES START AT T100
M48
INCH
T1C0.125984
T100C0.015748
T101C0.038000
T102C0.039370
T103C0.051181
%
T1
X008980Y001329
X000980Y011329
X008980Y011329
X000980Y001329
T100
X001665Y007533
X001813Y002866
X001480Y006755
X004090Y005432
X006220Y005274
X007980Y007255
X000720Y005792
X007943Y005811
X004350Y006551
X004799Y005732
X007480Y001385
X008035Y006514
X002929Y006621
X001406Y005366
T101
X002517Y001227
X004517Y002227
X005517Y001227
X003517Y002227
X002517Y002227
X004517Y001227
X003517Y001227
X005517Y002227
T102
X008980Y002792
X008980Y003792
X008980Y004792
X007980Y002792
X007980Y003792
X007980Y004792
T103
X000980Y007329
X008854Y007329
T00
M30
