G04 MADE WITH FRITZING*
G04 WWW.FRITZING.ORG*
G04 DOUBLE SIDED*
G04 HOLES PLATED*
G04 CONTOUR ON CENTER OF CONTOUR VECTOR*
%ASAXBY*%
%FSLAX23Y23*%
%MOIN*%
%OFA0B0*%
%SFA1.0B1.0*%
%ADD10C,0.079370*%
%ADD11C,0.071181*%
%ADD12C,0.078000*%
%ADD13C,0.039370*%
%ADD14C,0.024000*%
%ADD15C,0.016000*%
%ADD16C,0.021000*%
%ADD17R,0.001000X0.001000*%
%LNCOPPER0*%
G90*
G70*
G54D10*
X798Y479D03*
X798Y379D03*
X798Y279D03*
X798Y479D03*
X798Y379D03*
X798Y279D03*
X898Y279D03*
X898Y379D03*
X898Y479D03*
G54D11*
X885Y733D03*
X98Y733D03*
X885Y733D03*
X98Y733D03*
X885Y733D03*
X98Y733D03*
G54D12*
X252Y123D03*
X352Y123D03*
X452Y123D03*
X552Y123D03*
X252Y123D03*
X352Y123D03*
X452Y123D03*
X552Y123D03*
X552Y223D03*
X452Y223D03*
X352Y223D03*
X252Y223D03*
G54D13*
X409Y543D03*
X293Y662D03*
X480Y573D03*
X181Y287D03*
X148Y676D03*
X435Y655D03*
X804Y651D03*
X141Y537D03*
X748Y139D03*
X167Y753D03*
X622Y527D03*
X794Y581D03*
X72Y579D03*
X798Y726D03*
G54D14*
X135Y359D02*
X244Y301D01*
D02*
X244Y301D02*
X249Y253D01*
D02*
X140Y518D02*
X135Y359D01*
G54D15*
D02*
X129Y609D02*
X139Y550D01*
D02*
X89Y644D02*
X129Y609D01*
D02*
X95Y702D02*
X89Y644D01*
G54D14*
D02*
X348Y607D02*
X306Y649D01*
D02*
X462Y578D02*
X348Y607D01*
G54D16*
D02*
X346Y63D02*
X349Y93D01*
D02*
X185Y57D02*
X346Y63D01*
D02*
X182Y268D02*
X185Y57D01*
G54D15*
D02*
X707Y481D02*
X773Y480D01*
D02*
X792Y170D02*
X704Y229D01*
D02*
X704Y229D02*
X707Y481D01*
D02*
X804Y81D02*
X792Y170D01*
D02*
X576Y119D02*
X804Y81D01*
D02*
X191Y592D02*
X154Y664D01*
D02*
X331Y489D02*
X191Y592D01*
D02*
X546Y314D02*
X333Y303D01*
D02*
X550Y247D02*
X546Y314D01*
D02*
X729Y651D02*
X557Y622D01*
D02*
X850Y577D02*
X868Y655D01*
D02*
X789Y716D02*
X729Y651D01*
D02*
X868Y655D02*
X808Y716D01*
D02*
X557Y622D02*
X448Y652D01*
D02*
X887Y502D02*
X850Y577D01*
D02*
X754Y613D02*
X600Y576D01*
D02*
X600Y576D02*
X493Y573D01*
D02*
X793Y643D02*
X754Y613D01*
D02*
X661Y187D02*
X736Y145D01*
D02*
X233Y631D02*
X365Y511D01*
D02*
X365Y511D02*
X372Y361D01*
D02*
X372Y361D02*
X615Y372D01*
D02*
X615Y372D02*
X661Y187D01*
D02*
X173Y742D02*
X233Y631D01*
D02*
X333Y303D02*
X331Y489D01*
D02*
X781Y577D02*
X635Y531D01*
D02*
X957Y326D02*
X955Y627D01*
D02*
X955Y627D02*
X903Y707D01*
D02*
X918Y295D02*
X957Y326D01*
G54D17*
D02*
G04 End of Copper0*
M02*