G04 MADE WITH FRITZING*
G04 WWW.FRITZING.ORG*
G04 DOUBLE SIDED*
G04 HOLES PLATED*
G04 CONTOUR ON CENTER OF CONTOUR VECTOR*
%ASAXBY*%
%FSLAX23Y23*%
%MOIN*%
%OFA0B0*%
%SFA1.0B1.0*%
%ADD10C,0.079370*%
%ADD11C,0.071181*%
%ADD12C,0.078000*%
%ADD13C,0.039370*%
%ADD14R,0.022000X0.050000*%
%ADD15R,0.050000X0.022000*%
%ADD16R,0.059055X0.055118*%
%ADD17R,0.094488X0.102362*%
%ADD18R,0.102362X0.086614*%
%ADD19C,0.016000*%
%ADD20C,0.024000*%
%ADD21R,0.001000X0.001000*%
%LNCOPPER1*%
G90*
G70*
G54D10*
X798Y479D03*
X798Y379D03*
X798Y279D03*
X798Y479D03*
X798Y379D03*
X798Y279D03*
X898Y279D03*
X898Y379D03*
X898Y479D03*
G54D11*
X885Y733D03*
X98Y733D03*
X885Y733D03*
X98Y733D03*
X885Y733D03*
X98Y733D03*
G54D12*
X252Y123D03*
X352Y123D03*
X452Y123D03*
X552Y123D03*
X252Y123D03*
X352Y123D03*
X452Y123D03*
X552Y123D03*
X552Y223D03*
X452Y223D03*
X352Y223D03*
X252Y223D03*
G54D13*
X409Y543D03*
X293Y662D03*
X480Y573D03*
X181Y287D03*
X148Y676D03*
X435Y655D03*
X804Y651D03*
X141Y537D03*
X748Y139D03*
X167Y753D03*
X622Y527D03*
X794Y581D03*
X72Y579D03*
X798Y726D03*
G54D14*
X277Y750D03*
X309Y750D03*
X340Y750D03*
X372Y750D03*
X403Y750D03*
X435Y750D03*
X466Y750D03*
X498Y750D03*
G54D15*
X557Y808D03*
X557Y840D03*
X557Y871D03*
X557Y903D03*
X557Y934D03*
X557Y966D03*
X557Y997D03*
X557Y1029D03*
G54D14*
X498Y1088D03*
X466Y1088D03*
X435Y1088D03*
X403Y1088D03*
X372Y1088D03*
X340Y1088D03*
X309Y1088D03*
X277Y1088D03*
G54D15*
X219Y1029D03*
X219Y997D03*
X219Y966D03*
X219Y934D03*
X219Y903D03*
X219Y871D03*
X219Y840D03*
X219Y808D03*
G54D16*
X107Y899D03*
X107Y818D03*
G54D17*
X769Y817D03*
X769Y1069D03*
G54D18*
X256Y439D03*
X453Y439D03*
G54D19*
X105Y957D02*
X165Y955D01*
D02*
X165Y955D02*
X170Y903D01*
D02*
X170Y903D02*
X199Y903D01*
D02*
X107Y921D02*
X105Y957D01*
G54D20*
D02*
X102Y769D02*
X105Y796D01*
G54D19*
D02*
X342Y664D02*
X341Y730D01*
D02*
X306Y663D02*
X342Y664D01*
D02*
X374Y681D02*
X372Y730D01*
D02*
X406Y556D02*
X374Y681D01*
D02*
X435Y669D02*
X435Y730D01*
D02*
X412Y556D02*
X432Y642D01*
D02*
X633Y464D02*
X624Y514D01*
D02*
X637Y594D02*
X641Y1001D01*
D02*
X625Y541D02*
X637Y594D01*
D02*
X459Y281D02*
X633Y285D01*
D02*
X633Y285D02*
X633Y464D01*
D02*
X641Y1001D02*
X576Y998D01*
D02*
X455Y247D02*
X459Y281D01*
D02*
X672Y492D02*
X668Y1031D01*
D02*
X672Y131D02*
X672Y492D01*
D02*
X668Y1031D02*
X576Y1029D01*
D02*
X576Y124D02*
X672Y131D01*
D02*
X615Y1148D02*
X498Y1146D01*
D02*
X704Y483D02*
X702Y1051D01*
D02*
X705Y372D02*
X704Y483D01*
D02*
X705Y70D02*
X705Y372D01*
D02*
X702Y1051D02*
X615Y1148D01*
D02*
X498Y1146D02*
X498Y1107D01*
G54D20*
D02*
X72Y560D02*
X67Y289D01*
D02*
X170Y205D02*
X202Y135D01*
D02*
X67Y289D02*
X170Y205D01*
D02*
X202Y135D02*
X222Y130D01*
D02*
X275Y655D02*
X90Y586D01*
G54D19*
D02*
X539Y640D02*
X550Y422D01*
D02*
X550Y422D02*
X548Y355D01*
D02*
X311Y339D02*
X194Y292D01*
D02*
X548Y355D02*
X311Y339D01*
D02*
X555Y751D02*
X539Y640D01*
D02*
X557Y803D02*
X555Y751D01*
D02*
X572Y622D02*
X607Y840D01*
D02*
X581Y459D02*
X572Y622D01*
D02*
X607Y840D02*
X576Y840D01*
D02*
X583Y324D02*
X581Y459D01*
D02*
X348Y307D02*
X583Y324D01*
D02*
X351Y247D02*
X348Y307D01*
D02*
X705Y70D02*
X465Y61D01*
D02*
X465Y61D02*
X457Y99D01*
D02*
X705Y372D02*
X773Y377D01*
D02*
X160Y682D02*
X272Y747D01*
D02*
X863Y711D02*
X813Y661D01*
D02*
X154Y537D02*
X396Y543D01*
D02*
X753Y151D02*
X790Y255D01*
D02*
X170Y903D02*
X167Y767D01*
D02*
X957Y381D02*
X955Y553D01*
D02*
X923Y380D02*
X957Y381D01*
D02*
X955Y553D02*
X808Y579D01*
G54D20*
D02*
X484Y555D02*
X494Y498D01*
D02*
X494Y498D02*
X479Y477D01*
D02*
X155Y524D02*
X211Y477D01*
G54D19*
D02*
X41Y731D02*
X52Y985D01*
D02*
X44Y687D02*
X41Y731D01*
D02*
X52Y985D02*
X152Y1046D01*
D02*
X152Y1046D02*
X205Y1103D01*
D02*
X205Y1103D02*
X257Y1157D01*
D02*
X257Y1157D02*
X372Y1155D01*
D02*
X372Y1155D02*
X372Y1107D01*
D02*
X69Y592D02*
X44Y687D01*
G54D20*
D02*
X891Y966D02*
X886Y770D01*
D02*
X811Y1034D02*
X891Y966D01*
D02*
X792Y744D02*
X783Y771D01*
G54D21*
D02*
G04 End of Copper1*
M02*